NewAmsterdam.ufo
<glyph name="exclam" format="2">
  <advance width="167"/>
  <unicode hex="0021"/>
  <outline>
    <contour>
      <point x="139" y="160" type="line"/>
      <point x="26" y="160" type="line"/>
      <point x="26" y="651" type="line"/>
      <point x="139" y="651" type="line"/>
    </contour>
    <contour>
      <point x="82" y="106" type="qcurve" smooth="yes"/>
      <point x="113" y="106"/>
      <point x="139" y="82"/>
      <point x="139" y="53" type="qcurve" smooth="yes"/>
      <point x="139" y="24"/>
      <point x="113" y="0"/>
      <point x="82" y="0" type="qcurve" smooth="yes"/>
      <point x="52" y="0"/>
      <point x="26" y="24"/>
      <point x="26" y="53" type="qcurve" smooth="yes"/>
      <point x="26" y="82"/>
      <point x="52" y="106"/>
    </contour>
  </outline>
</glyph>
<glyph name="quotedbl" format="2">
  <advance width="253"/>
  <unicode hex="0022"/>
  <outline>
    <contour>
      <point x="20" y="652" type="line"/>
      <point x="117" y="652" type="line"/>
      <point x="94" y="486" type="line"/>
      <point x="73" y="485"/>
      <point x="57" y="485" type="qcurve"/>
      <point x="43" y="484"/>
      <point x="20" y="484"/>
      <point x="20" y="485" type="qcurve"/>
    </contour>
    <contour>
      <point x="141" y="652" type="line"/>
      <point x="238" y="652" type="line"/>
      <point x="213" y="486" type="line"/>
      <point x="193" y="485"/>
      <point x="177" y="485" type="qcurve"/>
      <point x="176" y="485" type="line"/>
      <point x="176" y="485"/>
      <point x="175" y="485" type="qcurve"/>
      <point x="175" y="485"/>
      <point x="174" y="485" type="qcurve"/>
      <point x="174" y="485"/>
      <point x="174" y="485" type="qcurve"/>
      <point x="174" y="485"/>
      <point x="174" y="485" type="qcurve"/>
      <point x="171" y="485" type="line"/>
      <point x="171" y="485"/>
      <point x="171" y="485" type="qcurve"/>
      <point x="170" y="485"/>
      <point x="170" y="485" type="qcurve"/>
      <point x="170" y="485"/>
      <point x="170" y="485" type="qcurve"/>
      <point x="170" y="485"/>
      <point x="170" y="485" type="qcurve"/>
      <point x="166" y="485" type="line"/>
      <point x="166" y="485"/>
      <point x="166" y="485" type="qcurve"/>
      <point x="166" y="485"/>
      <point x="166" y="485" type="qcurve"/>
      <point x="166" y="485"/>
      <point x="166" y="485" type="qcurve"/>
      <point x="166" y="485"/>
      <point x="166" y="485" type="qcurve"/>
      <point x="165" y="485" type="line"/>
      <point x="165" y="485"/>
      <point x="165" y="485" type="qcurve"/>
      <point x="165" y="485"/>
      <point x="164" y="485" type="qcurve"/>
      <point x="164" y="485"/>
      <point x="164" y="485" type="qcurve"/>
      <point x="164" y="485"/>
      <point x="164" y="485" type="qcurve"/>
      <point x="152" y="485" type="line" smooth="yes"/>
      <point x="141" y="485"/>
      <point x="141" y="486" type="qcurve"/>
    </contour>
  </outline>
</glyph>
<glyph name="percent" format="2">
  <advance width="402"/>
  <unicode hex="0025"/>
  <outline>
    <contour>
      <point x="333" y="642" type="line"/>
      <point x="117" y="0" type="line"/>
      <point x="60" y="0" type="line"/>
      <point x="273" y="643" type="line"/>
    </contour>
    <contour>
      <point x="377" y="89" type="line" smooth="yes"/>
      <point x="377" y="69"/>
      <point x="373" y="39"/>
      <point x="358" y="19"/>
      <point x="330" y="8"/>
      <point x="305" y="8" type="qcurve" smooth="yes"/>
      <point x="286" y="8"/>
      <point x="258" y="16"/>
      <point x="241" y="32"/>
      <point x="234" y="58"/>
      <point x="234" y="76" type="qcurve" smooth="yes"/>
      <point x="234" y="244" type="line" smooth="yes"/>
      <point x="234" y="262"/>
      <point x="241" y="288"/>
      <point x="258" y="304"/>
      <point x="286" y="312"/>
      <point x="305" y="312" type="qcurve" smooth="yes"/>
      <point x="325" y="312"/>
      <point x="353" y="304"/>
      <point x="370" y="288"/>
      <point x="377" y="262"/>
      <point x="377" y="244" type="qcurve" smooth="yes"/>
    </contour>
    <contour>
      <point x="280" y="87" type="line"/>
      <point x="280" y="77"/>
      <point x="281" y="64"/>
      <point x="287" y="56"/>
      <point x="297" y="53"/>
      <point x="306" y="53" type="qcurve" smooth="yes"/>
      <point x="315" y="53"/>
      <point x="326" y="57"/>
      <point x="330" y="67"/>
      <point x="331" y="80"/>
      <point x="331" y="89" type="qcurve" smooth="yes"/>
      <point x="331" y="244" type="line" smooth="yes"/>
      <point x="331" y="252"/>
      <point x="330" y="262"/>
      <point x="325" y="267"/>
      <point x="314" y="268"/>
      <point x="305" y="268" type="qcurve" smooth="yes"/>
      <point x="296" y="268"/>
      <point x="285" y="266"/>
      <point x="280" y="261"/>
      <point x="279" y="251"/>
      <point x="279" y="244" type="qcurve"/>
    </contour>
    <contour>
      <point x="163" y="420" type="line" smooth="yes"/>
      <point x="163" y="400"/>
      <point x="159" y="370"/>
      <point x="144" y="350"/>
      <point x="116" y="339"/>
      <point x="91" y="339" type="qcurve" smooth="yes"/>
      <point x="72" y="339"/>
      <point x="44" y="347"/>
      <point x="27" y="363"/>
      <point x="20" y="389"/>
      <point x="20" y="407" type="qcurve" smooth="yes"/>
      <point x="20" y="575" type="line" smooth="yes"/>
      <point x="20" y="593"/>
      <point x="27" y="619"/>
      <point x="44" y="635"/>
      <point x="72" y="643"/>
      <point x="91" y="643" type="qcurve" smooth="yes"/>
      <point x="111" y="643"/>
      <point x="139" y="635"/>
      <point x="156" y="619"/>
      <point x="163" y="593"/>
      <point x="163" y="575" type="qcurve" smooth="yes"/>
    </contour>
    <contour>
      <point x="66" y="418" type="line"/>
      <point x="66" y="408"/>
      <point x="67" y="395"/>
      <point x="73" y="387"/>
      <point x="83" y="384"/>
      <point x="92" y="384" type="qcurve" smooth="yes"/>
      <point x="101" y="384"/>
      <point x="112" y="388"/>
      <point x="116" y="398"/>
      <point x="117" y="411"/>
      <point x="117" y="420" type="qcurve" smooth="yes"/>
      <point x="117" y="575" type="line" smooth="yes"/>
      <point x="117" y="583"/>
      <point x="116" y="593"/>
      <point x="111" y="598"/>
      <point x="100" y="599"/>
      <point x="91" y="599" type="qcurve" smooth="yes"/>
      <point x="82" y="599"/>
      <point x="71" y="597"/>
      <point x="66" y="592"/>
      <point x="65" y="582"/>
      <point x="65" y="575" type="qcurve"/>
    </contour>
  </outline>
</glyph>
<glyph name="ampersand" format="2">
  <advance width="441"/>
  <unicode hex="0026"/>
  <outline>
    <contour>
      <point x="430" y="283" type="line"/>
      <point x="379" y="283" type="line"/>
      <point x="379" y="0" type="line"/>
      <point x="274" y="0" type="line"/>
      <point x="274" y="24" type="line"/>
      <point x="264" y="16"/>
      <point x="225" y="4"/>
      <point x="211" y="0" type="qcurve"/>
      <point x="112" y="0"/>
      <point x="23" y="76"/>
      <point x="23" y="166" type="qcurve" smooth="yes"/>
      <point x="23" y="187" type="line" smooth="yes"/>
      <point x="23" y="208"/>
      <point x="23" y="250"/>
      <point x="31" y="290"/>
      <point x="48" y="327"/>
      <point x="65" y="343" type="qcurve"/>
      <point x="49" y="358"/>
      <point x="32" y="392"/>
      <point x="24" y="429"/>
      <point x="23" y="467"/>
      <point x="23" y="487" type="qcurve" smooth="yes"/>
      <point x="23" y="530"/>
      <point x="41" y="593"/>
      <point x="82" y="633"/>
      <point x="149" y="653"/>
      <point x="198" y="653" type="qcurve" smooth="yes"/>
      <point x="315" y="653" type="line"/>
      <point x="315" y="548" type="line"/>
      <point x="199" y="548" type="line"/>
      <point x="198" y="548" type="line"/>
      <point x="178" y="548"/>
      <point x="143" y="537"/>
      <point x="137" y="525" type="qcurve"/>
      <point x="136" y="517"/>
      <point x="135" y="489"/>
      <point x="135" y="474" type="qcurve" smooth="yes"/>
      <point x="135" y="456"/>
      <point x="139" y="423"/>
      <point x="146" y="416" type="qcurve" smooth="yes"/>
      <point x="153" y="409"/>
      <point x="184" y="401"/>
      <point x="199" y="400" type="qcurve"/>
      <point x="274" y="400" type="line"/>
      <point x="274" y="449" type="line"/>
      <point x="379" y="449" type="line"/>
      <point x="379" y="400" type="line"/>
      <point x="430" y="400" type="line"/>
    </contour>
    <contour>
      <point x="274" y="283" type="line"/>
      <point x="199" y="283" type="line"/>
      <point x="199" y="286" type="line"/>
      <point x="183" y="284"/>
      <point x="150" y="275"/>
      <point x="143" y="266" type="qcurve" smooth="yes"/>
      <point x="138" y="259"/>
      <point x="136" y="206"/>
      <point x="136" y="181" type="qcurve" smooth="yes"/>
      <point x="136" y="143" type="line" smooth="yes"/>
      <point x="136" y="126"/>
      <point x="174" y="111"/>
      <point x="197" y="111" type="qcurve"/>
      <point x="198" y="111" type="line"/>
      <point x="200" y="111"/>
      <point x="220" y="114"/>
      <point x="246" y="125"/>
      <point x="269" y="147"/>
      <point x="274" y="167" type="qcurve"/>
    </contour>
  </outline>
</glyph>
<glyph name="quotesingle" format="2">
  <advance width="127"/>
  <unicode hex="0027"/>
  <outline>
    <contour>
      <point x="17" y="648" type="line"/>
      <point x="114" y="648" type="line"/>
      <point x="91" y="482" type="line"/>
      <point x="70" y="481"/>
      <point x="54" y="481" type="qcurve"/>
      <point x="40" y="480"/>
      <point x="17" y="480"/>
      <point x="17" y="481" type="qcurve"/>
    </contour>
  </outline>
</glyph>
<glyph name="parenleft" format="2">
  <advance width="167"/>
  <unicode hex="0028"/>
  <outline>
    <contour>
      <point x="26" y="626" type="line" smooth="yes"/>
      <point x="26" y="680"/>
      <point x="51" y="747"/>
      <point x="104" y="785"/>
      <point x="184" y="798"/>
      <point x="240" y="798" type="qcurve"/>
      <point x="240" y="692" type="line"/>
      <point x="207" y="692"/>
      <point x="167" y="689"/>
      <point x="145" y="674"/>
      <point x="138" y="644"/>
      <point x="138" y="617" type="qcurve" smooth="yes"/>
      <point x="138" y="35" type="line" smooth="yes"/>
      <point x="138" y="8"/>
      <point x="145" y="-22"/>
      <point x="167" y="-37"/>
      <point x="207" y="-40"/>
      <point x="240" y="-40" type="qcurve"/>
      <point x="240" y="-146" type="line"/>
      <point x="184" y="-146"/>
      <point x="104" y="-133"/>
      <point x="51" y="-95"/>
      <point x="26" y="-28"/>
      <point x="26" y="26" type="qcurve" smooth="yes"/>
    </contour>
  </outline>
</glyph>
<glyph name="parenright" format="2">
  <advance width="184"/>
  <unicode hex="0029"/>
  <outline>
    <contour>
      <point x="-60" y="797" type="line"/>
      <point x="-5" y="797"/>
      <point x="76" y="784"/>
      <point x="129" y="746"/>
      <point x="154" y="679"/>
      <point x="154" y="625" type="qcurve" smooth="yes"/>
      <point x="154" y="25" type="line" smooth="yes"/>
      <point x="154" y="-29"/>
      <point x="129" y="-96"/>
      <point x="76" y="-134"/>
      <point x="-5" y="-147"/>
      <point x="-60" y="-147" type="qcurve"/>
      <point x="-60" y="-41" type="line"/>
      <point x="-27" y="-41"/>
      <point x="13" y="-38"/>
      <point x="35" y="-23"/>
      <point x="42" y="7"/>
      <point x="42" y="34" type="qcurve" smooth="yes"/>
      <point x="42" y="616" type="line" smooth="yes"/>
      <point x="42" y="643"/>
      <point x="35" y="673"/>
      <point x="13" y="688"/>
      <point x="-27" y="691"/>
      <point x="-60" y="691" type="qcurve"/>
    </contour>
  </outline>
</glyph>
<glyph name="asterisk" format="2">
  <advance width="266"/>
  <unicode hex="002A"/>
  <outline>
    <contour>
      <point x="251" y="542" type="line"/>
      <point x="251" y="474" type="line"/>
      <point x="181" y="483" type="line"/>
      <point x="226" y="426" type="line"/>
      <point x="166" y="391" type="line"/>
      <point x="136" y="459" type="line"/>
      <point x="105" y="389" type="line"/>
      <point x="48" y="426" type="line"/>
      <point x="91" y="483" type="line"/>
      <point x="23" y="474" type="line"/>
      <point x="23" y="542" type="line"/>
      <point x="91" y="533" type="line"/>
      <point x="46" y="592" type="line"/>
      <point x="107" y="627" type="line"/>
      <point x="136" y="559" type="line"/>
      <point x="166" y="627" type="line"/>
      <point x="226" y="592" type="line"/>
      <point x="181" y="533" type="line"/>
    </contour>
  </outline>
</glyph>
<glyph name="plus" format="2">
  <advance width="306"/>
  <unicode hex="002B"/>
  <outline>
    <contour>
      <point x="287" y="358" type="line"/>
      <point x="287" y="277" type="line"/>
      <point x="196" y="277" type="line"/>
      <point x="196" y="186" type="line"/>
      <point x="115" y="186" type="line"/>
      <point x="115" y="277" type="line"/>
      <point x="24" y="277" type="line"/>
      <point x="24" y="358" type="line"/>
      <point x="115" y="358" type="line"/>
      <point x="115" y="449" type="line"/>
      <point x="196" y="449" type="line"/>
      <point x="196" y="358" type="line"/>
    </contour>
  </outline>
</glyph>
<glyph name="comma" format="2">
  <advance width="139"/>
  <unicode hex="002C"/>
  <outline>
    <contour>
      <point x="18" y="-50" type="line"/>
      <point x="36" y="-38"/>
      <point x="36" y="-19" type="qcurve" smooth="yes"/>
      <point x="36" y="3"/>
      <point x="26" y="18" type="qcurve" smooth="yes"/>
      <point x="21" y="26" type="line"/>
      <point x="21" y="25" type="line"/>
      <point x="17" y="29"/>
      <point x="12" y="37"/>
      <point x="10" y="44" type="qcurve" smooth="yes"/>
      <point x="7" y="57"/>
      <point x="16" y="80"/>
      <point x="35" y="96"/>
      <point x="60" y="106"/>
      <point x="73" y="106" type="qcurve" smooth="yes"/>
      <point x="92" y="106"/>
      <point x="122" y="84"/>
      <point x="125" y="57" type="qcurve" smooth="yes"/>
      <point x="129" y="18"/>
      <point x="82" y="-46"/>
      <point x="49" y="-69" type="qcurve"/>
    </contour>
  </outline>
</glyph>
<glyph name="hyphen" format="2">
  <advance width="264"/>
  <unicode hex="002D"/>
  <outline>
    <contour>
      <point x="239" y="358" type="line"/>
      <point x="239" y="277" type="line"/>
      <point x="24" y="277" type="line"/>
      <point x="24" y="358" type="line"/>
    </contour>
  </outline>
</glyph>
<glyph name="period" format="2">
  <advance width="137"/>
  <unicode hex="002E"/>
  <outline>
    <contour>
      <point x="70" y="107" type="qcurve" smooth="yes"/>
      <point x="100" y="107"/>
      <point x="126" y="82"/>
      <point x="126" y="53" type="qcurve" smooth="yes"/>
      <point x="126" y="0"/>
      <point x="70" y="0" type="qcurve" smooth="yes"/>
      <point x="40" y="0"/>
      <point x="14" y="26"/>
      <point x="14" y="53" type="qcurve" smooth="yes"/>
      <point x="14" y="81"/>
      <point x="39" y="107"/>
    </contour>
  </outline>
</glyph>
<glyph name="slash" format="2">
  <advance width="290"/>
  <unicode hex="002F"/>
  <outline>
    <contour>
      <point x="279" y="642" type="line"/>
      <point x="92" y="0" type="line"/>
      <point x="14" y="0" type="line"/>
      <point x="205" y="643" type="line"/>
    </contour>
  </outline>
</glyph>
<glyph name="zero" format="2">
  <advance width="402"/>
  <unicode hex="0030"/>
  <outline>
    <contour>
      <point x="375" y="198" type="line" smooth="yes"/>
      <point x="375" y="149"/>
      <point x="365" y="75"/>
      <point x="329" y="25"/>
      <point x="260" y="0"/>
      <point x="200" y="0" type="qcurve" smooth="yes"/>
      <point x="151" y="0"/>
      <point x="84" y="18"/>
      <point x="42" y="57"/>
      <point x="24" y="120"/>
      <point x="24" y="166" type="qcurve" smooth="yes"/>
      <point x="24" y="487" type="line" smooth="yes"/>
      <point x="24" y="532"/>
      <point x="42" y="595"/>
      <point x="84" y="635"/>
      <point x="151" y="653"/>
      <point x="200" y="653" type="qcurve" smooth="yes"/>
      <point x="248" y="653"/>
      <point x="315" y="635"/>
      <point x="357" y="595"/>
      <point x="375" y="532"/>
      <point x="375" y="487" type="qcurve" smooth="yes"/>
    </contour>
    <contour>
      <point x="137" y="193" type="line"/>
      <point x="137" y="168"/>
      <point x="141" y="135"/>
      <point x="154" y="116"/>
      <point x="180" y="108"/>
      <point x="202" y="108" type="qcurve" smooth="yes"/>
      <point x="224" y="108"/>
      <point x="249" y="120"/>
      <point x="261" y="142"/>
      <point x="263" y="176"/>
      <point x="263" y="198" type="qcurve" smooth="yes"/>
      <point x="263" y="487" type="line" smooth="yes"/>
      <point x="263" y="508"/>
      <point x="260" y="532"/>
      <point x="248" y="544"/>
      <point x="222" y="546"/>
      <point x="200" y="546" type="qcurve" smooth="yes"/>
      <point x="176" y="546"/>
      <point x="150" y="541"/>
      <point x="138" y="528"/>
      <point x="135" y="505"/>
      <point x="135" y="487" type="qcurve"/>
    </contour>
  </outline>
</glyph>
<glyph name="one" format="2">
  <advance width="231"/>
  <unicode hex="0031"/>
  <outline>
    <contour>
      <point x="199" y="0" type="line"/>
      <point x="87" y="0" type="line"/>
      <point x="87" y="546" type="line"/>
      <point x="20" y="546" type="line"/>
      <point x="20" y="652" type="line"/>
      <point x="199" y="652" type="line"/>
    </contour>
  </outline>
</glyph>
<glyph name="two" format="2">
  <advance width="403"/>
  <unicode hex="0032"/>
  <outline>
    <contour>
      <point x="376" y="0" type="line"/>
      <point x="24" y="0" type="line"/>
      <point x="25" y="16"/>
      <point x="26" y="51"/>
      <point x="26" y="67" type="qcurve" smooth="yes"/>
      <point x="26" y="83"/>
      <point x="25" y="112"/>
      <point x="25" y="127" type="qcurve"/>
      <point x="24" y="140"/>
      <point x="24" y="155" type="qcurve"/>
      <point x="24" y="155"/>
      <point x="24" y="155" type="qcurve"/>
      <point x="24" y="155"/>
      <point x="24" y="155" type="qcurve"/>
      <point x="24" y="155"/>
      <point x="24" y="156" type="qcurve"/>
      <point x="24" y="156"/>
      <point x="24" y="156" type="qcurve"/>
      <point x="24" y="156"/>
      <point x="24" y="156" type="qcurve"/>
      <point x="24" y="156"/>
      <point x="24" y="156" type="qcurve"/>
      <point x="24" y="157" type="line"/>
      <point x="24" y="157"/>
      <point x="24" y="157" type="qcurve"/>
      <point x="24" y="158" type="line"/>
      <point x="24" y="158"/>
      <point x="24" y="158" type="qcurve"/>
      <point x="24" y="158"/>
      <point x="24" y="158" type="qcurve"/>
      <point x="24" y="158"/>
      <point x="24" y="159" type="qcurve"/>
      <point x="24" y="159"/>
      <point x="24" y="159" type="qcurve"/>
      <point x="24" y="159"/>
      <point x="24" y="159" type="qcurve"/>
      <point x="24" y="159"/>
      <point x="24" y="159" type="qcurve"/>
      <point x="24" y="160" type="line"/>
      <point x="24" y="160"/>
      <point x="24" y="160" type="qcurve"/>
      <point x="24" y="161" type="line"/>
      <point x="24" y="161"/>
      <point x="24" y="161" type="qcurve"/>
      <point x="24" y="161"/>
      <point x="24" y="161" type="qcurve"/>
      <point x="24" y="161"/>
      <point x="24" y="162" type="qcurve"/>
      <point x="24" y="162"/>
      <point x="24" y="162" type="qcurve"/>
      <point x="24" y="162"/>
      <point x="24" y="162" type="qcurve"/>
      <point x="24" y="162"/>
      <point x="24" y="162" type="qcurve"/>
      <point x="24" y="162"/>
      <point x="24" y="162" type="qcurve"/>
      <point x="24" y="164" type="line"/>
      <point x="24" y="164"/>
      <point x="24" y="164" type="qcurve"/>
      <point x="24" y="164"/>
      <point x="24" y="164" type="qcurve"/>
      <point x="24" y="164"/>
      <point x="24" y="165" type="qcurve"/>
      <point x="24" y="165"/>
      <point x="24" y="165" type="qcurve"/>
      <point x="24" y="165"/>
      <point x="24" y="165" type="qcurve"/>
      <point x="24" y="165"/>
      <point x="24" y="165" type="qcurve"/>
      <point x="24" y="165"/>
      <point x="24" y="165" type="qcurve"/>
      <point x="24" y="166" type="line"/>
      <point x="24" y="166"/>
      <point x="24" y="166" type="qcurve"/>
      <point x="24" y="166"/>
      <point x="24" y="166" type="qcurve"/>
      <point x="24" y="166"/>
      <point x="24" y="167" type="qcurve"/>
      <point x="24" y="167"/>
      <point x="24" y="167" type="qcurve"/>
      <point x="24" y="167"/>
      <point x="24" y="167" type="qcurve"/>
      <point x="24" y="167"/>
      <point x="24" y="167" type="qcurve"/>
      <point x="24" y="167"/>
      <point x="24" y="167" type="qcurve"/>
      <point x="24" y="168" type="line"/>
      <point x="24" y="168"/>
      <point x="24" y="168" type="qcurve"/>
      <point x="24" y="168"/>
      <point x="24" y="168" type="qcurve"/>
      <point x="24" y="168"/>
      <point x="24" y="168" type="qcurve"/>
      <point x="24" y="168"/>
      <point x="24" y="168" type="qcurve"/>
      <point x="24" y="168"/>
      <point x="24" y="168" type="qcurve"/>
      <point x="24" y="168"/>
      <point x="24" y="168" type="qcurve"/>
      <point x="24" y="169" type="line"/>
      <point x="24" y="169"/>
      <point x="24" y="169" type="qcurve"/>
      <point x="24" y="181" type="line" smooth="yes"/>
      <point x="24" y="221"/>
      <point x="35" y="289"/>
      <point x="73" y="337"/>
      <point x="142" y="364"/>
      <point x="201" y="364" type="qcurve" smooth="yes"/>
      <point x="226" y="364"/>
      <point x="253" y="377"/>
      <point x="265" y="398"/>
      <point x="266" y="415"/>
      <point x="266" y="420" type="qcurve" smooth="yes"/>
      <point x="266" y="429"/>
      <point x="265" y="438" type="qcurve"/>
      <point x="265" y="443"/>
      <point x="264" y="451"/>
      <point x="264" y="455" type="qcurve" smooth="yes"/>
      <point x="264" y="509"/>
      <point x="240" y="547"/>
      <point x="201" y="547" type="qcurve" smooth="yes"/>
      <point x="183" y="547"/>
      <point x="157" y="544"/>
      <point x="142" y="531"/>
      <point x="137" y="508"/>
      <point x="137" y="493" type="qcurve"/>
      <point x="137" y="493"/>
      <point x="137" y="492" type="qcurve"/>
      <point x="137" y="492"/>
      <point x="137" y="491" type="qcurve"/>
      <point x="137" y="489" type="line"/>
      <point x="137" y="489"/>
      <point x="137" y="489" type="qcurve"/>
      <point x="137" y="484" type="line"/>
      <point x="137" y="483"/>
      <point x="137" y="483" type="qcurve"/>
      <point x="24" y="483" type="line"/>
      <point x="24" y="528"/>
      <point x="42" y="592"/>
      <point x="83" y="634"/>
      <point x="151" y="653"/>
      <point x="201" y="653" type="qcurve" smooth="yes"/>
      <point x="251" y="653"/>
      <point x="318" y="634"/>
      <point x="359" y="594"/>
      <point x="376" y="532"/>
      <point x="376" y="488" type="qcurve" smooth="yes"/>
      <point x="376" y="465" type="line" smooth="yes"/>
      <point x="376" y="420"/>
      <point x="371" y="343"/>
      <point x="338" y="288"/>
      <point x="266" y="257"/>
      <point x="199" y="257" type="qcurve" smooth="yes"/>
      <point x="194" y="257"/>
      <point x="177" y="256"/>
      <point x="159" y="252"/>
      <point x="143" y="242"/>
      <point x="141" y="233" type="qcurve" smooth="yes"/>
      <point x="139" y="224"/>
      <point x="138" y="191"/>
      <point x="137" y="154"/>
      <point x="137" y="137" type="qcurve"/>
      <point x="137" y="137"/>
      <point x="137" y="137" type="qcurve"/>
      <point x="137" y="136"/>
      <point x="137" y="136" type="qcurve"/>
      <point x="137" y="136"/>
      <point x="137" y="135" type="qcurve"/>
      <point x="137" y="134" type="line"/>
      <point x="137" y="134"/>
      <point x="137" y="134" type="qcurve"/>
      <point x="137" y="133" type="line"/>
      <point x="137" y="133"/>
      <point x="137" y="133" type="qcurve"/>
      <point x="137" y="132"/>
      <point x="137" y="132" type="qcurve"/>
      <point x="137" y="132"/>
      <point x="137" y="131" type="qcurve"/>
      <point x="137" y="130" type="line"/>
      <point x="137" y="130"/>
      <point x="137" y="130" type="qcurve"/>
      <point x="137" y="123" type="line"/>
      <point x="137" y="123"/>
      <point x="137" y="123" type="qcurve"/>
      <point x="137" y="123"/>
      <point x="137" y="123" type="qcurve"/>
      <point x="137" y="123"/>
      <point x="137" y="123" type="qcurve"/>
      <point x="137" y="122" type="line"/>
      <point x="137" y="122"/>
      <point x="137" y="122" type="qcurve"/>
      <point x="137" y="108" type="line"/>
      <point x="137" y="108"/>
      <point x="137" y="108" type="qcurve"/>
      <point x="137" y="108"/>
      <point x="137" y="108" type="qcurve"/>
      <point x="137" y="108"/>
      <point x="137" y="108" type="qcurve"/>
      <point x="137" y="107" type="line"/>
      <point x="137" y="107"/>
      <point x="137" y="107" type="qcurve"/>
      <point x="376" y="107" type="line"/>
    </contour>
  </outline>
</glyph>
<glyph name="three" format="2">
  <advance width="388"/>
  <unicode hex="0033"/>
  <outline>
    <contour>
      <point x="119" y="396" type="line"/>
      <point x="145" y="396" type="line" smooth="yes"/>
      <point x="156" y="396"/>
      <point x="170" y="395"/>
      <point x="174" y="395" type="qcurve" smooth="yes"/>
      <point x="181" y="395"/>
      <point x="188" y="396" type="qcurve"/>
      <point x="214" y="397"/>
      <point x="242" y="414"/>
      <point x="254" y="438"/>
      <point x="255" y="468"/>
      <point x="255" y="483" type="qcurve" smooth="yes"/>
      <point x="255" y="502"/>
      <point x="252" y="526"/>
      <point x="240" y="540"/>
      <point x="215" y="546"/>
      <point x="191" y="547" type="qcurve"/>
      <point x="167" y="547"/>
      <point x="142" y="543"/>
      <point x="130" y="530"/>
      <point x="128" y="504"/>
      <point x="128" y="483" type="qcurve"/>
      <point x="15" y="483" type="line"/>
      <point x="15" y="528"/>
      <point x="33" y="592"/>
      <point x="74" y="634"/>
      <point x="141" y="653"/>
      <point x="191" y="653" type="qcurve" smooth="yes"/>
      <point x="252" y="653"/>
      <point x="322" y="627"/>
      <point x="358" y="577"/>
      <point x="367" y="504"/>
      <point x="367" y="456" type="qcurve" smooth="yes"/>
      <point x="367" y="426"/>
      <point x="349" y="366"/>
      <point x="326" y="343" type="qcurve"/>
      <point x="342" y="327"/>
      <point x="359" y="293"/>
      <point x="367" y="257"/>
      <point x="368" y="218"/>
      <point x="368" y="198" type="qcurve" smooth="yes"/>
      <point x="368" y="150"/>
      <point x="359" y="77"/>
      <point x="324" y="26"/>
      <point x="253" y="0"/>
      <point x="191" y="0" type="qcurve" smooth="yes"/>
      <point x="141" y="0"/>
      <point x="74" y="19"/>
      <point x="33" y="61"/>
      <point x="15" y="126"/>
      <point x="15" y="172" type="qcurve"/>
      <point x="128" y="172" type="line"/>
      <point x="128" y="150"/>
      <point x="133" y="124"/>
      <point x="147" y="111"/>
      <point x="169" y="106"/>
      <point x="186" y="106" type="qcurve" smooth="yes"/>
      <point x="213" y="106"/>
      <point x="242" y="118"/>
      <point x="255" y="139"/>
      <point x="256" y="166"/>
      <point x="256" y="181" type="qcurve" smooth="yes"/>
      <point x="256" y="198" type="line" smooth="yes"/>
      <point x="256" y="241"/>
      <point x="244" y="277"/>
      <point x="227" y="282" type="qcurve" smooth="yes"/>
      <point x="205" y="289"/>
      <point x="180" y="290"/>
      <point x="173" y="290" type="qcurve" smooth="yes"/>
      <point x="160" y="290"/>
      <point x="147" y="289" type="qcurve"/>
      <point x="119" y="289" type="line"/>
    </contour>
  </outline>
</glyph>
<glyph name="four" format="2">
  <advance width="405"/>
  <unicode hex="0034"/>
  <outline>
    <contour>
      <point x="386" y="193" type="line"/>
      <point x="336" y="193" type="line"/>
      <point x="336" y="0" type="line"/>
      <point x="223" y="0" type="line"/>
      <point x="223" y="193" type="line"/>
      <point x="18" y="193" type="line"/>
      <point x="18" y="210" type="line"/>
      <point x="18" y="263" type="line" smooth="yes"/>
      <point x="18" y="279"/>
      <point x="19" y="296" type="qcurve"/>
      <point x="225" y="653" type="line"/>
      <point x="336" y="653" type="line"/>
      <point x="336" y="299" type="line"/>
      <point x="386" y="299" type="line"/>
    </contour>
    <contour>
      <point x="223" y="428" type="line"/>
      <point x="205" y="396"/>
      <point x="166" y="332"/>
      <point x="147" y="299" type="qcurve"/>
      <point x="223" y="299" type="line"/>
    </contour>
  </outline>
</glyph>
<glyph name="five" format="2">
  <advance width="401"/>
  <unicode hex="0035"/>
  <outline>
    <contour>
      <point x="138" y="171" type="line"/>
      <point x="138" y="169"/>
      <point x="139" y="155"/>
      <point x="143" y="138"/>
      <point x="152" y="122"/>
      <point x="161" y="118" type="qcurve"/>
      <point x="161" y="119" type="line"/>
      <point x="169" y="115"/>
      <point x="191" y="110"/>
      <point x="203" y="110" type="qcurve" smooth="yes"/>
      <point x="217" y="110"/>
      <point x="245" y="119"/>
      <point x="253" y="131" type="qcurve" smooth="yes"/>
      <point x="265" y="148"/>
      <point x="268" y="203"/>
      <point x="268" y="222" type="qcurve" smooth="yes"/>
      <point x="268" y="230" type="line" smooth="yes"/>
      <point x="268" y="257"/>
      <point x="265" y="291"/>
      <point x="249" y="310"/>
      <point x="215" y="316"/>
      <point x="183" y="316" type="qcurve" smooth="yes"/>
      <point x="26" y="316" type="line"/>
      <point x="26" y="653" type="line"/>
      <point x="378" y="653" type="line"/>
      <point x="378" y="546" type="line"/>
      <point x="138" y="546" type="line"/>
      <point x="138" y="422" type="line"/>
      <point x="211" y="422" type="line" smooth="yes"/>
      <point x="275" y="422"/>
      <point x="343" y="394"/>
      <point x="374" y="344"/>
      <point x="378" y="274"/>
      <point x="378" y="231" type="qcurve" smooth="yes"/>
      <point x="378" y="198" type="line" smooth="yes"/>
      <point x="378" y="150"/>
      <point x="369" y="77"/>
      <point x="334" y="26"/>
      <point x="263" y="0"/>
      <point x="202" y="0" type="qcurve" smooth="yes"/>
      <point x="152" y="0"/>
      <point x="85" y="19"/>
      <point x="44" y="60"/>
      <point x="26" y="125"/>
      <point x="26" y="171" type="qcurve"/>
    </contour>
  </outline>
</glyph>
<glyph name="six" format="2">
  <advance width="404"/>
  <unicode hex="0036"/>
  <outline>
    <contour>
      <point x="266" y="483" type="line"/>
      <point x="266" y="484"/>
      <point x="269" y="499"/>
      <point x="269" y="518"/>
      <point x="264" y="537"/>
      <point x="256" y="542" type="qcurve" smooth="yes"/>
      <point x="253" y="544"/>
      <point x="222" y="547"/>
      <point x="204" y="547" type="qcurve" smooth="yes"/>
      <point x="184" y="547"/>
      <point x="149" y="542"/>
      <point x="146" y="537" type="qcurve"/>
      <point x="147" y="537" type="line"/>
      <point x="143" y="529"/>
      <point x="140" y="480"/>
      <point x="140" y="454" type="qcurve" smooth="yes"/>
      <point x="140" y="440"/>
      <point x="141" y="414"/>
      <point x="141" y="403" type="qcurve" smooth="yes"/>
      <point x="141" y="390" type="line"/>
      <point x="156" y="393"/>
      <point x="189" y="395"/>
      <point x="205" y="395" type="qcurve" smooth="yes"/>
      <point x="271" y="395"/>
      <point x="343" y="364"/>
      <point x="376" y="309"/>
      <point x="381" y="232"/>
      <point x="381" y="187" type="qcurve" smooth="yes"/>
      <point x="381" y="166" type="line" smooth="yes"/>
      <point x="381" y="121"/>
      <point x="363" y="58"/>
      <point x="322" y="18"/>
      <point x="255" y="0"/>
      <point x="205" y="0" type="qcurve" smooth="yes"/>
      <point x="145" y="0"/>
      <point x="75" y="27"/>
      <point x="39" y="74"/>
      <point x="29" y="139"/>
      <point x="29" y="177" type="qcurve" smooth="yes"/>
      <point x="29" y="462" type="line" smooth="yes"/>
      <point x="29" y="504"/>
      <point x="37" y="574"/>
      <point x="71" y="625"/>
      <point x="142" y="653"/>
      <point x="205" y="653" type="qcurve" smooth="yes"/>
      <point x="254" y="653"/>
      <point x="322" y="634"/>
      <point x="363" y="592"/>
      <point x="381" y="528"/>
      <point x="381" y="483" type="qcurve"/>
    </contour>
    <contour>
      <point x="142" y="194" type="line" smooth="yes"/>
      <point x="142" y="164"/>
      <point x="146" y="130"/>
      <point x="158" y="113"/>
      <point x="183" y="109"/>
      <point x="204" y="109" type="qcurve" smooth="yes"/>
      <point x="229" y="109"/>
      <point x="255" y="116"/>
      <point x="267" y="133"/>
      <point x="268" y="162"/>
      <point x="268" y="185" type="qcurve" smooth="yes"/>
      <point x="268" y="213" type="line" smooth="yes"/>
      <point x="268" y="236"/>
      <point x="265" y="267"/>
      <point x="253" y="285"/>
      <point x="231" y="291"/>
      <point x="215" y="291" type="qcurve"/>
      <point x="214" y="291"/>
      <point x="214" y="291" type="qcurve"/>
      <point x="214" y="291"/>
      <point x="214" y="291" type="qcurve"/>
      <point x="212" y="291" type="line"/>
      <point x="212" y="291"/>
      <point x="212" y="291" type="qcurve"/>
      <point x="212" y="291"/>
      <point x="212" y="291" type="qcurve"/>
      <point x="211" y="291" type="line"/>
      <point x="211" y="291"/>
      <point x="211" y="291" type="qcurve"/>
      <point x="205" y="291" type="line"/>
      <point x="181" y="290"/>
      <point x="156" y="281"/>
      <point x="144" y="262"/>
      <point x="142" y="231"/>
      <point x="142" y="208" type="qcurve" smooth="yes"/>
    </contour>
  </outline>
</glyph>
<glyph name="seven" format="2">
  <advance width="360"/>
  <unicode hex="0037"/>
  <outline>
    <contour>
      <point x="342" y="649" type="line"/>
      <point x="345" y="639"/>
      <point x="345" y="622" type="qcurve" smooth="yes"/>
      <point x="345" y="610"/>
      <point x="339" y="558"/>
      <point x="317" y="462"/>
      <point x="285" y="350"/>
      <point x="250" y="238"/>
      <point x="214" y="131"/>
      <point x="200" y="89" type="qcurve"/>
      <point x="200" y="90" type="line"/>
      <point x="194" y="68"/>
      <point x="178" y="22"/>
      <point x="171" y="0" type="qcurve"/>
      <point x="53" y="0" type="line"/>
      <point x="224" y="547" type="line"/>
      <point x="18" y="547" type="line"/>
      <point x="18" y="653" type="line"/>
      <point x="337" y="653" type="line"/>
    </contour>
  </outline>
</glyph>
<glyph name="eight" format="2">
  <advance width="400"/>
  <unicode hex="0038"/>
  <outline>
    <contour>
      <point x="63" y="343" type="qcurve"/>
      <point x="47" y="358"/>
      <point x="30" y="393"/>
      <point x="22" y="429"/>
      <point x="21" y="467"/>
      <point x="21" y="487" type="qcurve" smooth="yes"/>
      <point x="21" y="531"/>
      <point x="39" y="594"/>
      <point x="80" y="634"/>
      <point x="148" y="653"/>
      <point x="198" y="653" type="qcurve" smooth="yes"/>
      <point x="259" y="653"/>
      <point x="330" y="627"/>
      <point x="364" y="576"/>
      <point x="373" y="503"/>
      <point x="373" y="455" type="qcurve" smooth="yes"/>
      <point x="373" y="425"/>
      <point x="355" y="366"/>
      <point x="332" y="343" type="qcurve"/>
      <point x="348" y="327"/>
      <point x="364" y="293"/>
      <point x="372" y="256"/>
      <point x="373" y="218"/>
      <point x="373" y="198" type="qcurve" smooth="yes"/>
      <point x="373" y="150"/>
      <point x="364" y="77"/>
      <point x="330" y="26"/>
      <point x="259" y="0"/>
      <point x="198" y="0" type="qcurve" smooth="yes"/>
      <point x="148" y="0"/>
      <point x="80" y="18"/>
      <point x="39" y="58"/>
      <point x="21" y="121"/>
      <point x="21" y="166" type="qcurve" smooth="yes"/>
      <point x="21" y="188" type="line"/>
      <point x="21" y="188"/>
      <point x="21" y="188" type="qcurve"/>
      <point x="21" y="188"/>
      <point x="21" y="189" type="qcurve"/>
      <point x="21" y="189"/>
      <point x="21" y="189" type="qcurve"/>
      <point x="21" y="189"/>
      <point x="21" y="189" type="qcurve"/>
      <point x="21" y="190" type="line"/>
      <point x="21" y="190"/>
      <point x="21" y="190" type="qcurve"/>
      <point x="21" y="192" type="line"/>
      <point x="21" y="192"/>
      <point x="21" y="192" type="qcurve"/>
      <point x="21" y="192"/>
      <point x="21" y="192" type="qcurve"/>
      <point x="21" y="192"/>
      <point x="21" y="192" type="qcurve"/>
      <point x="21" y="192"/>
      <point x="21" y="193" type="qcurve"/>
      <point x="21" y="193"/>
      <point x="21" y="193" type="qcurve"/>
      <point x="21" y="199" type="line"/>
      <point x="21" y="199"/>
      <point x="21" y="199" type="qcurve"/>
      <point x="21" y="199"/>
      <point x="21" y="199" type="qcurve"/>
      <point x="21" y="199"/>
      <point x="21" y="199" type="qcurve"/>
      <point x="21" y="199"/>
      <point x="21" y="200" type="qcurve"/>
      <point x="21" y="200"/>
      <point x="21" y="200" type="qcurve"/>
      <point x="21" y="206" type="line"/>
      <point x="21" y="206"/>
      <point x="21" y="206" type="qcurve"/>
      <point x="21" y="206"/>
      <point x="21" y="207" type="qcurve"/>
      <point x="21" y="207"/>
      <point x="21" y="207" type="qcurve"/>
      <point x="21" y="207"/>
      <point x="21" y="207" type="qcurve"/>
      <point x="21" y="208" type="line"/>
      <point x="21" y="208"/>
      <point x="21" y="208" type="qcurve"/>
      <point x="21" y="223" type="line"/>
      <point x="21" y="223"/>
      <point x="21" y="223" type="qcurve"/>
      <point x="21" y="223"/>
      <point x="21" y="223" type="qcurve"/>
      <point x="21" y="223"/>
      <point x="21" y="224" type="qcurve"/>
      <point x="21" y="224"/>
      <point x="21" y="224" type="qcurve"/>
      <point x="21" y="224"/>
      <point x="21" y="224" type="qcurve"/>
      <point x="21" y="229" type="line" smooth="yes"/>
      <point x="21" y="250"/>
      <point x="29" y="290"/>
      <point x="46" y="327"/>
    </contour>
    <contour>
      <point x="135" y="525" type="qcurve"/>
      <point x="134" y="517"/>
      <point x="133" y="489"/>
      <point x="133" y="474" type="qcurve" smooth="yes"/>
      <point x="133" y="456"/>
      <point x="137" y="423"/>
      <point x="144" y="416" type="qcurve" smooth="yes"/>
      <point x="152" y="408"/>
      <point x="181" y="399"/>
      <point x="198" y="399" type="qcurve" smooth="yes"/>
      <point x="218" y="399"/>
      <point x="253" y="414"/>
      <point x="257" y="428" type="qcurve" smooth="yes"/>
      <point x="262" y="445"/>
      <point x="262" y="475"/>
      <point x="261" y="491" type="qcurve"/>
      <point x="261" y="498"/>
      <point x="260" y="511"/>
      <point x="260" y="518" type="qcurve" smooth="yes"/>
      <point x="260" y="533"/>
      <point x="219" y="548"/>
      <point x="196" y="548" type="qcurve" smooth="yes"/>
      <point x="176" y="548"/>
      <point x="141" y="537"/>
    </contour>
    <contour>
      <point x="261" y="181" type="line" smooth="yes"/>
      <point x="261" y="194"/>
      <point x="260" y="221"/>
      <point x="259" y="245"/>
      <point x="256" y="263"/>
      <point x="253" y="266" type="qcurve" smooth="yes"/>
      <point x="244" y="277"/>
      <point x="214" y="286"/>
      <point x="197" y="286" type="qcurve" smooth="yes"/>
      <point x="180" y="286"/>
      <point x="149" y="277"/>
      <point x="141" y="266" type="qcurve" smooth="yes"/>
      <point x="136" y="259"/>
      <point x="134" y="206"/>
      <point x="134" y="181" type="qcurve" smooth="yes"/>
      <point x="134" y="143" type="line" smooth="yes"/>
      <point x="134" y="126"/>
      <point x="172" y="111"/>
      <point x="195" y="111" type="qcurve" smooth="yes"/>
      <point x="220" y="111"/>
      <point x="261" y="127"/>
      <point x="261" y="142" type="qcurve"/>
      <point x="261" y="142"/>
      <point x="261" y="142" type="qcurve"/>
      <point x="261" y="142"/>
      <point x="261" y="142" type="qcurve"/>
    </contour>
  </outline>
</glyph>
<glyph name="nine" format="2">
  <advance width="393"/>
  <unicode hex="0039"/>
  <outline>
    <contour>
      <point x="132" y="169" type="line"/>
      <point x="132" y="158"/>
      <point x="133" y="120"/>
      <point x="136" y="115" type="qcurve" smooth="yes"/>
      <point x="137" y="113"/>
      <point x="150" y="110"/>
      <point x="169" y="108"/>
      <point x="192" y="107"/>
      <point x="203" y="107" type="qcurve" smooth="yes"/>
      <point x="221" y="107"/>
      <point x="250" y="111"/>
      <point x="254" y="115" type="qcurve" smooth="yes"/>
      <point x="255" y="117"/>
      <point x="258" y="134"/>
      <point x="259" y="158"/>
      <point x="260" y="186"/>
      <point x="260" y="201" type="qcurve" smooth="yes"/>
      <point x="260" y="216"/>
      <point x="259" y="244"/>
      <point x="259" y="253" type="qcurve" smooth="yes"/>
      <point x="259" y="262" type="line"/>
      <point x="242" y="258"/>
      <point x="211" y="257"/>
      <point x="195" y="257" type="qcurve" smooth="yes"/>
      <point x="129" y="257"/>
      <point x="57" y="288"/>
      <point x="24" y="343"/>
      <point x="19" y="420"/>
      <point x="19" y="465" type="qcurve" smooth="yes"/>
      <point x="19" y="488" type="line" smooth="yes"/>
      <point x="19" y="532"/>
      <point x="37" y="594"/>
      <point x="78" y="634"/>
      <point x="145" y="653"/>
      <point x="195" y="653" type="qcurve" smooth="yes"/>
      <point x="255" y="653"/>
      <point x="325" y="626"/>
      <point x="361" y="578"/>
      <point x="371" y="512"/>
      <point x="371" y="473" type="qcurve" smooth="yes"/>
      <point x="371" y="405" type="line"/>
      <point x="370" y="228" type="line"/>
      <point x="370" y="201" type="line" smooth="yes"/>
      <point x="370" y="157"/>
      <point x="365" y="83"/>
      <point x="332" y="30"/>
      <point x="261" y="0"/>
      <point x="195" y="0" type="qcurve" smooth="yes"/>
      <point x="145" y="0"/>
      <point x="78" y="19"/>
      <point x="37" y="61"/>
      <point x="19" y="126"/>
      <point x="19" y="172" type="qcurve"/>
    </contour>
    <contour>
      <point x="137" y="538" type="line"/>
      <point x="129" y="531"/>
      <point x="128" y="486"/>
      <point x="128" y="465" type="qcurve" smooth="yes"/>
      <point x="128" y="455" type="line" smooth="yes"/>
      <point x="128" y="452"/>
      <point x="129" y="428"/>
      <point x="131" y="400"/>
      <point x="134" y="376"/>
      <point x="136" y="373" type="qcurve" smooth="yes"/>
      <point x="140" y="368"/>
      <point x="175" y="364"/>
      <point x="195" y="364" type="qcurve" smooth="yes"/>
      <point x="213" y="364"/>
      <point x="249" y="368"/>
      <point x="254" y="373" type="qcurve"/>
      <point x="256" y="377"/>
      <point x="259" y="399"/>
      <point x="260" y="424"/>
      <point x="260" y="436" type="qcurve" smooth="yes"/>
      <point x="260" y="442" type="line"/>
      <point x="260" y="442"/>
      <point x="260" y="443" type="qcurve"/>
      <point x="260" y="471" type="line" smooth="yes"/>
      <point x="260" y="483"/>
      <point x="258" y="510"/>
      <point x="255" y="534"/>
      <point x="252" y="538" type="qcurve" smooth="yes"/>
      <point x="248" y="544"/>
      <point x="217" y="549"/>
      <point x="199" y="549" type="qcurve" smooth="yes"/>
      <point x="179" y="549"/>
      <point x="143" y="543"/>
      <point x="138" y="538" type="qcurve"/>
    </contour>
  </outline>
</glyph>
<glyph name="colon" format="2">
  <advance width="137"/>
  <unicode hex="003A"/>
  <outline>
    <contour>
      <point x="68" y="644" type="qcurve" smooth="yes"/>
      <point x="98" y="644"/>
      <point x="124" y="618"/>
      <point x="124" y="590" type="qcurve" smooth="yes"/>
      <point x="124" y="536"/>
      <point x="68" y="536" type="qcurve" smooth="yes"/>
      <point x="38" y="536"/>
      <point x="12" y="562"/>
      <point x="12" y="590" type="qcurve" smooth="yes"/>
      <point x="12" y="617"/>
      <point x="37" y="644"/>
    </contour>
    <contour>
      <point x="69" y="107" type="qcurve" smooth="yes"/>
      <point x="100" y="107"/>
      <point x="126" y="82"/>
      <point x="126" y="53" type="qcurve" smooth="yes"/>
      <point x="126" y="0"/>
      <point x="69" y="0" type="qcurve" smooth="yes"/>
      <point x="40" y="0"/>
      <point x="14" y="26"/>
      <point x="14" y="53" type="qcurve" smooth="yes"/>
      <point x="14" y="81"/>
      <point x="39" y="107"/>
    </contour>
  </outline>
</glyph>
<glyph name="less" format="2">
  <advance width="314"/>
  <unicode hex="003C"/>
  <outline>
    <contour>
      <point x="287" y="503" type="line"/>
      <point x="286" y="407" type="line"/>
      <point x="103" y="311" type="line"/>
      <point x="283" y="215" type="line"/>
      <point x="284" y="117" type="line"/>
      <point x="24" y="265" type="line"/>
      <point x="24" y="357" type="line"/>
    </contour>
  </outline>
</glyph>
<glyph name="equal" format="2">
  <advance width="337"/>
  <unicode hex="003D"/>
  <outline>
    <contour>
      <point x="316" y="421" type="line"/>
      <point x="316" y="340" type="line"/>
      <point x="24" y="340" type="line"/>
      <point x="24" y="421" type="line"/>
    </contour>
    <contour>
      <point x="317" y="202" type="line"/>
      <point x="25" y="202" type="line"/>
      <point x="25" y="283" type="line"/>
      <point x="317" y="283" type="line"/>
    </contour>
  </outline>
</glyph>
<glyph name="greater" format="2">
  <advance width="314"/>
  <unicode hex="003E"/>
  <outline>
    <contour>
      <point x="289" y="358" type="line"/>
      <point x="289" y="263" type="line"/>
      <point x="28" y="112" type="line"/>
      <point x="29" y="212" type="line"/>
      <point x="210" y="310" type="line"/>
      <point x="26" y="409" type="line"/>
      <point x="25" y="507" type="line"/>
    </contour>
  </outline>
</glyph>
<glyph name="question" format="2">
  <advance width="380"/>
  <unicode hex="003F"/>
  <outline>
    <contour>
      <point x="105" y="160" type="line"/>
      <point x="105" y="216"/>
      <point x="125" y="286"/>
      <point x="155" y="328"/>
      <point x="191" y="349"/>
      <point x="207" y="357" type="qcurve" smooth="yes"/>
      <point x="224" y="365"/>
      <point x="248" y="381"/>
      <point x="250" y="398" type="qcurve" smooth="yes"/>
      <point x="251" y="406"/>
      <point x="252" y="443"/>
      <point x="252" y="461" type="qcurve" smooth="yes"/>
      <point x="252" y="486"/>
      <point x="249" y="530"/>
      <point x="246" y="537" type="qcurve"/>
      <point x="243" y="541"/>
      <point x="213" y="544"/>
      <point x="194" y="544" type="qcurve" smooth="yes"/>
      <point x="171" y="544"/>
      <point x="131" y="540"/>
      <point x="129" y="536" type="qcurve" smooth="yes"/>
      <point x="127" y="534"/>
      <point x="125" y="519"/>
      <point x="124" y="501"/>
      <point x="124" y="493" type="qcurve"/>
      <point x="124" y="492" type="line"/>
      <point x="124" y="492"/>
      <point x="124" y="492" type="qcurve"/>
      <point x="124" y="492"/>
      <point x="124" y="492" type="qcurve"/>
      <point x="124" y="492"/>
      <point x="124" y="492" type="qcurve"/>
      <point x="124" y="492"/>
      <point x="124" y="492" type="qcurve"/>
      <point x="124" y="492"/>
      <point x="124" y="492" type="qcurve"/>
      <point x="124" y="492"/>
      <point x="124" y="491" type="qcurve"/>
      <point x="124" y="491"/>
      <point x="124" y="491" type="qcurve"/>
      <point x="124" y="491"/>
      <point x="124" y="491" type="qcurve"/>
      <point x="124" y="491"/>
      <point x="124" y="491" type="qcurve"/>
      <point x="124" y="491"/>
      <point x="124" y="491" type="qcurve"/>
      <point x="124" y="491"/>
      <point x="124" y="491" type="qcurve"/>
      <point x="124" y="491"/>
      <point x="124" y="490" type="qcurve"/>
      <point x="124" y="490"/>
      <point x="124" y="490" type="qcurve"/>
      <point x="124" y="490"/>
      <point x="124" y="490" type="qcurve"/>
      <point x="124" y="490"/>
      <point x="124" y="490" type="qcurve"/>
      <point x="124" y="490"/>
      <point x="124" y="490" type="qcurve"/>
      <point x="124" y="490"/>
      <point x="124" y="490" type="qcurve"/>
      <point x="124" y="490"/>
      <point x="124" y="490" type="qcurve"/>
      <point x="124" y="489" type="line"/>
      <point x="124" y="489"/>
      <point x="124" y="489" type="qcurve"/>
      <point x="124" y="489"/>
      <point x="124" y="489" type="qcurve"/>
      <point x="124" y="489"/>
      <point x="124" y="488" type="qcurve"/>
      <point x="124" y="488"/>
      <point x="124" y="488" type="qcurve"/>
      <point x="124" y="488"/>
      <point x="124" y="488" type="qcurve"/>
      <point x="124" y="488"/>
      <point x="124" y="488" type="qcurve"/>
      <point x="124" y="488"/>
      <point x="124" y="488" type="qcurve"/>
      <point x="124" y="488"/>
      <point x="124" y="488" type="qcurve"/>
      <point x="124" y="488"/>
      <point x="124" y="488" type="qcurve"/>
      <point x="124" y="487" type="line"/>
      <point x="124" y="487"/>
      <point x="124" y="487" type="qcurve"/>
      <point x="124" y="487"/>
      <point x="124" y="487" type="qcurve"/>
      <point x="124" y="487"/>
      <point x="124" y="487" type="qcurve"/>
      <point x="124" y="487"/>
      <point x="124" y="487" type="qcurve"/>
      <point x="124" y="487"/>
      <point x="124" y="487" type="qcurve"/>
      <point x="124" y="487"/>
      <point x="124" y="486" type="qcurve"/>
      <point x="124" y="486"/>
      <point x="124" y="486" type="qcurve"/>
      <point x="124" y="486"/>
      <point x="124" y="486" type="qcurve"/>
      <point x="124" y="486"/>
      <point x="124" y="486" type="qcurve"/>
      <point x="124" y="486"/>
      <point x="124" y="486" type="qcurve"/>
      <point x="124" y="486"/>
      <point x="124" y="486" type="qcurve"/>
      <point x="124" y="486"/>
      <point x="124" y="486" type="qcurve"/>
      <point x="124" y="486"/>
      <point x="124" y="486" type="qcurve"/>
      <point x="124" y="486"/>
      <point x="124" y="486" type="qcurve"/>
      <point x="124" y="486"/>
      <point x="124" y="485" type="qcurve"/>
      <point x="124" y="485"/>
      <point x="124" y="485" type="qcurve"/>
      <point x="124" y="485"/>
      <point x="124" y="485" type="qcurve"/>
      <point x="124" y="485"/>
      <point x="124" y="485" type="qcurve"/>
      <point x="124" y="483" type="line"/>
      <point x="124" y="483"/>
      <point x="124" y="483" type="qcurve"/>
      <point x="124" y="483"/>
      <point x="124" y="483" type="qcurve"/>
      <point x="124" y="483"/>
      <point x="124" y="483" type="qcurve"/>
      <point x="124" y="483"/>
      <point x="124" y="483" type="qcurve"/>
      <point x="124" y="483"/>
      <point x="124" y="483" type="qcurve"/>
      <point x="124" y="483"/>
      <point x="124" y="482" type="qcurve"/>
      <point x="124" y="482"/>
      <point x="124" y="482" type="qcurve"/>
      <point x="124" y="482"/>
      <point x="124" y="482" type="qcurve"/>
      <point x="124" y="482"/>
      <point x="124" y="482" type="qcurve"/>
      <point x="124" y="482"/>
      <point x="124" y="482" type="qcurve"/>
      <point x="124" y="482"/>
      <point x="124" y="482" type="qcurve"/>
      <point x="124" y="482"/>
      <point x="124" y="482" type="qcurve"/>
      <point x="124" y="482"/>
      <point x="124" y="482" type="qcurve"/>
      <point x="124" y="482"/>
      <point x="124" y="482" type="qcurve"/>
      <point x="124" y="482"/>
      <point x="124" y="481" type="qcurve"/>
      <point x="124" y="481"/>
      <point x="124" y="481" type="qcurve"/>
      <point x="124" y="481"/>
      <point x="124" y="481" type="qcurve"/>
      <point x="124" y="481"/>
      <point x="124" y="481" type="qcurve"/>
      <point x="124" y="481"/>
      <point x="124" y="481" type="qcurve"/>
      <point x="124" y="481"/>
      <point x="124" y="481" type="qcurve"/>
      <point x="11" y="481" type="line"/>
      <point x="11" y="526"/>
      <point x="29" y="590"/>
      <point x="70" y="632"/>
      <point x="138" y="651"/>
      <point x="188" y="651" type="qcurve" smooth="yes"/>
      <point x="238" y="651"/>
      <point x="305" y="632"/>
      <point x="346" y="592"/>
      <point x="363" y="530"/>
      <point x="363" y="486" type="qcurve" smooth="yes"/>
      <point x="363" y="415"/>
      <point x="347" y="333"/>
      <point x="321" y="289"/>
      <point x="289" y="273"/>
      <point x="273" y="269" type="qcurve" smooth="yes"/>
      <point x="262" y="266"/>
      <point x="242" y="258"/>
      <point x="227" y="236"/>
      <point x="217" y="195"/>
      <point x="217" y="160" type="qcurve"/>
    </contour>
    <contour>
      <point x="161" y="106" type="qcurve" smooth="yes"/>
      <point x="217" y="106"/>
      <point x="217" y="53" type="qcurve" smooth="yes"/>
      <point x="217" y="24"/>
      <point x="191" y="0"/>
      <point x="161" y="0" type="qcurve" smooth="yes"/>
      <point x="131" y="0"/>
      <point x="105" y="24"/>
      <point x="105" y="53" type="qcurve" smooth="yes"/>
      <point x="105" y="106"/>
    </contour>
  </outline>
</glyph>
<glyph name="at" format="2">
  <advance width="659"/>
  <unicode hex="0040"/>
  <outline>
    <contour>
      <point x="651" y="169" type="line"/>
      <point x="643" y="157" type="line"/>
      <point x="612" y="92"/>
      <point x="543" y="55" type="qcurve" smooth="yes"/>
      <point x="467" y="14"/>
      <point x="357" y="14" type="qcurve" smooth="yes"/>
      <point x="303" y="14"/>
      <point x="212" y="31"/>
      <point x="174" y="49" type="qcurve"/>
      <point x="134" y="66"/>
      <point x="76" y="119"/>
      <point x="57" y="153" type="qcurve"/>
      <point x="39" y="188"/>
      <point x="19" y="263"/>
      <point x="19" y="303" type="qcurve" smooth="yes"/>
      <point x="19" y="392"/>
      <point x="64" y="467" type="qcurve"/>
      <point x="85" y="505"/>
      <point x="143" y="564"/>
      <point x="181" y="582" type="qcurve" smooth="yes"/>
      <point x="257" y="620"/>
      <point x="351" y="620" type="qcurve" smooth="yes"/>
      <point x="434" y="620"/>
      <point x="497" y="589" type="qcurve" smooth="yes"/>
      <point x="529" y="574"/>
      <point x="577" y="529"/>
      <point x="594" y="501" type="qcurve" smooth="yes"/>
      <point x="628" y="442"/>
      <point x="628" y="375" type="qcurve" smooth="yes"/>
      <point x="628" y="335"/>
      <point x="601" y="261"/>
      <point x="575" y="228" type="qcurve" smooth="yes"/>
      <point x="512" y="146"/>
      <point x="411" y="146" type="qcurve" smooth="yes"/>
      <point x="383" y="146"/>
      <point x="365" y="156" type="qcurve"/>
      <point x="361" y="161"/>
      <point x="353" y="169"/>
      <point x="349" y="174" type="qcurve"/>
      <point x="312" y="146"/>
      <point x="268" y="146" type="qcurve" smooth="yes"/>
      <point x="214" y="146"/>
      <point x="175" y="183" type="qcurve"/>
      <point x="138" y="220"/>
      <point x="138" y="282" type="qcurve" smooth="yes"/>
      <point x="138" y="320"/>
      <point x="161" y="388"/>
      <point x="181" y="420" type="qcurve"/>
      <point x="235" y="497"/>
      <point x="317" y="497" type="qcurve" smooth="yes"/>
      <point x="343" y="497"/>
      <point x="381" y="480"/>
      <point x="396" y="465" type="qcurve"/>
      <point x="401" y="487" type="line"/>
      <point x="502" y="487" type="line"/>
      <point x="453" y="258" type="line" smooth="yes"/>
      <point x="450" y="244"/>
      <point x="449" y="234"/>
      <point x="449" y="233" type="qcurve"/>
      <point x="449" y="227"/>
      <point x="450" y="227" type="qcurve"/>
      <point x="452" y="226" type="line"/>
      <point x="456" y="226"/>
      <point x="471" y="231"/>
      <point x="485" y="242" type="qcurve" smooth="yes"/>
      <point x="515" y="264"/>
      <point x="533" y="302" type="qcurve"/>
      <point x="554" y="338"/>
      <point x="554" y="379" type="qcurve" smooth="yes"/>
      <point x="554" y="449"/>
      <point x="501" y="499" type="qcurve"/>
      <point x="444" y="548"/>
      <point x="349" y="548" type="qcurve" smooth="yes"/>
      <point x="309" y="548"/>
      <point x="239" y="530"/>
      <point x="210" y="514" type="qcurve" smooth="yes"/>
      <point x="181" y="498"/>
      <point x="139" y="452"/>
      <point x="124" y="423" type="qcurve"/>
      <point x="95" y="362"/>
      <point x="95" y="299" type="qcurve" smooth="yes"/>
      <point x="95" y="236"/>
      <point x="127" y="184" type="qcurve"/>
      <point x="143" y="160"/>
      <point x="188" y="123"/>
      <point x="217" y="112" type="qcurve"/>
      <point x="278" y="87"/>
      <point x="352" y="87" type="qcurve" smooth="yes"/>
      <point x="389" y="87"/>
      <point x="452" y="98"/>
      <point x="478" y="108" type="qcurve" smooth="yes"/>
      <point x="531" y="127"/>
      <point x="560" y="166" type="qcurve"/>
      <point x="563" y="169" type="line"/>
    </contour>
    <contour>
      <point x="335" y="245" type="qcurve" smooth="yes"/>
      <point x="343" y="254"/>
      <point x="357" y="278"/>
      <point x="362" y="296" type="qcurve"/>
      <point x="373" y="328"/>
      <point x="373" y="360" type="qcurve" smooth="yes"/>
      <point x="373" y="375"/>
      <point x="367" y="399"/>
      <point x="360" y="407" type="qcurve" smooth="yes"/>
      <point x="346" y="423"/>
      <point x="324" y="423" type="qcurve" smooth="yes"/>
      <point x="313" y="423"/>
      <point x="291" y="414"/>
      <point x="280" y="404" type="qcurve" smooth="yes"/>
      <point x="259" y="386"/>
      <point x="249" y="352" type="qcurve" smooth="yes"/>
      <point x="237" y="313"/>
      <point x="237" y="287" type="qcurve" smooth="yes"/>
      <point x="237" y="249"/>
      <point x="252" y="234" type="qcurve" smooth="yes"/>
      <point x="266" y="220"/>
      <point x="285" y="220" type="qcurve" smooth="yes"/>
      <point x="293" y="220"/>
      <point x="306" y="222"/>
      <point x="313" y="227" type="qcurve"/>
      <point x="314" y="227" type="line"/>
      <point x="325" y="233"/>
    </contour>
  </outline>
</glyph>
<glyph name="E" format="2">
  <advance width="374"/>
  <unicode hex="0045"/>
  <outline>
    <contour>
      <point x="345" y="0" type="line"/>
      <point x="29" y="0" type="line"/>
      <point x="29" y="649" type="line"/>
      <point x="345" y="649" type="line"/>
      <point x="345" y="544" type="line"/>
      <point x="141" y="544" type="line"/>
      <point x="141" y="393" type="line"/>
      <point x="285" y="393" type="line"/>
      <point x="285" y="287" type="line"/>
      <point x="141" y="287" type="line"/>
      <point x="141" y="106" type="line"/>
      <point x="345" y="106" type="line"/>
    </contour>
  </outline>
</glyph>
<glyph name="F" format="2">
  <advance width="370"/>
  <unicode hex="0046"/>
  <outline>
    <contour>
      <point x="346" y="544" type="line"/>
      <point x="142" y="544" type="line"/>
      <point x="142" y="393" type="line"/>
      <point x="286" y="393" type="line"/>
      <point x="286" y="287" type="line"/>
      <point x="142" y="287" type="line"/>
      <point x="142" y="0" type="line"/>
      <point x="30" y="0" type="line"/>
      <point x="30" y="649" type="line"/>
      <point x="346" y="649" type="line"/>
    </contour>
  </outline>
</glyph>
<glyph name="G" format="2">
  <advance width="402"/>
  <unicode hex="0047"/>
  <outline>
    <contour>
      <point x="259" y="480" type="line"/>
      <point x="257" y="507" type="line"/>
      <point x="255" y="521"/>
      <point x="252" y="537"/>
      <point x="241" y="544"/>
      <point x="230" y="544" type="qcurve" smooth="yes"/>
      <point x="225" y="544" type="line"/>
      <point x="224" y="544"/>
      <point x="224" y="544" type="qcurve"/>
      <point x="224" y="544"/>
      <point x="224" y="544" type="qcurve"/>
      <point x="224" y="544"/>
      <point x="224" y="544" type="qcurve"/>
      <point x="224" y="544"/>
      <point x="224" y="544" type="qcurve"/>
      <point x="222" y="544" type="line"/>
      <point x="222" y="544"/>
      <point x="221" y="544" type="qcurve"/>
      <point x="221" y="544"/>
      <point x="221" y="544" type="qcurve"/>
      <point x="221" y="544"/>
      <point x="221" y="544" type="qcurve"/>
      <point x="221" y="544"/>
      <point x="221" y="544" type="qcurve"/>
      <point x="220" y="544" type="line"/>
      <point x="220" y="544"/>
      <point x="219" y="544" type="qcurve"/>
      <point x="219" y="544"/>
      <point x="219" y="544" type="qcurve"/>
      <point x="219" y="544"/>
      <point x="219" y="544" type="qcurve"/>
      <point x="219" y="544"/>
      <point x="219" y="544" type="qcurve"/>
      <point x="218" y="544" type="line"/>
      <point x="218" y="544"/>
      <point x="217" y="544" type="qcurve"/>
      <point x="217" y="544"/>
      <point x="217" y="544" type="qcurve"/>
      <point x="217" y="544"/>
      <point x="217" y="544" type="qcurve"/>
      <point x="217" y="544"/>
      <point x="217" y="544" type="qcurve"/>
      <point x="199" y="544" type="line" smooth="yes"/>
      <point x="182" y="544"/>
      <point x="158" y="541"/>
      <point x="142" y="530"/>
      <point x="135" y="507"/>
      <point x="135" y="485" type="qcurve" smooth="yes"/>
      <point x="135" y="165" type="line" smooth="yes"/>
      <point x="135" y="144"/>
      <point x="143" y="121"/>
      <point x="161" y="110"/>
      <point x="189" y="107"/>
      <point x="208" y="106" type="qcurve"/>
      <point x="208" y="106"/>
      <point x="209" y="106" type="qcurve"/>
      <point x="209" y="106"/>
      <point x="210" y="106" type="qcurve"/>
      <point x="210" y="106"/>
      <point x="211" y="106" type="qcurve"/>
      <point x="211" y="106"/>
      <point x="211" y="106" type="qcurve"/>
      <point x="213" y="106" type="line"/>
      <point x="228" y="106"/>
      <point x="248" y="117"/>
      <point x="259" y="141"/>
      <point x="262" y="177"/>
      <point x="262" y="200" type="qcurve" smooth="yes"/>
      <point x="262" y="256" type="line"/>
      <point x="170" y="256" type="line"/>
      <point x="170" y="362" type="line"/>
      <point x="374" y="362" type="line"/>
      <point x="374" y="245" type="line" smooth="yes"/>
      <point x="374" y="187"/>
      <point x="365" y="96"/>
      <point x="331" y="33"/>
      <point x="260" y="0"/>
      <point x="199" y="0" type="qcurve" smooth="yes"/>
      <point x="149" y="0"/>
      <point x="82" y="18"/>
      <point x="42" y="58"/>
      <point x="24" y="121"/>
      <point x="24" y="165" type="qcurve" smooth="yes"/>
      <point x="24" y="485" type="line" smooth="yes"/>
      <point x="24" y="529"/>
      <point x="42" y="591"/>
      <point x="82" y="631"/>
      <point x="149" y="649"/>
      <point x="199" y="649" type="qcurve" smooth="yes"/>
      <point x="248" y="649"/>
      <point x="315" y="630"/>
      <point x="356" y="589"/>
      <point x="374" y="525"/>
      <point x="374" y="480" type="qcurve"/>
    </contour>
  </outline>
</glyph>
<glyph name="H" format="2">
  <advance width="413"/>
  <unicode hex="0048"/>
  <outline>
    <contour>
      <point x="377" y="0" type="line"/>
      <point x="267" y="0" type="line"/>
      <point x="267" y="287" type="line"/>
      <point x="140" y="287" type="line"/>
      <point x="140" y="0" type="line"/>
      <point x="28" y="0" type="line"/>
      <point x="28" y="649" type="line"/>
      <point x="140" y="649" type="line"/>
      <point x="140" y="394" type="line"/>
      <point x="267" y="394" type="line"/>
      <point x="267" y="649" type="line"/>
      <point x="377" y="649" type="line"/>
    </contour>
  </outline>
</glyph>
<glyph name="I" format="2">
  <advance width="169"/>
  <unicode hex="0049"/>
  <outline>
    <contour>
      <point x="28" y="647" type="line"/>
      <point x="141" y="647" type="line"/>
      <point x="141" y="0" type="line"/>
      <point x="28" y="0" type="line"/>
    </contour>
  </outline>
</glyph>
<glyph name="L" format="2">
  <advance width="317"/>
  <unicode hex="004C"/>
  <outline>
    <contour>
      <point x="307" y="0" type="line"/>
      <point x="32" y="0" type="line"/>
      <point x="32" y="649" type="line"/>
      <point x="145" y="649" type="line"/>
      <point x="145" y="106" type="line"/>
      <point x="307" y="106" type="line"/>
    </contour>
  </outline>
</glyph>
<glyph name="U" format="2">
  <advance width="401"/>
  <unicode hex="0055"/>
  <outline>
    <contour>
      <point x="137" y="648" type="line"/>
      <point x="140" y="165" type="line"/>
      <point x="140" y="160" type="line" smooth="yes"/>
      <point x="140" y="152"/>
      <point x="141" y="132"/>
      <point x="144" y="125" type="qcurve"/>
      <point x="143" y="125" type="line"/>
      <point x="148" y="117"/>
      <point x="182" y="107"/>
      <point x="202" y="107" type="qcurve" smooth="yes"/>
      <point x="223" y="107"/>
      <point x="260" y="120"/>
      <point x="262" y="131" type="qcurve"/>
      <point x="264" y="625"/>
      <point x="264" y="648" type="qcurve"/>
      <point x="375" y="648" type="line"/>
      <point x="375" y="197" type="line" smooth="yes"/>
      <point x="375" y="150"/>
      <point x="366" y="76"/>
      <point x="332" y="26"/>
      <point x="261" y="0"/>
      <point x="200" y="0" type="qcurve" smooth="yes"/>
      <point x="150" y="0"/>
      <point x="83" y="18"/>
      <point x="43" y="58"/>
      <point x="25" y="121"/>
      <point x="25" y="165" type="qcurve" smooth="yes"/>
      <point x="25" y="648" type="line"/>
    </contour>
  </outline>
</glyph>
<glyph name="X" format="2">
  <advance width="400"/>
  <unicode hex="0058"/>
  <outline>
    <contour>
      <point x="262" y="0" type="line"/>
      <point x="262" y="12"/>
      <point x="263" y="38"/>
      <point x="263" y="49" type="qcurve" smooth="yes"/>
      <point x="263" y="59"/>
      <point x="264" y="77"/>
      <point x="264" y="85" type="qcurve" smooth="yes"/>
      <point x="264" y="109"/>
      <point x="260" y="151"/>
      <point x="246" y="192"/>
      <point x="220" y="231"/>
      <point x="198" y="251" type="qcurve"/>
      <point x="177" y="232"/>
      <point x="151" y="194"/>
      <point x="137" y="154"/>
      <point x="133" y="111"/>
      <point x="133" y="88" type="qcurve" smooth="yes"/>
      <point x="133" y="78"/>
      <point x="134" y="60"/>
      <point x="134" y="50" type="qcurve" smooth="yes"/>
      <point x="134" y="39"/>
      <point x="135" y="12"/>
      <point x="135" y="0" type="qcurve"/>
      <point x="24" y="0" type="line"/>
      <point x="24" y="75" type="line" smooth="yes"/>
      <point x="24" y="111"/>
      <point x="29" y="175"/>
      <point x="47" y="235"/>
      <point x="84" y="294"/>
      <point x="117" y="325" type="qcurve"/>
      <point x="84" y="355"/>
      <point x="47" y="414"/>
      <point x="29" y="475"/>
      <point x="24" y="539"/>
      <point x="24" y="575" type="qcurve" smooth="yes"/>
      <point x="24" y="649" type="line"/>
      <point x="135" y="649" type="line"/>
      <point x="135" y="638"/>
      <point x="134" y="611"/>
      <point x="134" y="600" type="qcurve" smooth="yes"/>
      <point x="134" y="590"/>
      <point x="133" y="572"/>
      <point x="133" y="562" type="qcurve" smooth="yes"/>
      <point x="133" y="539"/>
      <point x="137" y="495"/>
      <point x="151" y="455"/>
      <point x="177" y="416"/>
      <point x="198" y="398" type="qcurve"/>
      <point x="220" y="417"/>
      <point x="246" y="456"/>
      <point x="260" y="498"/>
      <point x="264" y="542"/>
      <point x="264" y="566" type="qcurve" smooth="yes"/>
      <point x="264" y="574"/>
      <point x="263" y="592"/>
      <point x="263" y="602" type="qcurve" smooth="yes"/>
      <point x="263" y="613"/>
      <point x="262" y="638"/>
      <point x="262" y="649" type="qcurve"/>
      <point x="374" y="649" type="line"/>
      <point x="374" y="575" type="line" smooth="yes"/>
      <point x="374" y="539"/>
      <point x="369" y="475"/>
      <point x="350" y="414"/>
      <point x="313" y="355"/>
      <point x="280" y="325" type="qcurve"/>
      <point x="313" y="294"/>
      <point x="350" y="235"/>
      <point x="369" y="175"/>
      <point x="374" y="111"/>
      <point x="374" y="75" type="qcurve" smooth="yes"/>
      <point x="374" y="0" type="line"/>
    </contour>
  </outline>
</glyph>
<glyph name="Z" format="2">
  <advance width="366"/>
  <unicode hex="005A"/>
  <outline>
    <contour>
      <point x="338" y="0" type="line"/>
      <point x="22" y="0" type="line"/>
      <point x="22" y="107" type="line"/>
      <point x="216" y="544" type="line"/>
      <point x="22" y="544" type="line"/>
      <point x="22" y="649" type="line"/>
      <point x="338" y="649" type="line"/>
      <point x="337" y="542" type="line"/>
      <point x="145" y="106" type="line"/>
      <point x="338" y="106" type="line"/>
    </contour>
  </outline>
</glyph>
<glyph name="backslash" format="2">
  <advance width="290"/>
  <unicode hex="005C"/>
  <outline>
    <contour>
      <point x="19" y="642" type="line"/>
      <point x="93" y="643" type="line"/>
      <point x="284" y="0" type="line"/>
      <point x="206" y="0" type="line"/>
    </contour>
  </outline>
</glyph>
<glyph name="grave" format="2">
  <advance width="187"/>
  <unicode hex="0060"/>
  <outline>
    <contour>
      <point x="78" y="549" type="qcurve"/>
      <point x="78" y="550"/>
      <point x="58" y="576"/>
      <point x="47" y="591" type="qcurve" smooth="yes"/>
      <point x="33" y="609"/>
      <point x="16" y="631" type="qcurve"/>
      <point x="113" y="631" type="line"/>
      <point x="173" y="550" type="line"/>
      <point x="146" y="549"/>
      <point x="125" y="549" type="qcurve"/>
      <point x="107" y="548"/>
      <point x="78" y="548"/>
    </contour>
  </outline>
</glyph>
<glyph name="b" format="2">
  <advance width="409"/>
  <unicode hex="0062"/>
  <outline>
    <contour>
      <point x="378" y="484" type="qcurve"/>
      <point x="378" y="467"/>
      <point x="375" y="429"/>
      <point x="366" y="390"/>
      <point x="349" y="354"/>
      <point x="336" y="341" type="qcurve"/>
      <point x="352" y="326"/>
      <point x="369" y="291"/>
      <point x="377" y="255"/>
      <point x="379" y="216"/>
      <point x="379" y="197" type="qcurve" smooth="yes"/>
      <point x="379" y="129"/>
      <point x="351" y="50"/>
      <point x="293" y="10"/>
      <point x="207" y="-1"/>
      <point x="150" y="-1" type="qcurve" smooth="yes"/>
      <point x="101" y="-1" type="line" smooth="yes"/>
      <point x="84" y="-1"/>
      <point x="46" y="0"/>
      <point x="28" y="0" type="qcurve"/>
      <point x="28" y="649" type="line"/>
      <point x="42" y="649"/>
      <point x="74" y="650"/>
      <point x="87" y="650" type="qcurve" smooth="yes"/>
      <point x="135" y="650" type="line" smooth="yes"/>
      <point x="182" y="650"/>
      <point x="267" y="637"/>
      <point x="332" y="600"/>
      <point x="374" y="535"/>
    </contour>
    <contour>
      <point x="245" y="530" type="line"/>
      <point x="229" y="541"/>
      <point x="173" y="543"/>
      <point x="149" y="543" type="qcurve" smooth="yes"/>
      <point x="140" y="543" type="line"/>
      <point x="140" y="393" type="line"/>
      <point x="146" y="393"/>
      <point x="156" y="392"/>
      <point x="161" y="392" type="qcurve"/>
      <point x="163" y="392" type="line"/>
      <point x="163" y="392"/>
      <point x="163" y="392" type="qcurve"/>
      <point x="163" y="392"/>
      <point x="163" y="392" type="qcurve"/>
      <point x="163" y="392"/>
      <point x="163" y="392" type="qcurve"/>
      <point x="166" y="392" type="line"/>
      <point x="166" y="392"/>
      <point x="166" y="392" type="qcurve"/>
      <point x="166" y="392"/>
      <point x="166" y="392" type="qcurve"/>
      <point x="166" y="392"/>
      <point x="166" y="392" type="qcurve"/>
      <point x="178" y="392" type="line" smooth="yes"/>
      <point x="187" y="392"/>
      <point x="213" y="393"/>
      <point x="233" y="399" type="qcurve" smooth="yes"/>
      <point x="252" y="404"/>
      <point x="269" y="446"/>
      <point x="269" y="470" type="qcurve" smooth="yes"/>
      <point x="269" y="491"/>
      <point x="257" y="525"/>
      <point x="246" y="529" type="qcurve"/>
    </contour>
    <contour>
      <point x="142" y="106" type="line"/>
      <point x="146" y="106"/>
      <point x="158" y="105"/>
      <point x="166" y="105" type="qcurve" smooth="yes"/>
      <point x="176" y="105"/>
      <point x="201" y="106"/>
      <point x="224" y="111"/>
      <point x="243" y="119"/>
      <point x="249" y="125" type="qcurve" smooth="yes"/>
      <point x="259" y="136"/>
      <point x="266" y="176"/>
      <point x="266" y="199" type="qcurve" smooth="yes"/>
      <point x="266" y="215"/>
      <point x="263" y="247"/>
      <point x="261" y="261" type="qcurve" smooth="yes"/>
      <point x="260" y="270"/>
      <point x="245" y="280"/>
      <point x="222" y="286"/>
      <point x="195" y="288"/>
      <point x="181" y="288" type="qcurve" smooth="yes"/>
      <point x="173" y="288"/>
      <point x="159" y="287"/>
      <point x="152" y="287" type="qcurve" smooth="yes"/>
      <point x="140" y="287" type="line"/>
    </contour>
  </outline>
</glyph>
<glyph name="k" format="2">
  <advance width="403"/>
  <unicode hex="006B"/>
  <outline>
    <contour>
      <point x="382" y="649" type="line"/>
      <point x="375" y="605"/>
      <point x="353" y="515"/>
      <point x="316" y="431"/>
      <point x="263" y="355"/>
      <point x="226" y="325" type="qcurve"/>
      <point x="263" y="294"/>
      <point x="316" y="219"/>
      <point x="352" y="135"/>
      <point x="375" y="45"/>
      <point x="382" y="0" type="qcurve"/>
      <point x="271" y="0" type="line"/>
      <point x="265" y="33"/>
      <point x="245" y="105"/>
      <point x="215" y="172"/>
      <point x="173" y="231"/>
      <point x="143" y="252" type="qcurve"/>
      <point x="143" y="0" type="line"/>
      <point x="31" y="0" type="line"/>
      <point x="31" y="649" type="line"/>
      <point x="143" y="649" type="line"/>
      <point x="143" y="398" type="line"/>
      <point x="173" y="419"/>
      <point x="216" y="477"/>
      <point x="246" y="545"/>
      <point x="265" y="616"/>
      <point x="271" y="649" type="qcurve"/>
    </contour>
  </outline>
</glyph>
<glyph name="m" format="2">
  <advance width="549"/>
  <unicode hex="006D"/>
  <outline>
    <contour>
      <point x="519" y="0" type="line"/>
      <point x="407" y="0" type="line"/>
      <point x="407" y="363" type="line"/>
      <point x="314" y="147" type="line"/>
      <point x="235" y="147" type="line"/>
      <point x="143" y="363" type="line"/>
      <point x="143" y="0" type="line"/>
      <point x="31" y="0" type="line"/>
      <point x="31" y="653" type="line"/>
      <point x="142" y="653" type="line"/>
      <point x="274" y="340" type="line"/>
      <point x="408" y="653" type="line"/>
      <point x="519" y="653" type="line"/>
    </contour>
  </outline>
</glyph>
<glyph name="p" format="2">
  <advance width="405"/>
  <unicode hex="0070"/>
  <outline>
    <contour>
      <point x="140" y="0" type="line"/>
      <point x="27" y="0" type="line"/>
      <point x="27" y="648" type="line"/>
      <point x="203" y="648" type="line" smooth="yes"/>
      <point x="263" y="648"/>
      <point x="334" y="621"/>
      <point x="371" y="573"/>
      <point x="382" y="508"/>
      <point x="382" y="470" type="qcurve" smooth="yes"/>
      <point x="382" y="459"/>
      <point x="381" y="437"/>
      <point x="381" y="426" type="qcurve" smooth="yes"/>
      <point x="381" y="417"/>
      <point x="380" y="398"/>
      <point x="380" y="388" type="qcurve" smooth="yes"/>
      <point x="380" y="327"/>
      <point x="346" y="260"/>
      <point x="285" y="229"/>
      <point x="196" y="224"/>
      <point x="140" y="224" type="qcurve"/>
    </contour>
    <contour>
      <point x="140" y="329" type="line"/>
      <point x="190" y="329"/>
      <point x="243" y="331"/>
      <point x="267" y="347"/>
      <point x="270" y="382"/>
      <point x="269" y="414" type="qcurve"/>
      <point x="269" y="475" type="line"/>
      <point x="270" y="502"/>
      <point x="253" y="530"/>
      <point x="224" y="542"/>
      <point x="187" y="543"/>
      <point x="168" y="543" type="qcurve" smooth="yes"/>
      <point x="140" y="543" type="line"/>
    </contour>
  </outline>
</glyph>
<glyph name="q" format="2">
  <advance width="410"/>
  <unicode hex="0071"/>
  <outline>
    <contour>
      <point x="378" y="181" type="line" smooth="yes"/>
      <point x="378" y="146"/>
      <point x="371" y="74"/>
      <point x="346" y="45" type="qcurve"/>
      <point x="351" y="40"/>
      <point x="362" y="24"/>
      <point x="367" y="17" type="qcurve" smooth="yes"/>
      <point x="382" y="-4" type="line"/>
      <point x="362" y="-18"/>
      <point x="311" y="-51"/>
      <point x="289" y="-65" type="qcurve"/>
      <point x="240" y="2" type="line"/>
      <point x="229" y="1"/>
      <point x="205" y="0"/>
      <point x="195" y="0" type="qcurve" smooth="yes"/>
      <point x="111" y="0"/>
      <point x="28" y="72"/>
      <point x="28" y="165" type="qcurve" smooth="yes"/>
      <point x="28" y="484" type="line" smooth="yes"/>
      <point x="28" y="528"/>
      <point x="46" y="590"/>
      <point x="86" y="630"/>
      <point x="153" y="649"/>
      <point x="203" y="649" type="qcurve" smooth="yes"/>
      <point x="252" y="649"/>
      <point x="320" y="630"/>
      <point x="360" y="590"/>
      <point x="378" y="528"/>
      <point x="378" y="484" type="qcurve" smooth="yes"/>
    </contour>
    <contour>
      <point x="213" y="107" type="qcurve"/>
      <point x="233" y="108"/>
      <point x="254" y="120"/>
      <point x="264" y="140"/>
      <point x="266" y="169"/>
      <point x="266" y="188" type="qcurve" smooth="yes"/>
      <point x="266" y="505" type="line" smooth="yes"/>
      <point x="266" y="525"/>
      <point x="224" y="546"/>
      <point x="200" y="546" type="qcurve" smooth="yes"/>
      <point x="177" y="546"/>
      <point x="140" y="526"/>
      <point x="140" y="505" type="qcurve" smooth="yes"/>
      <point x="140" y="163" type="line" smooth="yes"/>
      <point x="140" y="153"/>
      <point x="142" y="133"/>
      <point x="155" y="116"/>
      <point x="185" y="107"/>
    </contour>
  </outline>
</glyph>
<glyph name="s" format="2">
  <advance width="402"/>
  <unicode hex="0073"/>
  <outline>
    <contour>
      <point x="136" y="202" type="line"/>
      <point x="136" y="193"/>
      <point x="135" y="173"/>
      <point x="135" y="165" type="qcurve"/>
      <point x="135" y="163" type="line"/>
      <point x="135" y="163"/>
      <point x="135" y="163" type="qcurve"/>
      <point x="135" y="163"/>
      <point x="135" y="163" type="qcurve"/>
      <point x="135" y="163"/>
      <point x="135" y="163" type="qcurve"/>
      <point x="135" y="163"/>
      <point x="135" y="163" type="qcurve"/>
      <point x="135" y="163"/>
      <point x="135" y="163" type="qcurve"/>
      <point x="135" y="149" type="line" smooth="yes"/>
      <point x="135" y="141"/>
      <point x="136" y="123"/>
      <point x="150" y="109"/>
      <point x="176" y="106"/>
      <point x="192" y="106" type="qcurve"/>
      <point x="192" y="106"/>
      <point x="192" y="106" type="qcurve"/>
      <point x="192" y="106"/>
      <point x="192" y="106" type="qcurve"/>
      <point x="192" y="106"/>
      <point x="192" y="106" type="qcurve"/>
      <point x="192" y="106"/>
      <point x="192" y="106" type="qcurve"/>
      <point x="192" y="106"/>
      <point x="192" y="106" type="qcurve"/>
      <point x="192" y="106"/>
      <point x="192" y="106" type="qcurve"/>
      <point x="192" y="106"/>
      <point x="192" y="106" type="qcurve"/>
      <point x="195" y="106" type="line"/>
      <point x="195" y="106"/>
      <point x="195" y="106" type="qcurve"/>
      <point x="195" y="106"/>
      <point x="195" y="106" type="qcurve"/>
      <point x="195" y="106"/>
      <point x="195" y="106" type="qcurve"/>
      <point x="195" y="106"/>
      <point x="195" y="106" type="qcurve"/>
      <point x="200" y="106" type="line"/>
      <point x="200" y="106"/>
      <point x="200" y="106" type="qcurve"/>
      <point x="200" y="106"/>
      <point x="200" y="106" type="qcurve"/>
      <point x="200" y="106"/>
      <point x="200" y="106" type="qcurve"/>
      <point x="200" y="106"/>
      <point x="200" y="106" type="qcurve"/>
      <point x="200" y="106"/>
      <point x="200" y="106" type="qcurve"/>
      <point x="200" y="106"/>
      <point x="200" y="106" type="qcurve"/>
      <point x="209" y="106" type="line"/>
      <point x="229" y="107"/>
      <point x="251" y="110"/>
      <point x="261" y="120"/>
      <point x="263" y="139"/>
      <point x="263" y="154" type="qcurve" smooth="yes"/>
      <point x="263" y="165" type="line" smooth="yes"/>
      <point x="263" y="172"/>
      <point x="264" y="184"/>
      <point x="264" y="192" type="qcurve"/>
      <point x="265" y="205"/>
      <point x="265" y="218" type="qcurve" smooth="yes"/>
      <point x="265" y="225"/>
      <point x="264" y="253"/>
      <point x="260" y="273" type="qcurve"/>
      <point x="258" y="278"/>
      <point x="246" y="283"/>
      <point x="229" y="286"/>
      <point x="211" y="287"/>
      <point x="204" y="287" type="qcurve" smooth="yes"/>
      <point x="200" y="287" type="line" smooth="yes"/>
      <point x="138" y="287"/>
      <point x="68" y="313"/>
      <point x="34" y="363"/>
      <point x="25" y="437"/>
      <point x="25" y="484" type="qcurve" smooth="yes"/>
      <point x="25" y="528"/>
      <point x="43" y="590"/>
      <point x="83" y="630"/>
      <point x="150" y="648"/>
      <point x="200" y="648" type="qcurve" smooth="yes"/>
      <point x="249" y="648"/>
      <point x="316" y="629"/>
      <point x="357" y="588"/>
      <point x="375" y="524"/>
      <point x="375" y="479" type="qcurve"/>
      <point x="263" y="479" type="line"/>
      <point x="263" y="501"/>
      <point x="261" y="527"/>
      <point x="250" y="540"/>
      <point x="224" y="543"/>
      <point x="200" y="543" type="qcurve" smooth="yes"/>
      <point x="176" y="543"/>
      <point x="151" y="540"/>
      <point x="139" y="529"/>
      <point x="136" y="505"/>
      <point x="136" y="484" type="qcurve" smooth="yes"/>
      <point x="136" y="468" type="line"/>
      <point x="135" y="457"/>
      <point x="135" y="445" type="qcurve" smooth="yes"/>
      <point x="135" y="440"/>
      <point x="136" y="417"/>
      <point x="141" y="403" type="qcurve" smooth="yes"/>
      <point x="142" y="400"/>
      <point x="158" y="396"/>
      <point x="178" y="394"/>
      <point x="196" y="393"/>
      <point x="200" y="393" type="qcurve" smooth="yes"/>
      <point x="266" y="393"/>
      <point x="337" y="362"/>
      <point x="370" y="308"/>
      <point x="375" y="232"/>
      <point x="375" y="187" type="qcurve" smooth="yes"/>
      <point x="375" y="165" type="line" smooth="yes"/>
      <point x="375" y="121"/>
      <point x="357" y="58"/>
      <point x="317" y="18"/>
      <point x="249" y="0"/>
      <point x="200" y="0" type="qcurve" smooth="yes"/>
      <point x="138" y="0"/>
      <point x="68" y="27"/>
      <point x="34" y="78"/>
      <point x="25" y="154"/>
      <point x="25" y="202" type="qcurve"/>
    </contour>
  </outline>
</glyph>
<glyph name="v" format="2">
  <advance width="383"/>
  <unicode hex="0076"/>
  <outline>
    <contour>
      <point x="363" y="504" type="line" smooth="yes"/>
      <point x="363" y="437"/>
      <point x="355" y="308"/>
      <point x="326" y="183"/>
      <point x="271" y="60"/>
      <point x="223" y="0" type="qcurve"/>
      <point x="152" y="0" type="line"/>
      <point x="104" y="60"/>
      <point x="49" y="183"/>
      <point x="21" y="308"/>
      <point x="13" y="437"/>
      <point x="13" y="504" type="qcurve" smooth="yes"/>
      <point x="13" y="648" type="line"/>
      <point x="124" y="648" type="line"/>
      <point x="124" y="631"/>
      <point x="123" y="590"/>
      <point x="123" y="573" type="qcurve" smooth="yes"/>
      <point x="123" y="555"/>
      <point x="122" y="519"/>
      <point x="122" y="501" type="qcurve" smooth="yes"/>
      <point x="122" y="454"/>
      <point x="126" y="362"/>
      <point x="140" y="272"/>
      <point x="166" y="186"/>
      <point x="188" y="145" type="qcurve"/>
      <point x="230" y="232"/>
      <point x="253" y="410"/>
      <point x="253" y="503" type="qcurve" smooth="yes"/>
      <point x="253" y="520"/>
      <point x="252" y="555"/>
      <point x="252" y="572" type="qcurve" smooth="yes"/>
      <point x="252" y="589"/>
      <point x="251" y="630"/>
      <point x="251" y="648" type="qcurve"/>
      <point x="363" y="648" type="line"/>
    </contour>
  </outline>
</glyph>
<glyph name="bar" format="2">
  <advance width="149"/>
  <unicode hex="007C"/>
  <outline>
    <contour>
      <point x="28" y="755" type="line"/>
      <point x="117" y="755" type="line"/>
      <point x="117" y="-105" type="line"/>
      <point x="28" y="-105" type="line"/>
    </contour>
  </outline>
</glyph>
<glyph name="asciitilde" format="2">
  <advance width="457"/>
  <unicode hex="007E"/>
  <outline>
    <contour>
      <point x="445" y="320" type="line"/>
      <point x="439" y="313" type="line"/>
      <point x="415" y="287"/>
      <point x="368" y="257"/>
      <point x="341" y="251" type="qcurve"/>
      <point x="333" y="250"/>
      <point x="327" y="250" type="qcurve"/>
      <point x="327" y="250"/>
      <point x="327" y="250" type="qcurve"/>
      <point x="327" y="250"/>
      <point x="327" y="250" type="qcurve"/>
      <point x="327" y="250"/>
      <point x="327" y="250" type="qcurve"/>
      <point x="327" y="250"/>
      <point x="327" y="250" type="qcurve"/>
      <point x="327" y="250"/>
      <point x="327" y="250" type="qcurve"/>
      <point x="327" y="250"/>
      <point x="327" y="250" type="qcurve"/>
      <point x="327" y="250"/>
      <point x="326" y="250" type="qcurve"/>
      <point x="326" y="250"/>
      <point x="326" y="250" type="qcurve"/>
      <point x="326" y="250"/>
      <point x="326" y="250" type="qcurve"/>
      <point x="326" y="250"/>
      <point x="326" y="250" type="qcurve"/>
      <point x="325" y="250" type="line"/>
      <point x="325" y="250"/>
      <point x="325" y="250" type="qcurve"/>
      <point x="325" y="250"/>
      <point x="325" y="250" type="qcurve"/>
      <point x="325" y="250"/>
      <point x="325" y="250" type="qcurve"/>
      <point x="325" y="250"/>
      <point x="325" y="250" type="qcurve"/>
      <point x="325" y="250"/>
      <point x="325" y="250" type="qcurve"/>
      <point x="325" y="250"/>
      <point x="325" y="250" type="qcurve"/>
      <point x="325" y="250"/>
      <point x="324" y="250" type="qcurve"/>
      <point x="324" y="250"/>
      <point x="324" y="250" type="qcurve"/>
      <point x="324" y="250"/>
      <point x="324" y="250" type="qcurve"/>
      <point x="324" y="250"/>
      <point x="324" y="250" type="qcurve"/>
      <point x="324" y="250"/>
      <point x="324" y="250" type="qcurve"/>
      <point x="324" y="250"/>
      <point x="324" y="250" type="qcurve"/>
      <point x="323" y="250" type="line"/>
      <point x="323" y="250"/>
      <point x="323" y="250" type="qcurve"/>
      <point x="323" y="250"/>
      <point x="323" y="250" type="qcurve"/>
      <point x="323" y="250"/>
      <point x="323" y="250" type="qcurve"/>
      <point x="323" y="250"/>
      <point x="323" y="250" type="qcurve"/>
      <point x="323" y="250"/>
      <point x="323" y="250" type="qcurve"/>
      <point x="323" y="250"/>
      <point x="323" y="250" type="qcurve"/>
      <point x="323" y="250"/>
      <point x="323" y="250" type="qcurve"/>
      <point x="323" y="250"/>
      <point x="322" y="250" type="qcurve"/>
      <point x="322" y="250"/>
      <point x="322" y="250" type="qcurve"/>
      <point x="322" y="250"/>
      <point x="322" y="250" type="qcurve"/>
      <point x="322" y="250"/>
      <point x="322" y="250" type="qcurve"/>
      <point x="322" y="250"/>
      <point x="322" y="250" type="qcurve"/>
      <point x="322" y="250"/>
      <point x="322" y="250" type="qcurve"/>
      <point x="322" y="250"/>
      <point x="322" y="250" type="qcurve"/>
      <point x="322" y="250"/>
      <point x="322" y="250" type="qcurve"/>
      <point x="322" y="250"/>
      <point x="322" y="250" type="qcurve"/>
      <point x="322" y="250"/>
      <point x="322" y="250" type="qcurve"/>
      <point x="322" y="250"/>
      <point x="321" y="250" type="qcurve"/>
      <point x="321" y="250"/>
      <point x="321" y="250" type="qcurve"/>
      <point x="321" y="250"/>
      <point x="321" y="250" type="qcurve"/>
      <point x="321" y="250"/>
      <point x="321" y="250" type="qcurve"/>
      <point x="321" y="250"/>
      <point x="321" y="250" type="qcurve"/>
      <point x="321" y="250"/>
      <point x="321" y="250" type="qcurve"/>
      <point x="321" y="250"/>
      <point x="321" y="250" type="qcurve"/>
      <point x="318" y="250" type="line"/>
      <point x="318" y="250"/>
      <point x="318" y="250" type="qcurve"/>
      <point x="318" y="250"/>
      <point x="318" y="250" type="qcurve"/>
      <point x="318" y="250"/>
      <point x="318" y="250" type="qcurve"/>
      <point x="318" y="250"/>
      <point x="318" y="250" type="qcurve"/>
      <point x="318" y="250"/>
      <point x="317" y="250" type="qcurve"/>
      <point x="317" y="250"/>
      <point x="317" y="250" type="qcurve"/>
      <point x="317" y="250"/>
      <point x="317" y="250" type="qcurve"/>
      <point x="317" y="250"/>
      <point x="317" y="250" type="qcurve"/>
      <point x="317" y="250"/>
      <point x="317" y="250" type="qcurve"/>
      <point x="317" y="250"/>
      <point x="317" y="250" type="qcurve"/>
      <point x="315" y="250" type="line"/>
      <point x="315" y="250"/>
      <point x="315" y="250" type="qcurve"/>
      <point x="315" y="250"/>
      <point x="315" y="250" type="qcurve"/>
      <point x="315" y="250"/>
      <point x="315" y="250" type="qcurve"/>
      <point x="315" y="250"/>
      <point x="315" y="250" type="qcurve"/>
      <point x="315" y="250"/>
      <point x="315" y="250" type="qcurve"/>
      <point x="315" y="250"/>
      <point x="315" y="250" type="qcurve"/>
      <point x="315" y="250"/>
      <point x="315" y="250" type="qcurve"/>
      <point x="315" y="250"/>
      <point x="314" y="250" type="qcurve"/>
      <point x="314" y="250"/>
      <point x="314" y="250" type="qcurve"/>
      <point x="314" y="250"/>
      <point x="314" y="250" type="qcurve"/>
      <point x="314" y="250"/>
      <point x="314" y="250" type="qcurve"/>
      <point x="287" y="250"/>
      <point x="230" y="269"/>
      <point x="198" y="289" type="qcurve"/>
      <point x="188" y="294"/>
      <point x="172" y="300"/>
      <point x="164" y="300" type="qcurve" smooth="yes"/>
      <point x="153" y="300"/>
      <point x="132" y="294"/>
      <point x="122" y="289" type="qcurve"/>
      <point x="102" y="274"/>
      <point x="93" y="265" type="qcurve" smooth="yes"/>
      <point x="87" y="259"/>
      <point x="81" y="254" type="qcurve"/>
      <point x="76" y="247" type="line"/>
      <point x="70" y="251" type="line"/>
      <point x="11" y="301" type="line"/>
      <point x="15" y="310" type="line"/>
      <point x="16" y="311"/>
      <point x="26" y="322"/>
      <point x="43" y="338"/>
      <point x="66" y="356"/>
      <point x="80" y="364" type="qcurve" smooth="yes"/>
      <point x="122" y="389"/>
      <point x="164" y="389" type="qcurve" smooth="yes"/>
      <point x="202" y="389"/>
      <point x="244" y="364" type="qcurve"/>
      <point x="283" y="338"/>
      <point x="311" y="338" type="qcurve" smooth="yes"/>
      <point x="318" y="338"/>
      <point x="325" y="340" type="qcurve"/>
      <point x="353" y="344"/>
      <point x="373" y="373" type="qcurve" smooth="yes"/>
      <point x="378" y="380" type="line"/>
    </contour>
  </outline>
</glyph>
<glyph name="cent" format="2">
  <advance width="406"/>
  <unicode hex="00A2"/>
  <outline>
    <contour>
      <point x="267" y="265" type="line"/>
      <point x="378" y="265" type="line"/>
      <point x="378" y="219"/>
      <point x="373" y="146"/>
      <point x="344" y="95"/>
      <point x="284" y="66"/>
      <point x="230" y="64" type="qcurve"/>
      <point x="230" y="9" type="line"/>
      <point x="163" y="9" type="line"/>
      <point x="163" y="64" type="line"/>
      <point x="92" y="69"/>
      <point x="28" y="146"/>
      <point x="28" y="228" type="qcurve" smooth="yes"/>
      <point x="28" y="417" type="line" smooth="yes"/>
      <point x="28" y="457"/>
      <point x="40" y="517"/>
      <point x="72" y="558"/>
      <point x="126" y="579"/>
      <point x="167" y="582" type="qcurve"/>
      <point x="167" y="642" type="line"/>
      <point x="233" y="642" type="line"/>
      <point x="233" y="582" type="line"/>
      <point x="276" y="580"/>
      <point x="333" y="559"/>
      <point x="365" y="517"/>
      <point x="378" y="455"/>
      <point x="378" y="412" type="qcurve"/>
      <point x="267" y="412" type="line"/>
      <point x="267" y="434"/>
      <point x="265" y="460"/>
      <point x="253" y="473"/>
      <point x="227" y="476"/>
      <point x="203" y="476" type="qcurve" smooth="yes"/>
      <point x="179" y="476"/>
      <point x="153" y="474"/>
      <point x="142" y="462"/>
      <point x="140" y="438"/>
      <point x="140" y="417" type="qcurve" smooth="yes"/>
      <point x="140" y="353" type="line"/>
      <point x="140" y="352"/>
      <point x="140" y="350" type="qcurve"/>
      <point x="140" y="348" type="line"/>
      <point x="140" y="347"/>
      <point x="140" y="346" type="qcurve"/>
      <point x="140" y="344" type="line"/>
      <point x="140" y="343"/>
      <point x="140" y="342" type="qcurve"/>
      <point x="140" y="328" type="line"/>
      <point x="140" y="327"/>
      <point x="140" y="326" type="qcurve"/>
      <point x="140" y="324" type="line"/>
      <point x="140" y="323"/>
      <point x="140" y="322" type="qcurve"/>
      <point x="140" y="287" type="line" smooth="yes"/>
      <point x="140" y="251"/>
      <point x="141" y="206" type="qcurve"/>
      <point x="143" y="189"/>
      <point x="186" y="173"/>
      <point x="211" y="173" type="qcurve" smooth="yes"/>
      <point x="239" y="173"/>
      <point x="256" y="180" type="qcurve"/>
      <point x="264" y="182"/>
      <point x="269" y="208"/>
      <point x="269" y="222" type="qcurve" smooth="yes"/>
      <point x="269" y="230"/>
      <point x="268" y="245"/>
      <point x="267" y="251" type="qcurve"/>
    </contour>
  </outline>
</glyph>
<glyph name="sterling" format="2">
  <advance width="397"/>
  <unicode hex="00A3"/>
  <outline>
    <contour>
      <point x="374" y="106" type="line"/>
      <point x="374" y="96"/>
      <point x="373" y="78"/>
      <point x="373" y="67" type="qcurve" smooth="yes"/>
      <point x="373" y="51"/>
      <point x="374" y="16"/>
      <point x="375" y="0" type="qcurve"/>
      <point x="23" y="0" type="line"/>
      <point x="23" y="107" type="line"/>
      <point x="48" y="120"/>
      <point x="68" y="135" type="qcurve" smooth="yes"/>
      <point x="85" y="148"/>
      <point x="117" y="180"/>
      <point x="122" y="197" type="qcurve" smooth="yes"/>
      <point x="123" y="200"/>
      <point x="124" y="205"/>
      <point x="125" y="208" type="qcurve"/>
      <point x="62" y="208" type="line"/>
      <point x="62" y="252" type="line"/>
      <point x="122" y="252" type="line"/>
      <point x="119" y="258"/>
      <point x="111" y="265"/>
      <point x="108" y="267" type="qcurve" smooth="yes"/>
      <point x="104" y="270"/>
      <point x="101" y="271" type="qcurve" smooth="yes"/>
      <point x="71" y="282"/>
      <point x="40" y="319"/>
      <point x="25" y="369"/>
      <point x="23" y="430"/>
      <point x="23" y="465" type="qcurve" smooth="yes"/>
      <point x="23" y="488" type="line" smooth="yes"/>
      <point x="23" y="531"/>
      <point x="40" y="594"/>
      <point x="81" y="634"/>
      <point x="148" y="653"/>
      <point x="198" y="653" type="qcurve" smooth="yes"/>
      <point x="248" y="653"/>
      <point x="316" y="634"/>
      <point x="357" y="592"/>
      <point x="375" y="528"/>
      <point x="375" y="483" type="qcurve"/>
      <point x="262" y="483" type="line"/>
      <point x="262" y="484" type="line"/>
      <point x="262" y="484"/>
      <point x="262" y="484" type="qcurve"/>
      <point x="262" y="485"/>
      <point x="262" y="485" type="qcurve"/>
      <point x="262" y="485"/>
      <point x="262" y="485" type="qcurve"/>
      <point x="262" y="486" type="line"/>
      <point x="262" y="486"/>
      <point x="262" y="486" type="qcurve"/>
      <point x="262" y="487"/>
      <point x="262" y="487" type="qcurve"/>
      <point x="262" y="487"/>
      <point x="262" y="487" type="qcurve"/>
      <point x="262" y="487"/>
      <point x="262" y="487" type="qcurve"/>
      <point x="262" y="488"/>
      <point x="262" y="488" type="qcurve"/>
      <point x="262" y="488"/>
      <point x="262" y="488" type="qcurve"/>
      <point x="262" y="493" type="line" smooth="yes"/>
      <point x="262" y="508"/>
      <point x="257" y="531"/>
      <point x="242" y="544"/>
      <point x="216" y="547"/>
      <point x="198" y="547" type="qcurve" smooth="yes"/>
      <point x="159" y="547"/>
      <point x="135" y="509"/>
      <point x="135" y="455" type="qcurve" smooth="yes"/>
      <point x="135" y="451"/>
      <point x="134" y="443"/>
      <point x="134" y="438" type="qcurve"/>
      <point x="134" y="437" type="line"/>
      <point x="134" y="437"/>
      <point x="134" y="437" type="qcurve"/>
      <point x="134" y="437"/>
      <point x="134" y="436" type="qcurve"/>
      <point x="134" y="436"/>
      <point x="134" y="436" type="qcurve"/>
      <point x="134" y="435" type="line"/>
      <point x="134" y="435"/>
      <point x="134" y="435" type="qcurve"/>
      <point x="134" y="435"/>
      <point x="134" y="434" type="qcurve"/>
      <point x="134" y="434"/>
      <point x="134" y="434" type="qcurve"/>
      <point x="134" y="432" type="line"/>
      <point x="134" y="432"/>
      <point x="134" y="432" type="qcurve"/>
      <point x="134" y="424" type="line" smooth="yes"/>
      <point x="134" y="414"/>
      <point x="136" y="387"/>
      <point x="150" y="376" type="qcurve" smooth="yes"/>
      <point x="161" y="367"/>
      <point x="188" y="352"/>
      <point x="214" y="327"/>
      <point x="234" y="286"/>
      <point x="238" y="253" type="qcurve"/>
      <point x="238" y="252" type="line"/>
      <point x="341" y="252" type="line"/>
      <point x="341" y="208" type="line"/>
      <point x="237" y="208" type="line"/>
      <point x="234" y="186"/>
      <point x="218" y="151"/>
      <point x="202" y="126"/>
      <point x="194" y="118" type="qcurve" smooth="yes"/>
      <point x="183" y="107" type="line"/>
    </contour>
  </outline>
</glyph>
<glyph name="currency" format="2">
  <advance width="337"/>
  <unicode hex="00A4"/>
  <outline>
    <contour>
      <point x="306" y="310" type="qcurve" smooth="yes"/>
      <point x="306" y="270"/>
      <point x="284" y="240" type="qcurve"/>
      <point x="326" y="197" type="line"/>
      <point x="284" y="155" type="line"/>
      <point x="238" y="197" type="line"/>
      <point x="223" y="189"/>
      <point x="189" y="179"/>
      <point x="171" y="179" type="qcurve" smooth="yes"/>
      <point x="151" y="179"/>
      <point x="116" y="190"/>
      <point x="102" y="200" type="qcurve"/>
      <point x="60" y="157" type="line"/>
      <point x="15" y="202" type="line"/>
      <point x="56" y="245" type="line"/>
      <point x="40" y="274"/>
      <point x="40" y="310" type="qcurve" smooth="yes"/>
      <point x="40" y="345"/>
      <point x="56" y="376" type="qcurve"/>
      <point x="12" y="417" type="line"/>
      <point x="57" y="461" type="line"/>
      <point x="100" y="421" type="line"/>
      <point x="130" y="442"/>
      <point x="171" y="442" type="qcurve" smooth="yes"/>
      <point x="191" y="442"/>
      <point x="223" y="433"/>
      <point x="240" y="425" type="qcurve"/>
      <point x="280" y="466" type="line"/>
      <point x="326" y="420" type="line"/>
      <point x="286" y="380" type="line"/>
      <point x="295" y="366"/>
      <point x="306" y="330"/>
    </contour>
    <contour>
      <point x="107" y="311" type="qcurve" smooth="yes"/>
      <point x="107" y="284"/>
      <point x="146" y="244"/>
      <point x="173" y="244" type="qcurve" smooth="yes"/>
      <point x="202" y="244"/>
      <point x="241" y="284"/>
      <point x="241" y="311" type="qcurve" smooth="yes"/>
      <point x="241" y="339"/>
      <point x="202" y="378"/>
      <point x="173" y="378" type="qcurve" smooth="yes"/>
      <point x="146" y="378"/>
      <point x="107" y="339"/>
    </contour>
  </outline>
</glyph>
<glyph name="section" format="2">
  <advance width="402"/>
  <unicode hex="00A7"/>
  <outline>
    <contour>
      <point x="368" y="288" type="line" smooth="yes"/>
      <point x="368" y="227"/>
      <point x="351" y="192" type="qcurve"/>
      <point x="364" y="165"/>
      <point x="368" y="96"/>
      <point x="368" y="54" type="qcurve" smooth="yes"/>
      <point x="368" y="32" type="line" smooth="yes"/>
      <point x="368" y="-12"/>
      <point x="350" y="-75"/>
      <point x="310" y="-115"/>
      <point x="242" y="-133"/>
      <point x="193" y="-133" type="qcurve" smooth="yes"/>
      <point x="131" y="-133"/>
      <point x="61" y="-106"/>
      <point x="27" y="-55"/>
      <point x="18" y="21"/>
      <point x="18" y="69" type="qcurve"/>
      <point x="129" y="69" type="line"/>
      <point x="129" y="60"/>
      <point x="128" y="40"/>
      <point x="128" y="32" type="qcurve" smooth="yes"/>
      <point x="128" y="23"/>
      <point x="128" y="16" type="qcurve" smooth="yes"/>
      <point x="128" y="8"/>
      <point x="129" y="-10"/>
      <point x="143" y="-24"/>
      <point x="169" y="-27"/>
      <point x="185" y="-27" type="qcurve" smooth="yes"/>
      <point x="193" y="-27"/>
      <point x="202" y="-27" type="qcurve"/>
      <point x="222" y="-26"/>
      <point x="244" y="-22"/>
      <point x="254" y="-13"/>
      <point x="256" y="5"/>
      <point x="256" y="21" type="qcurve"/>
      <point x="257" y="50"/>
      <point x="258" y="75"/>
      <point x="258" y="81" type="qcurve" smooth="yes"/>
      <point x="258" y="92"/>
      <point x="257" y="99" type="qcurve"/>
      <point x="257" y="110"/>
      <point x="255" y="130"/>
      <point x="253" y="140" type="qcurve"/>
      <point x="251" y="144"/>
      <point x="238" y="150"/>
      <point x="222" y="153"/>
      <point x="204" y="154"/>
      <point x="197" y="154" type="qcurve" smooth="yes"/>
      <point x="193" y="154" type="line" smooth="yes"/>
      <point x="131" y="154"/>
      <point x="61" y="180"/>
      <point x="27" y="230"/>
      <point x="18" y="304"/>
      <point x="18" y="351" type="qcurve" smooth="yes"/>
      <point x="18" y="387"/>
      <point x="29" y="442"/>
      <point x="43" y="462" type="qcurve"/>
      <point x="26" y="487"/>
      <point x="18" y="559"/>
      <point x="18" y="607" type="qcurve" smooth="yes"/>
      <point x="18" y="651"/>
      <point x="36" y="713"/>
      <point x="76" y="753"/>
      <point x="143" y="771"/>
      <point x="193" y="771" type="qcurve" smooth="yes"/>
      <point x="242" y="771"/>
      <point x="309" y="752"/>
      <point x="350" y="711"/>
      <point x="368" y="647"/>
      <point x="368" y="602" type="qcurve"/>
      <point x="256" y="602" type="line"/>
      <point x="256" y="624"/>
      <point x="254" y="650"/>
      <point x="243" y="663"/>
      <point x="217" y="666"/>
      <point x="193" y="666" type="qcurve" smooth="yes"/>
      <point x="158" y="666"/>
      <point x="133" y="658"/>
      <point x="130" y="640" type="qcurve" smooth="yes"/>
      <point x="129" y="634"/>
      <point x="129" y="615"/>
      <point x="128" y="601" type="qcurve"/>
      <point x="128" y="574"/>
      <point x="129" y="540"/>
      <point x="134" y="526" type="qcurve" smooth="yes"/>
      <point x="135" y="523"/>
      <point x="151" y="519"/>
      <point x="171" y="517"/>
      <point x="189" y="516"/>
      <point x="193" y="516" type="qcurve" smooth="yes"/>
      <point x="244" y="516"/>
      <point x="309" y="497"/>
      <point x="347" y="463"/>
      <point x="363" y="415"/>
      <point x="366" y="385" type="qcurve" smooth="yes"/>
      <point x="367" y="376"/>
      <point x="368" y="357"/>
      <point x="368" y="346" type="qcurve"/>
      <point x="367" y="346" type="line"/>
      <point x="368" y="337"/>
      <point x="368" y="328" type="qcurve"/>
      <point x="368" y="326" type="line"/>
      <point x="368" y="325"/>
      <point x="368" y="325" type="qcurve"/>
      <point x="368" y="324" type="line"/>
      <point x="368" y="324"/>
      <point x="368" y="324" type="qcurve"/>
      <point x="368" y="323" type="line"/>
      <point x="368" y="323"/>
      <point x="368" y="322" type="qcurve"/>
      <point x="368" y="321" type="line"/>
      <point x="368" y="321"/>
      <point x="368" y="320" type="qcurve"/>
      <point x="368" y="319"/>
      <point x="368" y="319" type="qcurve"/>
      <point x="368" y="311" type="line"/>
      <point x="368" y="311"/>
      <point x="368" y="310" type="qcurve"/>
    </contour>
    <contour>
      <point x="193" y="260" type="qcurve" smooth="yes"/>
      <point x="211" y="260"/>
      <point x="234" y="257"/>
      <point x="248" y="255" type="qcurve"/>
      <point x="251" y="268"/>
      <point x="254" y="306"/>
      <point x="254" y="348"/>
      <point x="249" y="388"/>
      <point x="245" y="402" type="qcurve"/>
      <point x="237" y="407"/>
      <point x="211" y="410"/>
      <point x="200" y="410" type="qcurve" smooth="yes"/>
      <point x="193" y="410" type="line" smooth="yes"/>
      <point x="158" y="410"/>
      <point x="133" y="402"/>
      <point x="130" y="384" type="qcurve" smooth="yes"/>
      <point x="129" y="376"/>
      <point x="126" y="343"/>
      <point x="126" y="333" type="qcurve" smooth="yes"/>
      <point x="126" y="309"/>
      <point x="130" y="270" type="qcurve"/>
      <point x="131" y="267"/>
      <point x="148" y="263"/>
      <point x="169" y="261"/>
      <point x="189" y="260"/>
    </contour>
  </outline>
</glyph>
<glyph name="dieresis" format="2">
  <advance width="354"/>
  <unicode hex="00A8"/>
  <outline>
    <contour>
      <point x="205" y="766" type="line"/>
      <point x="301" y="766" type="line"/>
      <point x="301" y="685" type="line"/>
      <point x="274" y="684"/>
      <point x="253" y="684" type="qcurve" smooth="yes"/>
      <point x="250" y="684" type="line"/>
      <point x="248" y="684"/>
      <point x="246" y="684" type="qcurve"/>
      <point x="245" y="684" type="line"/>
      <point x="245" y="684"/>
      <point x="244" y="684" type="qcurve"/>
      <point x="243" y="684" type="line"/>
      <point x="243" y="684"/>
      <point x="242" y="684" type="qcurve"/>
      <point x="241" y="684" type="line"/>
      <point x="241" y="684"/>
      <point x="240" y="684" type="qcurve"/>
      <point x="237" y="684" type="line"/>
      <point x="237" y="684"/>
      <point x="236" y="684" type="qcurve"/>
      <point x="224" y="684" type="line"/>
      <point x="223" y="684"/>
      <point x="222" y="684" type="qcurve"/>
      <point x="220" y="684" type="line"/>
      <point x="205" y="684"/>
      <point x="205" y="685" type="qcurve"/>
    </contour>
    <contour>
      <point x="52" y="764" type="line"/>
      <point x="146" y="765" type="line"/>
      <point x="147" y="683" type="line"/>
      <point x="120" y="682"/>
      <point x="99" y="682" type="qcurve" smooth="yes"/>
      <point x="96" y="682" type="line"/>
      <point x="94" y="682"/>
      <point x="92" y="682" type="qcurve"/>
      <point x="91" y="682" type="line"/>
      <point x="91" y="682"/>
      <point x="90" y="682" type="qcurve"/>
      <point x="89" y="682" type="line"/>
      <point x="89" y="682"/>
      <point x="88" y="682" type="qcurve"/>
      <point x="87" y="682" type="line"/>
      <point x="87" y="682"/>
      <point x="86" y="682" type="qcurve"/>
      <point x="85" y="682" type="line"/>
      <point x="85" y="682"/>
      <point x="84" y="682" type="qcurve"/>
      <point x="83" y="682" type="line"/>
      <point x="82" y="682"/>
      <point x="82" y="682" type="qcurve"/>
      <point x="67" y="682" type="line" smooth="yes"/>
      <point x="52" y="682"/>
      <point x="52" y="683" type="qcurve"/>
    </contour>
  </outline>
</glyph>
<glyph name="ordfeminine" format="2">
  <advance width="258"/>
  <unicode hex="00AA"/>
  <outline>
    <contour>
      <point x="223" y="540" type="qcurve"/>
      <point x="223" y="540"/>
      <point x="223" y="540" type="qcurve"/>
      <point x="223" y="540"/>
      <point x="223" y="540" type="qcurve"/>
      <point x="223" y="540"/>
    </contour>
    <contour>
      <point x="175" y="364" type="line"/>
      <point x="172" y="348"/>
      <point x="145" y="348" type="qcurve" smooth="yes"/>
      <point x="108" y="348" type="line" smooth="yes"/>
      <point x="81" y="348"/>
      <point x="50" y="359"/>
      <point x="34" y="379"/>
      <point x="29" y="405"/>
      <point x="29" y="421" type="qcurve"/>
      <point x="29" y="422" type="line"/>
      <point x="29" y="422"/>
      <point x="29" y="422" type="qcurve"/>
      <point x="29" y="422"/>
      <point x="29" y="422" type="qcurve"/>
      <point x="29" y="423" type="line"/>
      <point x="29" y="423"/>
      <point x="29" y="423" type="qcurve"/>
      <point x="29" y="423"/>
      <point x="29" y="423" type="qcurve"/>
      <point x="29" y="423"/>
      <point x="29" y="423" type="qcurve"/>
      <point x="29" y="423"/>
      <point x="29" y="423" type="qcurve"/>
      <point x="29" y="423"/>
      <point x="29" y="424" type="qcurve"/>
      <point x="29" y="424"/>
      <point x="29" y="424" type="qcurve"/>
      <point x="29" y="424"/>
      <point x="29" y="424" type="qcurve"/>
      <point x="29" y="424"/>
      <point x="29" y="424" type="qcurve"/>
      <point x="29" y="424"/>
      <point x="29" y="424" type="qcurve"/>
      <point x="29" y="424"/>
      <point x="29" y="424" type="qcurve"/>
      <point x="29" y="424"/>
      <point x="29" y="424" type="qcurve"/>
      <point x="29" y="424"/>
      <point x="29" y="424" type="qcurve"/>
      <point x="29" y="424"/>
      <point x="29" y="425" type="qcurve"/>
      <point x="29" y="425"/>
      <point x="29" y="425" type="qcurve"/>
      <point x="29" y="428" type="line"/>
      <point x="29" y="428"/>
      <point x="29" y="428" type="qcurve"/>
      <point x="29" y="428"/>
      <point x="29" y="428" type="qcurve"/>
      <point x="29" y="428"/>
      <point x="29" y="428" type="qcurve"/>
      <point x="29" y="428"/>
      <point x="29" y="428" type="qcurve"/>
      <point x="29" y="428"/>
      <point x="29" y="429" type="qcurve"/>
      <point x="29" y="429"/>
      <point x="29" y="429" type="qcurve"/>
      <point x="29" y="430" type="line"/>
      <point x="29" y="430"/>
      <point x="29" y="430" type="qcurve"/>
      <point x="29" y="430"/>
      <point x="29" y="431" type="qcurve"/>
      <point x="29" y="431"/>
      <point x="29" y="431" type="qcurve"/>
      <point x="29" y="431"/>
      <point x="29" y="431" type="qcurve"/>
      <point x="29" y="431"/>
      <point x="29" y="431" type="qcurve"/>
      <point x="29" y="431"/>
      <point x="29" y="431" type="qcurve"/>
      <point x="29" y="432" type="line"/>
      <point x="29" y="432"/>
      <point x="29" y="432" type="qcurve"/>
      <point x="29" y="432"/>
      <point x="29" y="432" type="qcurve"/>
      <point x="29" y="432"/>
      <point x="29" y="432" type="qcurve"/>
      <point x="29" y="432"/>
      <point x="29" y="432" type="qcurve"/>
      <point x="29" y="432"/>
      <point x="29" y="433" type="qcurve"/>
      <point x="29" y="433"/>
      <point x="29" y="433" type="qcurve"/>
      <point x="29" y="433"/>
      <point x="29" y="433" type="qcurve"/>
      <point x="29" y="433"/>
      <point x="29" y="433" type="qcurve"/>
      <point x="29" y="433"/>
      <point x="29" y="433" type="qcurve"/>
      <point x="29" y="433"/>
      <point x="29" y="433" type="qcurve"/>
      <point x="29" y="433"/>
      <point x="29" y="433" type="qcurve"/>
      <point x="29" y="433"/>
      <point x="29" y="433" type="qcurve"/>
      <point x="29" y="433"/>
      <point x="29" y="433" type="qcurve"/>
      <point x="29" y="433"/>
      <point x="29" y="434" type="qcurve"/>
      <point x="29" y="434"/>
      <point x="29" y="434" type="qcurve"/>
      <point x="29" y="434"/>
      <point x="29" y="434" type="qcurve"/>
      <point x="29" y="434"/>
      <point x="29" y="434" type="qcurve"/>
      <point x="29" y="438" type="line"/>
      <point x="29" y="438"/>
      <point x="29" y="438" type="qcurve"/>
      <point x="29" y="438"/>
      <point x="29" y="438" type="qcurve"/>
      <point x="29" y="439" type="line"/>
      <point x="29" y="442"/>
      <point x="30" y="450"/>
      <point x="30" y="454" type="qcurve" smooth="yes"/>
      <point x="30" y="479"/>
      <point x="45" y="506"/>
      <point x="72" y="519"/>
      <point x="91" y="520" type="qcurve" smooth="yes"/>
      <point x="109" y="521"/>
      <point x="130" y="521" type="qcurve" smooth="yes"/>
      <point x="147" y="521"/>
      <point x="162" y="520" type="qcurve"/>
      <point x="168" y="520"/>
      <point x="174" y="519" type="qcurve"/>
      <point x="174" y="551" type="line" smooth="yes"/>
      <point x="174" y="557"/>
      <point x="173" y="569"/>
      <point x="163" y="575"/>
      <point x="151" y="576" type="qcurve"/>
      <point x="148" y="576" type="line"/>
      <point x="148" y="576"/>
      <point x="148" y="576" type="qcurve"/>
      <point x="148" y="576"/>
      <point x="148" y="576" type="qcurve"/>
      <point x="148" y="576"/>
      <point x="148" y="576" type="qcurve"/>
      <point x="148" y="576"/>
      <point x="148" y="576" type="qcurve"/>
      <point x="148" y="576"/>
      <point x="148" y="576" type="qcurve"/>
      <point x="144" y="576" type="line"/>
      <point x="144" y="576"/>
      <point x="144" y="576" type="qcurve"/>
      <point x="144" y="576"/>
      <point x="144" y="576" type="qcurve"/>
      <point x="144" y="576"/>
      <point x="144" y="576" type="qcurve"/>
      <point x="144" y="576"/>
      <point x="144" y="576" type="qcurve"/>
      <point x="144" y="576"/>
      <point x="144" y="576" type="qcurve"/>
      <point x="142" y="576" type="line"/>
      <point x="142" y="576"/>
      <point x="142" y="576" type="qcurve"/>
      <point x="142" y="576"/>
      <point x="141" y="576" type="qcurve"/>
      <point x="141" y="576"/>
      <point x="141" y="576" type="qcurve"/>
      <point x="141" y="576"/>
      <point x="141" y="576" type="qcurve"/>
      <point x="141" y="576"/>
      <point x="141" y="576" type="qcurve"/>
      <point x="139" y="576" type="line"/>
      <point x="139" y="576"/>
      <point x="139" y="576" type="qcurve"/>
      <point x="139" y="576"/>
      <point x="139" y="576" type="qcurve"/>
      <point x="139" y="576"/>
      <point x="139" y="576" type="qcurve"/>
      <point x="139" y="576"/>
      <point x="139" y="576" type="qcurve"/>
      <point x="139" y="576"/>
      <point x="139" y="576" type="qcurve"/>
      <point x="137" y="576" type="line"/>
      <point x="137" y="576"/>
      <point x="136" y="576" type="qcurve"/>
      <point x="136" y="576"/>
      <point x="136" y="576" type="qcurve"/>
      <point x="136" y="576"/>
      <point x="136" y="576" type="qcurve"/>
      <point x="136" y="576"/>
      <point x="136" y="576" type="qcurve"/>
      <point x="136" y="576"/>
      <point x="136" y="576" type="qcurve"/>
      <point x="100" y="576" type="line" smooth="yes"/>
      <point x="90" y="576"/>
      <point x="85" y="572" type="qcurve" smooth="yes"/>
      <point x="80" y="569"/>
      <point x="79" y="558"/>
      <point x="79" y="551" type="qcurve"/>
      <point x="30" y="551" type="line"/>
      <point x="30" y="577"/>
      <point x="45" y="605"/>
      <point x="72" y="617"/>
      <point x="91" y="618" type="qcurve" smooth="yes"/>
      <point x="98" y="619"/>
      <point x="111" y="619" type="qcurve" smooth="yes"/>
      <point x="118" y="619"/>
      <point x="150" y="618"/>
      <point x="162" y="618" type="qcurve"/>
      <point x="181" y="617"/>
      <point x="208" y="604"/>
      <point x="223" y="577"/>
      <point x="223" y="552" type="qcurve"/>
      <point x="223" y="552"/>
      <point x="223" y="552" type="qcurve"/>
      <point x="223" y="552"/>
      <point x="223" y="551" type="qcurve"/>
      <point x="223" y="551"/>
      <point x="223" y="551" type="qcurve"/>
      <point x="223" y="550" type="line"/>
      <point x="223" y="550"/>
      <point x="223" y="550" type="qcurve"/>
      <point x="223" y="550"/>
      <point x="223" y="550" type="qcurve"/>
      <point x="223" y="550"/>
      <point x="223" y="550" type="qcurve"/>
      <point x="223" y="548" type="line"/>
      <point x="223" y="548"/>
      <point x="223" y="548" type="qcurve"/>
      <point x="223" y="548"/>
      <point x="223" y="548" type="qcurve"/>
      <point x="223" y="544" type="line"/>
      <point x="223" y="544"/>
      <point x="223" y="544" type="qcurve"/>
      <point x="223" y="544"/>
      <point x="223" y="543" type="qcurve"/>
      <point x="223" y="543"/>
      <point x="223" y="543" type="qcurve"/>
      <point x="223" y="542" type="line"/>
      <point x="223" y="542"/>
      <point x="223" y="542" type="qcurve"/>
      <point x="223" y="542"/>
      <point x="223" y="542" type="qcurve"/>
      <point x="223" y="542"/>
      <point x="223" y="542" type="qcurve"/>
      <point x="223" y="536" type="line" smooth="yes"/>
      <point x="223" y="532"/>
      <point x="224" y="523"/>
      <point x="225" y="347" type="qcurve"/>
      <point x="175" y="347" type="line"/>
    </contour>
    <contour>
      <point x="29" y="425" type="qcurve"/>
      <point x="29" y="425"/>
      <point x="29" y="425" type="qcurve"/>
      <point x="29" y="425"/>
      <point x="29" y="425" type="qcurve"/>
      <point x="29" y="425"/>
    </contour>
    <contour>
      <point x="174" y="453" type="line" smooth="yes"/>
      <point x="174" y="459"/>
      <point x="173" y="471"/>
      <point x="163" y="477"/>
      <point x="151" y="478" type="qcurve"/>
      <point x="150" y="478" type="line"/>
      <point x="150" y="478"/>
      <point x="150" y="478" type="qcurve"/>
      <point x="150" y="478"/>
      <point x="150" y="478" type="qcurve"/>
      <point x="150" y="478"/>
      <point x="150" y="478" type="qcurve"/>
      <point x="150" y="478"/>
      <point x="150" y="478" type="qcurve"/>
      <point x="150" y="478"/>
      <point x="149" y="478" type="qcurve"/>
      <point x="149" y="478"/>
      <point x="149" y="478" type="qcurve"/>
      <point x="149" y="478"/>
      <point x="149" y="478" type="qcurve"/>
      <point x="145" y="478" type="line"/>
      <point x="145" y="478"/>
      <point x="145" y="478" type="qcurve"/>
      <point x="145" y="478"/>
      <point x="145" y="478" type="qcurve"/>
      <point x="145" y="478"/>
      <point x="144" y="478" type="qcurve"/>
      <point x="144" y="478"/>
      <point x="144" y="478" type="qcurve"/>
      <point x="144" y="478"/>
      <point x="144" y="478" type="qcurve"/>
      <point x="144" y="478"/>
      <point x="144" y="478" type="qcurve"/>
      <point x="144" y="478"/>
      <point x="144" y="478" type="qcurve"/>
      <point x="142" y="478" type="line"/>
      <point x="142" y="478"/>
      <point x="142" y="478" type="qcurve"/>
      <point x="142" y="478"/>
      <point x="142" y="478" type="qcurve"/>
      <point x="142" y="478"/>
      <point x="141" y="478" type="qcurve"/>
      <point x="141" y="478"/>
      <point x="141" y="478" type="qcurve"/>
      <point x="141" y="478"/>
      <point x="141" y="478" type="qcurve"/>
      <point x="141" y="478"/>
      <point x="141" y="478" type="qcurve"/>
      <point x="141" y="478"/>
      <point x="141" y="478" type="qcurve"/>
      <point x="140" y="478" type="line"/>
      <point x="140" y="478"/>
      <point x="140" y="478" type="qcurve"/>
      <point x="140" y="478"/>
      <point x="140" y="478" type="qcurve"/>
      <point x="140" y="478"/>
      <point x="140" y="478" type="qcurve"/>
      <point x="140" y="478"/>
      <point x="140" y="478" type="qcurve"/>
      <point x="140" y="478"/>
      <point x="139" y="478" type="qcurve"/>
      <point x="139" y="478"/>
      <point x="139" y="478" type="qcurve"/>
      <point x="139" y="478"/>
      <point x="139" y="478" type="qcurve"/>
      <point x="128" y="478" type="line"/>
      <point x="128" y="478"/>
      <point x="128" y="478" type="qcurve"/>
      <point x="128" y="478"/>
      <point x="128" y="478" type="qcurve"/>
      <point x="128" y="478"/>
      <point x="127" y="478" type="qcurve"/>
      <point x="127" y="478"/>
      <point x="127" y="478" type="qcurve"/>
      <point x="127" y="478"/>
      <point x="127" y="478" type="qcurve"/>
      <point x="127" y="478"/>
      <point x="127" y="478" type="qcurve"/>
      <point x="127" y="478"/>
      <point x="127" y="478" type="qcurve"/>
      <point x="126" y="478" type="line"/>
      <point x="126" y="478"/>
      <point x="126" y="478" type="qcurve"/>
      <point x="126" y="478"/>
      <point x="126" y="478" type="qcurve"/>
      <point x="126" y="478"/>
      <point x="125" y="478" type="qcurve"/>
      <point x="125" y="478"/>
      <point x="125" y="478" type="qcurve"/>
      <point x="125" y="478"/>
      <point x="125" y="478" type="qcurve"/>
      <point x="125" y="478"/>
      <point x="125" y="478" type="qcurve"/>
      <point x="125" y="478"/>
      <point x="125" y="478" type="qcurve"/>
      <point x="122" y="478" type="line"/>
      <point x="122" y="478"/>
      <point x="122" y="478" type="qcurve"/>
      <point x="122" y="478"/>
      <point x="121" y="478" type="qcurve"/>
      <point x="121" y="478"/>
      <point x="121" y="478" type="qcurve"/>
      <point x="121" y="478"/>
      <point x="121" y="478" type="qcurve"/>
      <point x="121" y="478"/>
      <point x="121" y="478" type="qcurve"/>
      <point x="120" y="478" type="line"/>
      <point x="120" y="478"/>
      <point x="120" y="478" type="qcurve"/>
      <point x="120" y="478"/>
      <point x="120" y="478" type="qcurve"/>
      <point x="120" y="478"/>
      <point x="120" y="478" type="qcurve"/>
      <point x="120" y="478"/>
      <point x="120" y="478" type="qcurve"/>
      <point x="120" y="478"/>
      <point x="119" y="478" type="qcurve"/>
      <point x="119" y="478"/>
      <point x="119" y="478" type="qcurve"/>
      <point x="119" y="478"/>
      <point x="119" y="478" type="qcurve"/>
      <point x="119" y="478"/>
      <point x="119" y="478" type="qcurve"/>
      <point x="119" y="478"/>
      <point x="119" y="478" type="qcurve"/>
      <point x="116" y="478" type="line"/>
      <point x="116" y="478"/>
      <point x="116" y="478" type="qcurve"/>
      <point x="116" y="478"/>
      <point x="116" y="478" type="qcurve"/>
      <point x="116" y="478"/>
      <point x="115" y="478" type="qcurve"/>
      <point x="115" y="478"/>
      <point x="115" y="478" type="qcurve"/>
      <point x="115" y="478"/>
      <point x="115" y="478" type="qcurve"/>
      <point x="115" y="478"/>
      <point x="115" y="478" type="qcurve"/>
      <point x="115" y="478"/>
      <point x="115" y="478" type="qcurve"/>
      <point x="113" y="478" type="line"/>
      <point x="113" y="478"/>
      <point x="113" y="478" type="qcurve"/>
      <point x="113" y="478"/>
      <point x="113" y="478" type="qcurve"/>
      <point x="113" y="478"/>
      <point x="113" y="478" type="qcurve"/>
      <point x="113" y="478"/>
      <point x="113" y="478" type="qcurve"/>
      <point x="113" y="478"/>
      <point x="112" y="478" type="qcurve"/>
      <point x="112" y="478"/>
      <point x="112" y="478" type="qcurve"/>
      <point x="112" y="478"/>
      <point x="112" y="478" type="qcurve"/>
      <point x="112" y="478"/>
      <point x="112" y="478" type="qcurve"/>
      <point x="112" y="478"/>
      <point x="112" y="478" type="qcurve"/>
      <point x="112" y="478"/>
      <point x="111" y="478" type="qcurve"/>
      <point x="111" y="478"/>
      <point x="111" y="478" type="qcurve"/>
      <point x="111" y="478"/>
      <point x="111" y="478" type="qcurve"/>
      <point x="111" y="478"/>
      <point x="111" y="478" type="qcurve"/>
      <point x="111" y="478"/>
      <point x="111" y="478" type="qcurve"/>
      <point x="104" y="478" type="line"/>
      <point x="104" y="478"/>
      <point x="104" y="478" type="qcurve"/>
      <point x="104" y="478"/>
      <point x="104" y="478" type="qcurve"/>
      <point x="104" y="478"/>
      <point x="104" y="478" type="qcurve"/>
      <point x="104" y="478"/>
      <point x="104" y="478" type="qcurve"/>
      <point x="104" y="478"/>
      <point x="103" y="478" type="qcurve"/>
      <point x="103" y="478"/>
      <point x="103" y="478" type="qcurve"/>
      <point x="103" y="478"/>
      <point x="103" y="478" type="qcurve"/>
      <point x="103" y="478"/>
      <point x="103" y="478" type="qcurve"/>
      <point x="103" y="478"/>
      <point x="103" y="478" type="qcurve"/>
      <point x="103" y="478"/>
      <point x="103" y="478" type="qcurve"/>
      <point x="102" y="478" type="line"/>
      <point x="90" y="477"/>
      <point x="80" y="471"/>
      <point x="79" y="459"/>
      <point x="79" y="453" type="qcurve" smooth="yes"/>
      <point x="79" y="416" type="line" smooth="yes"/>
      <point x="79" y="407"/>
      <point x="86" y="396"/>
      <point x="98" y="391"/>
      <point x="107" y="391" type="qcurve"/>
      <point x="109" y="391" type="line"/>
      <point x="109" y="391"/>
      <point x="109" y="391" type="qcurve"/>
      <point x="109" y="391"/>
      <point x="109" y="391" type="qcurve"/>
      <point x="109" y="391"/>
      <point x="109" y="391" type="qcurve"/>
      <point x="109" y="391"/>
      <point x="109" y="391" type="qcurve"/>
      <point x="109" y="391"/>
      <point x="109" y="391" type="qcurve"/>
      <point x="109" y="391"/>
      <point x="110" y="391" type="qcurve"/>
      <point x="110" y="391"/>
      <point x="110" y="391" type="qcurve"/>
      <point x="111" y="391" type="line"/>
      <point x="111" y="391"/>
      <point x="111" y="391" type="qcurve"/>
      <point x="111" y="391"/>
      <point x="111" y="391" type="qcurve"/>
      <point x="111" y="391"/>
      <point x="111" y="391" type="qcurve"/>
      <point x="111" y="391"/>
      <point x="111" y="391" type="qcurve"/>
      <point x="111" y="391"/>
      <point x="111" y="391" type="qcurve"/>
      <point x="111" y="391"/>
      <point x="112" y="391" type="qcurve"/>
      <point x="112" y="391"/>
      <point x="112" y="391" type="qcurve"/>
      <point x="112" y="391"/>
      <point x="112" y="391" type="qcurve"/>
      <point x="112" y="391"/>
      <point x="112" y="391" type="qcurve"/>
      <point x="112" y="391"/>
      <point x="113" y="391" type="qcurve"/>
      <point x="113" y="391"/>
      <point x="113" y="391" type="qcurve"/>
      <point x="113" y="391"/>
      <point x="113" y="391" type="qcurve"/>
      <point x="113" y="391"/>
      <point x="113" y="391" type="qcurve"/>
      <point x="114" y="391" type="line"/>
      <point x="114" y="391"/>
      <point x="114" y="391" type="qcurve"/>
      <point x="114" y="391"/>
      <point x="114" y="391" type="qcurve"/>
      <point x="114" y="391"/>
      <point x="114" y="391" type="qcurve"/>
      <point x="114" y="391"/>
      <point x="114" y="391" type="qcurve"/>
      <point x="114" y="391"/>
      <point x="114" y="391" type="qcurve"/>
      <point x="114" y="391"/>
      <point x="114" y="391" type="qcurve"/>
      <point x="114" y="391"/>
      <point x="115" y="391" type="qcurve"/>
      <point x="115" y="391"/>
      <point x="115" y="391" type="qcurve"/>
      <point x="130" y="391" type="line"/>
      <point x="130" y="391"/>
      <point x="130" y="391" type="qcurve"/>
      <point x="130" y="391"/>
      <point x="130" y="391" type="qcurve"/>
      <point x="130" y="391"/>
      <point x="130" y="391" type="qcurve"/>
      <point x="130" y="391"/>
      <point x="130" y="391" type="qcurve"/>
      <point x="130" y="391"/>
      <point x="130" y="391" type="qcurve"/>
      <point x="130" y="391"/>
      <point x="131" y="391" type="qcurve"/>
      <point x="131" y="391"/>
      <point x="131" y="391" type="qcurve"/>
      <point x="131" y="391"/>
      <point x="131" y="391" type="qcurve"/>
      <point x="131" y="391"/>
      <point x="131" y="391" type="qcurve"/>
      <point x="131" y="391"/>
      <point x="131" y="391" type="qcurve"/>
      <point x="131" y="391"/>
      <point x="131" y="391" type="qcurve"/>
      <point x="131" y="391"/>
      <point x="131" y="391" type="qcurve"/>
      <point x="131" y="391"/>
      <point x="132" y="391" type="qcurve"/>
      <point x="132" y="391"/>
      <point x="132" y="391" type="qcurve"/>
      <point x="132" y="391"/>
      <point x="132" y="391" type="qcurve"/>
      <point x="132" y="391"/>
      <point x="132" y="391" type="qcurve"/>
      <point x="132" y="391"/>
      <point x="132" y="391" type="qcurve"/>
      <point x="132" y="391"/>
      <point x="132" y="391" type="qcurve"/>
      <point x="132" y="391"/>
      <point x="132" y="391" type="qcurve"/>
      <point x="132" y="391"/>
      <point x="133" y="391" type="qcurve"/>
      <point x="133" y="391"/>
      <point x="133" y="391" type="qcurve"/>
      <point x="134" y="391" type="line"/>
      <point x="134" y="391"/>
      <point x="134" y="391" type="qcurve"/>
      <point x="134" y="391"/>
      <point x="134" y="391" type="qcurve"/>
      <point x="134" y="391"/>
      <point x="134" y="391" type="qcurve"/>
      <point x="134" y="391"/>
      <point x="135" y="391" type="qcurve"/>
      <point x="135" y="391"/>
      <point x="135" y="391" type="qcurve"/>
      <point x="135" y="391"/>
      <point x="135" y="391" type="qcurve"/>
      <point x="135" y="391"/>
      <point x="135" y="391" type="qcurve"/>
      <point x="135" y="391"/>
      <point x="135" y="391" type="qcurve"/>
      <point x="135" y="391"/>
      <point x="135" y="391" type="qcurve"/>
      <point x="135" y="391"/>
      <point x="136" y="391" type="qcurve"/>
      <point x="136" y="391"/>
      <point x="136" y="391" type="qcurve"/>
      <point x="136" y="391"/>
      <point x="136" y="391" type="qcurve"/>
      <point x="136" y="391"/>
      <point x="136" y="391" type="qcurve"/>
      <point x="137" y="391" type="line"/>
      <point x="137" y="391"/>
      <point x="137" y="391" type="qcurve"/>
      <point x="137" y="391"/>
      <point x="137" y="391" type="qcurve"/>
      <point x="137" y="391"/>
      <point x="137" y="391" type="qcurve"/>
      <point x="137" y="391"/>
      <point x="137" y="391" type="qcurve"/>
      <point x="137" y="391"/>
      <point x="138" y="391" type="qcurve"/>
      <point x="138" y="391"/>
      <point x="138" y="391" type="qcurve"/>
      <point x="138" y="391"/>
      <point x="138" y="391" type="qcurve"/>
      <point x="138" y="391"/>
      <point x="138" y="391" type="qcurve"/>
      <point x="144" y="391" type="line"/>
      <point x="144" y="391"/>
      <point x="144" y="391" type="qcurve"/>
      <point x="144" y="391"/>
      <point x="144" y="391" type="qcurve"/>
      <point x="144" y="391"/>
      <point x="144" y="391" type="qcurve"/>
      <point x="146" y="391" type="line"/>
      <point x="154" y="391"/>
      <point x="167" y="396"/>
      <point x="174" y="407"/>
      <point x="174" y="416" type="qcurve" smooth="yes"/>
    </contour>
  </outline>
</glyph>
<glyph name="guillemotleft" format="2">
  <advance width="345"/>
  <unicode hex="00AB"/>
  <outline>
    <contour>
      <point x="320" y="477" type="line"/>
      <point x="255" y="348" type="line"/>
      <point x="320" y="221" type="line"/>
      <point x="240" y="221" type="line"/>
      <point x="163" y="348" type="line"/>
      <point x="240" y="477" type="line"/>
    </contour>
    <contour>
      <point x="180" y="477" type="line"/>
      <point x="115" y="348" type="line"/>
      <point x="180" y="221" type="line"/>
      <point x="100" y="221" type="line"/>
      <point x="23" y="348" type="line"/>
      <point x="100" y="477" type="line"/>
    </contour>
  </outline>
</glyph>
<glyph name="uni00AD" format="2">
  <advance width="286"/>
  <unicode hex="00AD"/>
  <outline>
    <contour>
      <point x="262" y="358" type="line"/>
      <point x="262" y="277" type="line"/>
      <point x="24" y="277" type="line"/>
      <point x="24" y="358" type="line"/>
    </contour>
  </outline>
</glyph>
<glyph name="macron" format="2">
  <advance width="219"/>
  <unicode hex="00AF"/>
  <outline>
    <contour>
      <point x="8" y="766" type="line"/>
      <point x="208" y="766" type="line"/>
      <point x="208" y="685" type="line"/>
      <point x="151" y="684"/>
      <point x="8" y="685"/>
      <point x="8" y="685" type="qcurve"/>
    </contour>
  </outline>
</glyph>
<glyph name="degree" format="2">
  <advance width="195"/>
  <unicode hex="00B0"/>
  <outline>
    <contour>
      <point x="99" y="522" type="qcurve" smooth="yes"/>
      <point x="67" y="522"/>
      <point x="24" y="566"/>
      <point x="24" y="595" type="qcurve" smooth="yes"/>
      <point x="24" y="627"/>
      <point x="67" y="671"/>
      <point x="99" y="671" type="qcurve" smooth="yes"/>
      <point x="131" y="671"/>
      <point x="173" y="627"/>
      <point x="173" y="595" type="qcurve" smooth="yes"/>
      <point x="173" y="566"/>
      <point x="131" y="522"/>
    </contour>
    <contour>
      <point x="99" y="616" type="qcurve" smooth="yes"/>
      <point x="88" y="616"/>
      <point x="75" y="603"/>
      <point x="75" y="594" type="qcurve" smooth="yes"/>
      <point x="75" y="585"/>
      <point x="88" y="573"/>
      <point x="99" y="573" type="qcurve" smooth="yes"/>
      <point x="107" y="573"/>
      <point x="122" y="585"/>
      <point x="122" y="594" type="qcurve" smooth="yes"/>
      <point x="122" y="603"/>
      <point x="107" y="616"/>
    </contour>
  </outline>
</glyph>
<glyph name="plusminus" format="2">
  <advance width="306"/>
  <unicode hex="00B1"/>
  <outline>
    <contour>
      <point x="287" y="433" type="line"/>
      <point x="287" y="352" type="line"/>
      <point x="196" y="352" type="line"/>
      <point x="196" y="261" type="line"/>
      <point x="115" y="261" type="line"/>
      <point x="115" y="352" type="line"/>
      <point x="24" y="352" type="line"/>
      <point x="24" y="433" type="line"/>
      <point x="115" y="433" type="line"/>
      <point x="115" y="524" type="line"/>
      <point x="196" y="524" type="line"/>
      <point x="196" y="433" type="line"/>
    </contour>
    <contour>
      <point x="288" y="130" type="line"/>
      <point x="28" y="130" type="line"/>
      <point x="28" y="211" type="line"/>
      <point x="288" y="211" type="line"/>
    </contour>
  </outline>
</glyph>
<glyph name="acute" format="2">
  <advance width="327"/>
  <unicode hex="00B4"/>
  <outline>
    <contour>
      <point x="95" y="682" type="qcurve"/>
      <point x="95" y="683"/>
      <point x="111" y="709"/>
      <point x="121" y="724" type="qcurve" smooth="yes"/>
      <point x="147" y="764" type="line"/>
      <point x="244" y="764" type="line"/>
      <point x="190" y="682" type="line"/>
      <point x="163" y="681"/>
      <point x="142" y="681" type="qcurve"/>
      <point x="142" y="681"/>
      <point x="142" y="681" type="qcurve"/>
      <point x="142" y="681"/>
      <point x="142" y="681" type="qcurve"/>
      <point x="141" y="681" type="line"/>
      <point x="141" y="681"/>
      <point x="141" y="681" type="qcurve"/>
      <point x="141" y="681"/>
      <point x="141" y="681" type="qcurve"/>
      <point x="139" y="681" type="line"/>
      <point x="139" y="681"/>
      <point x="139" y="681" type="qcurve"/>
      <point x="139" y="681"/>
      <point x="139" y="681" type="qcurve"/>
      <point x="139" y="681"/>
      <point x="139" y="681" type="qcurve"/>
      <point x="139" y="681"/>
      <point x="139" y="681" type="qcurve"/>
      <point x="139" y="681"/>
      <point x="139" y="681" type="qcurve"/>
      <point x="139" y="681"/>
      <point x="139" y="681" type="qcurve"/>
      <point x="139" y="681"/>
      <point x="139" y="681" type="qcurve"/>
      <point x="138" y="681" type="line"/>
      <point x="138" y="681"/>
      <point x="138" y="681" type="qcurve"/>
      <point x="137" y="681" type="line"/>
      <point x="137" y="681"/>
      <point x="137" y="681" type="qcurve"/>
      <point x="137" y="681"/>
      <point x="137" y="681" type="qcurve"/>
      <point x="110" y="681" type="line" smooth="yes"/>
      <point x="95" y="681"/>
    </contour>
    <contour>
      <point x="132" y="681" type="qcurve"/>
      <point x="132" y="681"/>
      <point x="132" y="681" type="qcurve"/>
      <point x="132" y="681"/>
      <point x="132" y="681" type="qcurve"/>
      <point x="132" y="681"/>
    </contour>
  </outline>
</glyph>
<glyph name="paragraph" format="2">
  <advance width="833"/>
  <unicode hex="00B6"/>
  <outline>
    <contour>
      <point x="689" y="621" type="line"/>
      <point x="689" y="539" type="line"/>
      <point x="601" y="539" type="line"/>
      <point x="601" y="-173" type="line"/>
      <point x="512" y="-173" type="line"/>
      <point x="512" y="539" type="line"/>
      <point x="340" y="539" type="line"/>
      <point x="340" y="-173" type="line"/>
      <point x="251" y="-173" type="line"/>
      <point x="251" y="232" type="line"/>
      <point x="201" y="232"/>
      <point x="164" y="238" type="qcurve" smooth="yes"/>
      <point x="124" y="245"/>
      <point x="71" y="283"/>
      <point x="46" y="350"/>
      <point x="46" y="404" type="qcurve" smooth="yes"/>
      <point x="46" y="449" type="line" smooth="yes"/>
      <point x="46" y="503"/>
      <point x="71" y="570"/>
      <point x="124" y="608"/>
      <point x="205" y="621"/>
      <point x="260" y="621" type="qcurve" smooth="yes"/>
    </contour>
  </outline>
</glyph>
<glyph name="periodcentered" format="2">
  <advance width="162"/>
  <unicode hex="00B7"/>
  <outline>
    <contour>
      <point x="81" y="421" type="qcurve" smooth="yes"/>
      <point x="111" y="421"/>
      <point x="137" y="396"/>
      <point x="137" y="367" type="qcurve" smooth="yes"/>
      <point x="137" y="314"/>
      <point x="81" y="314" type="qcurve" smooth="yes"/>
      <point x="51" y="314"/>
      <point x="25" y="340"/>
      <point x="25" y="367" type="qcurve" smooth="yes"/>
      <point x="25" y="395"/>
      <point x="50" y="421"/>
    </contour>
  </outline>
</glyph>
<glyph name="cedilla" format="2">
  <advance width="280"/>
  <unicode hex="00B8"/>
  <outline>
    <contour>
      <point x="195" y="-20" type="qcurve" smooth="yes"/>
      <point x="207" y="-35"/>
      <point x="207" y="-57" type="qcurve" smooth="yes"/>
      <point x="207" y="-71"/>
      <point x="195" y="-102"/>
      <point x="184" y="-113" type="qcurve" smooth="yes"/>
      <point x="163" y="-133"/>
      <point x="113" y="-136"/>
      <point x="81" y="-133" type="qcurve"/>
      <point x="74" y="-109" type="line"/>
      <point x="79" y="-110"/>
      <point x="88" y="-111"/>
      <point x="92" y="-111" type="qcurve" smooth="yes"/>
      <point x="103" y="-111"/>
      <point x="118" y="-104"/>
      <point x="126" y="-97" type="qcurve"/>
      <point x="139" y="-82"/>
      <point x="139" y="-67" type="qcurve" smooth="yes"/>
      <point x="139" y="-57"/>
      <point x="130" y="-46" type="qcurve"/>
      <point x="121" y="-37"/>
      <point x="108" y="-37" type="qcurve"/>
      <point x="106" y="-37"/>
      <point x="101" y="-38"/>
      <point x="99" y="-38" type="qcurve"/>
      <point x="121" y="0" type="line"/>
      <point x="163" y="0" type="line"/>
      <point x="184" y="-6"/>
    </contour>
  </outline>
</glyph>
<glyph name="ordmasculine" format="2">
  <advance width="257"/>
  <unicode hex="00BA"/>
  <outline>
    <contour>
      <point x="65" y="644" type="qcurve"/>
      <point x="81" y="649"/>
      <point x="108" y="649" type="qcurve" smooth="yes"/>
      <point x="147" y="649" type="line" smooth="yes"/>
      <point x="174" y="649"/>
      <point x="190" y="644" type="qcurve"/>
      <point x="205" y="638"/>
      <point x="221" y="618"/>
      <point x="226" y="592"/>
      <point x="226" y="576" type="qcurve" smooth="yes"/>
      <point x="226" y="421" type="line" smooth="yes"/>
      <point x="226" y="405"/>
      <point x="221" y="379"/>
      <point x="205" y="359"/>
      <point x="190" y="353" type="qcurve"/>
      <point x="174" y="348"/>
      <point x="147" y="348" type="qcurve" smooth="yes"/>
      <point x="108" y="348" type="line" smooth="yes"/>
      <point x="81" y="348"/>
      <point x="65" y="353" type="qcurve"/>
      <point x="50" y="359"/>
      <point x="34" y="379"/>
      <point x="29" y="405"/>
      <point x="29" y="421" type="qcurve" smooth="yes"/>
      <point x="29" y="576" type="line" smooth="yes"/>
      <point x="29" y="592"/>
      <point x="34" y="618"/>
      <point x="50" y="638"/>
    </contour>
    <contour>
      <point x="82" y="401" type="qcurve"/>
      <point x="86" y="396"/>
      <point x="98" y="391"/>
      <point x="106" y="391" type="qcurve" smooth="yes"/>
      <point x="149" y="391" type="line" smooth="yes"/>
      <point x="157" y="391"/>
      <point x="169" y="396"/>
      <point x="176" y="407"/>
      <point x="176" y="416" type="qcurve" smooth="yes"/>
      <point x="176" y="581" type="line" smooth="yes"/>
      <point x="176" y="590"/>
      <point x="169" y="601"/>
      <point x="157" y="606"/>
      <point x="149" y="606" type="qcurve" smooth="yes"/>
      <point x="106" y="606" type="line" smooth="yes"/>
      <point x="98" y="606"/>
      <point x="86" y="601"/>
      <point x="79" y="590"/>
      <point x="79" y="581" type="qcurve" smooth="yes"/>
      <point x="79" y="416" type="line" smooth="yes"/>
      <point x="79" y="407"/>
    </contour>
  </outline>
</glyph>
<glyph name="guillemotright" format="2">
  <advance width="345"/>
  <unicode hex="00BB"/>
  <outline>
    <contour>
      <point x="27" y="217" type="line"/>
      <point x="92" y="346" type="line"/>
      <point x="27" y="473" type="line"/>
      <point x="107" y="473" type="line"/>
      <point x="184" y="346" type="line"/>
      <point x="107" y="217" type="line"/>
    </contour>
    <contour>
      <point x="167" y="217" type="line"/>
      <point x="232" y="346" type="line"/>
      <point x="167" y="473" type="line"/>
      <point x="247" y="473" type="line"/>
      <point x="324" y="346" type="line"/>
      <point x="247" y="217" type="line"/>
    </contour>
  </outline>
</glyph>
<glyph name="questiondown" format="2">
  <advance width="380"/>
  <unicode hex="00BF"/>
  <outline>
    <contour>
      <point x="216" y="545" type="qcurve" smooth="yes"/>
      <point x="160" y="545"/>
      <point x="160" y="598" type="qcurve" smooth="yes"/>
      <point x="160" y="627"/>
      <point x="186" y="651"/>
      <point x="216" y="651" type="qcurve" smooth="yes"/>
      <point x="246" y="651"/>
      <point x="272" y="627"/>
      <point x="272" y="598" type="qcurve" smooth="yes"/>
      <point x="272" y="545"/>
    </contour>
    <contour>
      <point x="272" y="491" type="line"/>
      <point x="272" y="435"/>
      <point x="252" y="365"/>
      <point x="222" y="323"/>
      <point x="186" y="302"/>
      <point x="170" y="294" type="qcurve" smooth="yes"/>
      <point x="153" y="286"/>
      <point x="129" y="270"/>
      <point x="127" y="253" type="qcurve" smooth="yes"/>
      <point x="126" y="245"/>
      <point x="125" y="208"/>
      <point x="125" y="190" type="qcurve" smooth="yes"/>
      <point x="125" y="165"/>
      <point x="128" y="121"/>
      <point x="131" y="114" type="qcurve"/>
      <point x="134" y="110"/>
      <point x="164" y="107"/>
      <point x="183" y="107" type="qcurve" smooth="yes"/>
      <point x="206" y="107"/>
      <point x="246" y="111"/>
      <point x="248" y="115" type="qcurve" smooth="yes"/>
      <point x="250" y="117"/>
      <point x="252" y="132"/>
      <point x="253" y="150"/>
      <point x="253" y="159" type="qcurve"/>
      <point x="253" y="159"/>
      <point x="253" y="159" type="qcurve"/>
      <point x="253" y="159"/>
      <point x="253" y="159" type="qcurve"/>
      <point x="253" y="159"/>
      <point x="253" y="159" type="qcurve"/>
      <point x="253" y="159"/>
      <point x="253" y="159" type="qcurve"/>
      <point x="253" y="159"/>
      <point x="253" y="160" type="qcurve"/>
      <point x="253" y="160"/>
      <point x="253" y="160" type="qcurve"/>
      <point x="253" y="160"/>
      <point x="253" y="160" type="qcurve"/>
      <point x="253" y="160"/>
      <point x="253" y="160" type="qcurve"/>
      <point x="253" y="160"/>
      <point x="253" y="160" type="qcurve"/>
      <point x="253" y="160"/>
      <point x="253" y="160" type="qcurve"/>
      <point x="253" y="160"/>
      <point x="253" y="161" type="qcurve"/>
      <point x="253" y="161"/>
      <point x="253" y="161" type="qcurve"/>
      <point x="253" y="161"/>
      <point x="253" y="161" type="qcurve"/>
      <point x="253" y="161"/>
      <point x="253" y="161" type="qcurve"/>
      <point x="253" y="162" type="line"/>
      <point x="253" y="162"/>
      <point x="253" y="162" type="qcurve"/>
      <point x="253" y="162"/>
      <point x="253" y="162" type="qcurve"/>
      <point x="253" y="162"/>
      <point x="253" y="162" type="qcurve"/>
      <point x="253" y="162"/>
      <point x="253" y="162" type="qcurve"/>
      <point x="253" y="162"/>
      <point x="253" y="162" type="qcurve"/>
      <point x="253" y="162"/>
      <point x="253" y="162" type="qcurve"/>
      <point x="253" y="162"/>
      <point x="253" y="163" type="qcurve"/>
      <point x="253" y="163"/>
      <point x="253" y="163" type="qcurve"/>
      <point x="253" y="164" type="line"/>
      <point x="253" y="164"/>
      <point x="253" y="164" type="qcurve"/>
      <point x="253" y="164"/>
      <point x="253" y="164" type="qcurve"/>
      <point x="253" y="164"/>
      <point x="253" y="164" type="qcurve"/>
      <point x="253" y="164"/>
      <point x="253" y="164" type="qcurve"/>
      <point x="253" y="164"/>
      <point x="253" y="164" type="qcurve"/>
      <point x="253" y="164"/>
      <point x="253" y="164" type="qcurve"/>
      <point x="253" y="164"/>
      <point x="253" y="164" type="qcurve"/>
      <point x="253" y="164"/>
      <point x="253" y="165" type="qcurve"/>
      <point x="253" y="165"/>
      <point x="253" y="165" type="qcurve"/>
      <point x="253" y="165"/>
      <point x="253" y="165" type="qcurve"/>
      <point x="253" y="165"/>
      <point x="253" y="165" type="qcurve"/>
      <point x="253" y="165"/>
      <point x="253" y="165" type="qcurve"/>
      <point x="253" y="165"/>
      <point x="253" y="165" type="qcurve"/>
      <point x="253" y="165"/>
      <point x="253" y="165" type="qcurve"/>
      <point x="253" y="165"/>
      <point x="253" y="165" type="qcurve"/>
      <point x="253" y="165"/>
      <point x="253" y="166" type="qcurve"/>
      <point x="253" y="166"/>
      <point x="253" y="166" type="qcurve"/>
      <point x="253" y="169" type="line"/>
      <point x="253" y="169"/>
      <point x="253" y="169" type="qcurve"/>
      <point x="253" y="169"/>
      <point x="253" y="169" type="qcurve"/>
      <point x="253" y="169"/>
      <point x="253" y="169" type="qcurve"/>
      <point x="253" y="170" type="line"/>
      <point x="366" y="170" type="line"/>
      <point x="366" y="125"/>
      <point x="348" y="61"/>
      <point x="307" y="19"/>
      <point x="239" y="0"/>
      <point x="189" y="0" type="qcurve" smooth="yes"/>
      <point x="139" y="0"/>
      <point x="72" y="19"/>
      <point x="31" y="59"/>
      <point x="14" y="121"/>
      <point x="14" y="165" type="qcurve" smooth="yes"/>
      <point x="14" y="235"/>
      <point x="30" y="318"/>
      <point x="56" y="362"/>
      <point x="88" y="378"/>
      <point x="104" y="382" type="qcurve" smooth="yes"/>
      <point x="114" y="385"/>
      <point x="135" y="393"/>
      <point x="150" y="415"/>
      <point x="160" y="456"/>
      <point x="160" y="491" type="qcurve"/>
    </contour>
    <contour>
      <point x="253" y="164" type="qcurve"/>
      <point x="253" y="164"/>
      <point x="253" y="164" type="qcurve"/>
      <point x="253" y="164"/>
      <point x="253" y="164" type="qcurve"/>
      <point x="253" y="164"/>
    </contour>
    <contour>
      <point x="253" y="163" type="qcurve"/>
      <point x="253" y="163"/>
      <point x="253" y="163" type="qcurve"/>
      <point x="253" y="163"/>
      <point x="253" y="163" type="qcurve"/>
      <point x="253" y="163"/>
    </contour>
    <contour>
      <point x="253" y="160" type="qcurve"/>
      <point x="253" y="160"/>
      <point x="253" y="160" type="qcurve"/>
      <point x="253" y="160"/>
      <point x="253" y="160" type="qcurve"/>
      <point x="253" y="160"/>
    </contour>
    <contour>
      <point x="253" y="159" type="qcurve"/>
      <point x="253" y="159"/>
      <point x="253" y="159" type="qcurve"/>
      <point x="253" y="159"/>
      <point x="253" y="159" type="qcurve"/>
      <point x="253" y="159"/>
    </contour>
    <contour>
      <point x="253" y="166" type="qcurve"/>
      <point x="253" y="166"/>
      <point x="253" y="166" type="qcurve"/>
      <point x="253" y="166"/>
      <point x="253" y="166" type="qcurve"/>
      <point x="253" y="166"/>
    </contour>
  </outline>
</glyph>
<glyph name="Aacute" format="2">
  <advance width="370"/>
  <unicode hex="00C1"/>
  <outline>
    <contour>
      <point x="246" y="0" type="line"/>
      <point x="246" y="128" type="line"/>
      <point x="119" y="128" type="line"/>
      <point x="119" y="0" type="line"/>
      <point x="8" y="0" type="line"/>
      <point x="8" y="139" type="line" smooth="yes"/>
      <point x="8" y="207"/>
      <point x="16" y="337"/>
      <point x="44" y="464"/>
      <point x="99" y="587"/>
      <point x="146" y="649" type="qcurve"/>
      <point x="218" y="649" type="line"/>
      <point x="266" y="587"/>
      <point x="321" y="463"/>
      <point x="350" y="337"/>
      <point x="358" y="207"/>
      <point x="358" y="139" type="qcurve" smooth="yes"/>
      <point x="358" y="0" type="line"/>
    </contour>
    <contour>
      <point x="245" y="233" type="line"/>
      <point x="243" y="266"/>
      <point x="234" y="337"/>
      <point x="218" y="407"/>
      <point x="196" y="474"/>
      <point x="182" y="504" type="qcurve"/>
      <point x="152" y="441"/>
      <point x="122" y="303"/>
      <point x="119" y="233" type="qcurve"/>
    </contour>
    <contour>
      <point x="131" y="682" type="qcurve"/>
      <point x="131" y="683"/>
      <point x="147" y="709"/>
      <point x="157" y="724" type="qcurve" smooth="yes"/>
      <point x="183" y="764" type="line"/>
      <point x="280" y="764" type="line"/>
      <point x="226" y="682" type="line"/>
      <point x="199" y="681"/>
      <point x="178" y="681" type="qcurve" smooth="yes"/>
      <point x="160" y="681"/>
      <point x="131" y="681"/>
    </contour>
  </outline>
</glyph>
<glyph name="Atilde" format="2">
  <advance width="370"/>
  <unicode hex="00C3"/>
  <outline>
    <contour>
      <point x="246" y="0" type="line"/>
      <point x="246" y="128" type="line"/>
      <point x="119" y="128" type="line"/>
      <point x="119" y="0" type="line"/>
      <point x="8" y="0" type="line"/>
      <point x="8" y="139" type="line" smooth="yes"/>
      <point x="8" y="207"/>
      <point x="16" y="337"/>
      <point x="44" y="464"/>
      <point x="99" y="587"/>
      <point x="146" y="649" type="qcurve"/>
      <point x="218" y="649" type="line"/>
      <point x="266" y="587"/>
      <point x="321" y="463"/>
      <point x="350" y="337"/>
      <point x="358" y="207"/>
      <point x="358" y="139" type="qcurve" smooth="yes"/>
      <point x="358" y="0" type="line"/>
    </contour>
    <contour>
      <point x="245" y="233" type="line"/>
      <point x="243" y="266"/>
      <point x="234" y="337"/>
      <point x="218" y="407"/>
      <point x="196" y="474"/>
      <point x="182" y="504" type="qcurve"/>
      <point x="152" y="441"/>
      <point x="122" y="303"/>
      <point x="119" y="233" type="qcurve"/>
    </contour>
    <contour>
      <point x="339" y="723" type="line"/>
      <point x="335" y="718" type="line" smooth="yes"/>
      <point x="304" y="681"/>
      <point x="268" y="672" type="qcurve" smooth="yes"/>
      <point x="263" y="671"/>
      <point x="254" y="671"/>
      <point x="249" y="671" type="qcurve" smooth="yes"/>
      <point x="212" y="671"/>
      <point x="169" y="700" type="qcurve"/>
      <point x="163" y="703"/>
      <point x="152" y="708"/>
      <point x="146" y="708" type="qcurve" smooth="yes"/>
      <point x="138" y="708"/>
      <point x="124" y="703"/>
      <point x="118" y="700" type="qcurve"/>
      <point x="111" y="695"/>
      <point x="102" y="686"/>
      <point x="98" y="682" type="qcurve" smooth="yes"/>
      <point x="90" y="674" type="line"/>
      <point x="86" y="669" type="line"/>
      <point x="82" y="672" type="line"/>
      <point x="41" y="709" type="line"/>
      <point x="44" y="715" type="line"/>
      <point x="46" y="717"/>
      <point x="69" y="744"/>
      <point x="89" y="755" type="qcurve"/>
      <point x="116" y="773"/>
      <point x="146" y="773" type="qcurve" smooth="yes"/>
      <point x="174" y="773"/>
      <point x="201" y="755" type="qcurve" smooth="yes"/>
      <point x="235" y="732"/>
      <point x="257" y="737" type="qcurve" smooth="yes"/>
      <point x="275" y="742"/>
      <point x="290" y="762" type="qcurve"/>
      <point x="293" y="767" type="line"/>
    </contour>
  </outline>
</glyph>
<glyph name="Ccedilla" format="2">
  <advance width="405"/>
  <unicode hex="00C7"/>
  <outline>
    <contour>
      <point x="268" y="202" type="line"/>
      <point x="379" y="202" type="line"/>
      <point x="379" y="154"/>
      <point x="369" y="78"/>
      <point x="337" y="27"/>
      <point x="275" y="0"/>
      <point x="223" y="0" type="qcurve" smooth="yes"/>
      <point x="219" y="0" type="line"/>
      <point x="245" y="-6"/>
      <point x="259" y="-21" type="qcurve" smooth="yes"/>
      <point x="273" y="-37"/>
      <point x="273" y="-58" type="qcurve" smooth="yes"/>
      <point x="273" y="-72"/>
      <point x="260" y="-103"/>
      <point x="247" y="-114" type="qcurve" smooth="yes"/>
      <point x="223" y="-134"/>
      <point x="184" y="-136"/>
      <point x="174" y="-136" type="qcurve" smooth="yes"/>
      <point x="153" y="-136"/>
      <point x="129" y="-134" type="qcurve"/>
      <point x="121" y="-110" type="line"/>
      <point x="127" y="-111"/>
      <point x="137" y="-112"/>
      <point x="142" y="-112" type="qcurve" smooth="yes"/>
      <point x="163" y="-112"/>
      <point x="180" y="-98" type="qcurve" smooth="yes"/>
      <point x="195" y="-85"/>
      <point x="195" y="-68" type="qcurve" smooth="yes"/>
      <point x="195" y="-57"/>
      <point x="185" y="-47" type="qcurve"/>
      <point x="174" y="-38"/>
      <point x="160" y="-38" type="qcurve"/>
      <point x="158" y="-38"/>
      <point x="152" y="-39"/>
      <point x="149" y="-39" type="qcurve"/>
      <point x="176" y="1" type="line"/>
      <point x="176" y="1"/>
      <point x="176" y="1" type="qcurve"/>
      <point x="176" y="1"/>
      <point x="176" y="1" type="qcurve"/>
      <point x="176" y="1"/>
      <point x="176" y="1" type="qcurve"/>
      <point x="176" y="1"/>
      <point x="175" y="1" type="qcurve"/>
      <point x="175" y="1"/>
      <point x="175" y="1" type="qcurve"/>
      <point x="175" y="1"/>
      <point x="175" y="1" type="qcurve"/>
      <point x="175" y="1"/>
      <point x="175" y="1" type="qcurve"/>
      <point x="175" y="1"/>
      <point x="175" y="1" type="qcurve"/>
      <point x="175" y="1"/>
      <point x="175" y="1" type="qcurve"/>
      <point x="175" y="1"/>
      <point x="175" y="1" type="qcurve"/>
      <point x="175" y="1"/>
      <point x="175" y="1" type="qcurve"/>
      <point x="175" y="1"/>
      <point x="175" y="1" type="qcurve"/>
      <point x="175" y="1"/>
      <point x="175" y="1" type="qcurve"/>
      <point x="175" y="1"/>
      <point x="175" y="1" type="qcurve"/>
      <point x="175" y="1"/>
      <point x="175" y="1" type="qcurve"/>
      <point x="174" y="1" type="line"/>
      <point x="174" y="1"/>
      <point x="174" y="1" type="qcurve"/>
      <point x="174" y="1"/>
      <point x="174" y="1" type="qcurve"/>
      <point x="173" y="1" type="line"/>
      <point x="103" y="1"/>
      <point x="29" y="83"/>
      <point x="29" y="165" type="qcurve" smooth="yes"/>
      <point x="29" y="484" type="line" smooth="yes"/>
      <point x="29" y="527"/>
      <point x="47" y="590"/>
      <point x="87" y="630"/>
      <point x="154" y="649"/>
      <point x="204" y="649" type="qcurve" smooth="yes"/>
      <point x="253" y="649"/>
      <point x="321" y="630"/>
      <point x="361" y="588"/>
      <point x="379" y="524"/>
      <point x="379" y="479" type="qcurve"/>
      <point x="268" y="479" type="line"/>
      <point x="268" y="501"/>
      <point x="266" y="527"/>
      <point x="254" y="540"/>
      <point x="228" y="543"/>
      <point x="204" y="543" type="qcurve" smooth="yes"/>
      <point x="180" y="543"/>
      <point x="154" y="541"/>
      <point x="143" y="529"/>
      <point x="141" y="505"/>
      <point x="141" y="484" type="qcurve" smooth="yes"/>
      <point x="141" y="288" type="line"/>
      <point x="141" y="288"/>
      <point x="141" y="288" type="qcurve"/>
      <point x="141" y="288"/>
      <point x="141" y="287" type="qcurve"/>
      <point x="141" y="287"/>
      <point x="141" y="287" type="qcurve"/>
      <point x="141" y="287"/>
      <point x="141" y="287" type="qcurve"/>
      <point x="141" y="287"/>
      <point x="141" y="287" type="qcurve"/>
      <point x="141" y="287"/>
      <point x="141" y="287" type="qcurve"/>
      <point x="141" y="286" type="line"/>
      <point x="141" y="286"/>
      <point x="141" y="286" type="qcurve"/>
      <point x="141" y="286"/>
      <point x="141" y="286" type="qcurve"/>
      <point x="141" y="286"/>
      <point x="141" y="286" type="qcurve"/>
      <point x="141" y="286"/>
      <point x="141" y="286" type="qcurve"/>
      <point x="141" y="286"/>
      <point x="141" y="286" type="qcurve"/>
      <point x="141" y="286"/>
      <point x="141" y="286" type="qcurve"/>
      <point x="141" y="285" type="line"/>
      <point x="141" y="285"/>
      <point x="141" y="285" type="qcurve"/>
      <point x="141" y="285"/>
      <point x="141" y="285" type="qcurve"/>
      <point x="141" y="285"/>
      <point x="141" y="285" type="qcurve"/>
      <point x="141" y="285"/>
      <point x="141" y="285" type="qcurve"/>
      <point x="141" y="285"/>
      <point x="141" y="285" type="qcurve"/>
      <point x="141" y="285"/>
      <point x="141" y="285" type="qcurve"/>
      <point x="141" y="277" type="line"/>
      <point x="141" y="277"/>
      <point x="141" y="277" type="qcurve"/>
      <point x="141" y="277"/>
      <point x="141" y="277" type="qcurve"/>
      <point x="141" y="277"/>
      <point x="141" y="277" type="qcurve"/>
      <point x="141" y="277"/>
      <point x="141" y="277" type="qcurve"/>
      <point x="141" y="277"/>
      <point x="141" y="277" type="qcurve"/>
      <point x="141" y="277"/>
      <point x="141" y="277" type="qcurve"/>
      <point x="141" y="273" type="line"/>
      <point x="141" y="273"/>
      <point x="141" y="273" type="qcurve"/>
      <point x="141" y="273"/>
      <point x="141" y="273" type="qcurve"/>
      <point x="141" y="273"/>
      <point x="141" y="273" type="qcurve"/>
      <point x="141" y="273"/>
      <point x="141" y="273" type="qcurve"/>
      <point x="141" y="273"/>
      <point x="141" y="273" type="qcurve"/>
      <point x="141" y="273"/>
      <point x="141" y="273" type="qcurve"/>
      <point x="141" y="269" type="line"/>
      <point x="141" y="269"/>
      <point x="141" y="269" type="qcurve"/>
      <point x="141" y="269"/>
      <point x="141" y="269" type="qcurve"/>
      <point x="141" y="269"/>
      <point x="141" y="269" type="qcurve"/>
      <point x="141" y="269"/>
      <point x="141" y="269" type="qcurve"/>
      <point x="141" y="269"/>
      <point x="141" y="269" type="qcurve"/>
      <point x="141" y="269"/>
      <point x="141" y="269" type="qcurve"/>
      <point x="141" y="265" type="line"/>
      <point x="141" y="265"/>
      <point x="141" y="265" type="qcurve"/>
      <point x="141" y="265"/>
      <point x="141" y="265" type="qcurve"/>
      <point x="141" y="265"/>
      <point x="141" y="265" type="qcurve"/>
      <point x="141" y="265"/>
      <point x="141" y="265" type="qcurve"/>
      <point x="141" y="265"/>
      <point x="141" y="265" type="qcurve"/>
      <point x="141" y="265"/>
      <point x="141" y="265" type="qcurve"/>
      <point x="141" y="261" type="line"/>
      <point x="141" y="261"/>
      <point x="141" y="261" type="qcurve"/>
      <point x="141" y="261"/>
      <point x="141" y="261" type="qcurve"/>
      <point x="141" y="261"/>
      <point x="141" y="261" type="qcurve"/>
      <point x="141" y="261"/>
      <point x="141" y="261" type="qcurve"/>
      <point x="141" y="261"/>
      <point x="141" y="261" type="qcurve"/>
      <point x="141" y="261"/>
      <point x="141" y="261" type="qcurve"/>
      <point x="141" y="224" type="line" smooth="yes"/>
      <point x="141" y="188"/>
      <point x="142" y="143" type="qcurve"/>
      <point x="144" y="126"/>
      <point x="187" y="110"/>
      <point x="212" y="110" type="qcurve" smooth="yes"/>
      <point x="240" y="110"/>
      <point x="257" y="117" type="qcurve"/>
      <point x="265" y="119"/>
      <point x="270" y="145"/>
      <point x="270" y="159" type="qcurve" smooth="yes"/>
      <point x="270" y="167"/>
      <point x="269" y="182"/>
      <point x="268" y="188" type="qcurve"/>
    </contour>
    <contour>
      <point x="141" y="286" type="qcurve"/>
      <point x="141" y="286"/>
      <point x="141" y="286" type="qcurve"/>
      <point x="141" y="286"/>
      <point x="141" y="286" type="qcurve"/>
      <point x="141" y="286"/>
    </contour>
    <contour>
      <point x="176" y="1" type="qcurve"/>
      <point x="176" y="1"/>
      <point x="176" y="1" type="qcurve"/>
      <point x="176" y="1"/>
      <point x="176" y="1" type="qcurve"/>
      <point x="176" y="1"/>
    </contour>
  </outline>
</glyph>
<glyph name="Iacute" format="2">
  <advance width="169"/>
  <unicode hex="00CD"/>
  <outline>
    <contour>
      <point x="28" y="647" type="line"/>
      <point x="141" y="647" type="line"/>
      <point x="141" y="0" type="line"/>
      <point x="28" y="0" type="line"/>
    </contour>
    <contour>
      <point x="32" y="682" type="qcurve"/>
      <point x="32" y="683"/>
      <point x="48" y="709"/>
      <point x="58" y="724" type="qcurve" smooth="yes"/>
      <point x="84" y="764" type="line"/>
      <point x="181" y="764" type="line"/>
      <point x="127" y="683" type="line"/>
      <point x="100" y="682"/>
      <point x="79" y="682" type="qcurve"/>
      <point x="61" y="681"/>
      <point x="32" y="681"/>
    </contour>
  </outline>
</glyph>
<glyph name="Idieresis" format="2">
  <advance width="169"/>
  <unicode hex="00CF"/>
  <outline>
    <contour>
      <point x="111" y="766" type="line"/>
      <point x="207" y="766" type="line"/>
      <point x="206" y="685" type="line"/>
      <point x="179" y="684"/>
      <point x="158" y="684" type="qcurve" smooth="yes"/>
      <point x="155" y="684" type="line"/>
      <point x="155" y="684"/>
      <point x="155" y="684" type="qcurve"/>
      <point x="155" y="684"/>
      <point x="155" y="684" type="qcurve"/>
      <point x="155" y="684"/>
      <point x="154" y="684" type="qcurve"/>
      <point x="154" y="684"/>
      <point x="154" y="684" type="qcurve"/>
      <point x="154" y="684"/>
      <point x="154" y="684" type="qcurve"/>
      <point x="154" y="684"/>
      <point x="154" y="684" type="qcurve"/>
      <point x="154" y="684"/>
      <point x="154" y="684" type="qcurve"/>
      <point x="154" y="684"/>
      <point x="154" y="684" type="qcurve"/>
      <point x="154" y="684"/>
      <point x="154" y="684" type="qcurve"/>
      <point x="154" y="684"/>
      <point x="154" y="684" type="qcurve"/>
      <point x="154" y="684"/>
      <point x="153" y="684" type="qcurve"/>
      <point x="153" y="684"/>
      <point x="153" y="684" type="qcurve"/>
      <point x="152" y="684" type="line"/>
      <point x="152" y="684"/>
      <point x="152" y="684" type="qcurve"/>
      <point x="152" y="684"/>
      <point x="152" y="684" type="qcurve"/>
      <point x="152" y="684"/>
      <point x="151" y="684" type="qcurve"/>
      <point x="151" y="684"/>
      <point x="151" y="684" type="qcurve"/>
      <point x="151" y="684"/>
      <point x="151" y="684" type="qcurve"/>
      <point x="151" y="684"/>
      <point x="151" y="684" type="qcurve"/>
      <point x="150" y="684" type="line"/>
      <point x="150" y="684"/>
      <point x="150" y="684" type="qcurve"/>
      <point x="150" y="684"/>
      <point x="150" y="684" type="qcurve"/>
      <point x="150" y="684"/>
      <point x="150" y="684" type="qcurve"/>
      <point x="150" y="684"/>
      <point x="150" y="684" type="qcurve"/>
      <point x="150" y="684"/>
      <point x="150" y="684" type="qcurve"/>
      <point x="150" y="684"/>
      <point x="150" y="684" type="qcurve"/>
      <point x="150" y="684"/>
      <point x="150" y="684" type="qcurve"/>
      <point x="150" y="684"/>
      <point x="149" y="684" type="qcurve"/>
      <point x="149" y="684"/>
      <point x="149" y="684" type="qcurve"/>
      <point x="149" y="684"/>
      <point x="149" y="684" type="qcurve"/>
      <point x="149" y="684"/>
      <point x="149" y="684" type="qcurve"/>
      <point x="149" y="684"/>
      <point x="149" y="684" type="qcurve"/>
      <point x="148" y="684" type="line"/>
      <point x="148" y="684"/>
      <point x="148" y="684" type="qcurve"/>
      <point x="148" y="684"/>
      <point x="148" y="684" type="qcurve"/>
      <point x="148" y="684"/>
      <point x="148" y="684" type="qcurve"/>
      <point x="148" y="684"/>
      <point x="148" y="684" type="qcurve"/>
      <point x="148" y="684"/>
      <point x="147" y="684" type="qcurve"/>
      <point x="147" y="684"/>
      <point x="147" y="684" type="qcurve"/>
      <point x="147" y="684"/>
      <point x="147" y="684" type="qcurve"/>
      <point x="147" y="684"/>
      <point x="147" y="684" type="qcurve"/>
      <point x="146" y="684" type="line"/>
      <point x="146" y="684"/>
      <point x="146" y="684" type="qcurve"/>
      <point x="146" y="684"/>
      <point x="146" y="684" type="qcurve"/>
      <point x="146" y="684"/>
      <point x="146" y="684" type="qcurve"/>
      <point x="146" y="684"/>
      <point x="146" y="684" type="qcurve"/>
      <point x="146" y="684"/>
      <point x="146" y="684" type="qcurve"/>
      <point x="146" y="684"/>
      <point x="146" y="684" type="qcurve"/>
      <point x="146" y="684"/>
      <point x="145" y="684" type="qcurve"/>
      <point x="145" y="684"/>
      <point x="145" y="684" type="qcurve"/>
      <point x="142" y="684" type="line"/>
      <point x="142" y="684"/>
      <point x="142" y="684" type="qcurve"/>
      <point x="142" y="684"/>
      <point x="142" y="684" type="qcurve"/>
      <point x="142" y="684"/>
      <point x="142" y="684" type="qcurve"/>
      <point x="142" y="684"/>
      <point x="142" y="684" type="qcurve"/>
      <point x="142" y="684"/>
      <point x="142" y="684" type="qcurve"/>
      <point x="142" y="684"/>
      <point x="142" y="684" type="qcurve"/>
      <point x="142" y="684"/>
      <point x="142" y="684" type="qcurve"/>
      <point x="142" y="684"/>
      <point x="141" y="684" type="qcurve"/>
      <point x="141" y="684"/>
      <point x="141" y="684" type="qcurve"/>
      <point x="130" y="684" type="line"/>
      <point x="130" y="684"/>
      <point x="130" y="684" type="qcurve"/>
      <point x="130" y="684"/>
      <point x="130" y="684" type="qcurve"/>
      <point x="130" y="684"/>
      <point x="130" y="684" type="qcurve"/>
      <point x="130" y="684"/>
      <point x="130" y="684" type="qcurve"/>
      <point x="130" y="684"/>
      <point x="129" y="684" type="qcurve"/>
      <point x="129" y="684"/>
      <point x="129" y="684" type="qcurve"/>
      <point x="126" y="684" type="line" smooth="yes"/>
      <point x="111" y="684"/>
      <point x="111" y="685" type="qcurve"/>
    </contour>
    <contour>
      <point x="-36" y="764" type="line"/>
      <point x="60" y="764" type="line"/>
      <point x="59" y="683" type="line"/>
      <point x="32" y="682"/>
      <point x="11" y="682" type="qcurve"/>
      <point x="-7" y="681"/>
      <point x="-36" y="681"/>
      <point x="-36" y="682" type="qcurve"/>
    </contour>
    <contour>
      <point x="28" y="647" type="line"/>
      <point x="141" y="647" type="line"/>
      <point x="141" y="0" type="line"/>
      <point x="28" y="0" type="line"/>
    </contour>
  </outline>
</glyph>
<glyph name="Ntilde" format="2">
  <advance width="446"/>
  <unicode hex="00D1"/>
  <outline>
    <contour>
      <point x="375" y="725" type="line"/>
      <point x="371" y="720" type="line" smooth="yes"/>
      <point x="340" y="683"/>
      <point x="304" y="674" type="qcurve" smooth="yes"/>
      <point x="299" y="673"/>
      <point x="295" y="673" type="qcurve"/>
      <point x="293" y="673" type="line"/>
      <point x="293" y="673"/>
      <point x="293" y="673" type="qcurve"/>
      <point x="293" y="673"/>
      <point x="293" y="673" type="qcurve"/>
      <point x="285" y="673" type="line" smooth="yes"/>
      <point x="248" y="673"/>
      <point x="205" y="702" type="qcurve"/>
      <point x="199" y="705"/>
      <point x="188" y="710"/>
      <point x="182" y="710" type="qcurve" smooth="yes"/>
      <point x="174" y="710"/>
      <point x="160" y="705"/>
      <point x="154" y="702" type="qcurve"/>
      <point x="147" y="697"/>
      <point x="143" y="693" type="qcurve" smooth="yes"/>
      <point x="122" y="671" type="line"/>
      <point x="77" y="711" type="line"/>
      <point x="80" y="717" type="line"/>
      <point x="82" y="719"/>
      <point x="105" y="746"/>
      <point x="125" y="757" type="qcurve"/>
      <point x="152" y="775"/>
      <point x="182" y="775" type="qcurve" smooth="yes"/>
      <point x="210" y="775"/>
      <point x="237" y="757" type="qcurve" smooth="yes"/>
      <point x="265" y="738"/>
      <point x="285" y="738" type="qcurve" smooth="yes"/>
      <point x="289" y="738"/>
      <point x="293" y="739" type="qcurve" smooth="yes"/>
      <point x="311" y="744"/>
      <point x="326" y="764" type="qcurve"/>
      <point x="329" y="769" type="line"/>
    </contour>
    <contour>
      <point x="413" y="0" type="line"/>
      <point x="301" y="0" type="line"/>
      <point x="140" y="368" type="line"/>
      <point x="140" y="0" type="line"/>
      <point x="29" y="0" type="line"/>
      <point x="29" y="649" type="line"/>
      <point x="139" y="649" type="line"/>
      <point x="300" y="281" type="line"/>
      <point x="300" y="649" type="line"/>
      <point x="413" y="649" type="line"/>
    </contour>
  </outline>
</glyph>
<glyph name="Ograve" format="2">
  <advance width="402"/>
  <unicode hex="00D2"/>
  <outline>
    <contour>
      <point x="165" y="680" type="qcurve"/>
      <point x="165" y="681"/>
      <point x="145" y="707"/>
      <point x="134" y="722" type="qcurve" smooth="yes"/>
      <point x="120" y="740"/>
      <point x="103" y="762" type="qcurve"/>
      <point x="200" y="762" type="line"/>
      <point x="260" y="681" type="line"/>
      <point x="233" y="680"/>
      <point x="212" y="680" type="qcurve"/>
      <point x="194" y="679"/>
      <point x="165" y="679"/>
    </contour>
    <contour>
      <point x="374" y="197" type="line" smooth="yes"/>
      <point x="374" y="148"/>
      <point x="364" y="74"/>
      <point x="328" y="25"/>
      <point x="259" y="0"/>
      <point x="199" y="0" type="qcurve" smooth="yes"/>
      <point x="151" y="0"/>
      <point x="85" y="18"/>
      <point x="43" y="57"/>
      <point x="25" y="120"/>
      <point x="25" y="165" type="qcurve" smooth="yes"/>
      <point x="25" y="484" type="line" smooth="yes"/>
      <point x="25" y="529"/>
      <point x="43" y="592"/>
      <point x="85" y="631"/>
      <point x="151" y="649"/>
      <point x="199" y="649" type="qcurve" smooth="yes"/>
      <point x="247" y="649"/>
      <point x="314" y="631"/>
      <point x="355" y="592"/>
      <point x="374" y="529"/>
      <point x="374" y="484" type="qcurve" smooth="yes"/>
    </contour>
    <contour>
      <point x="137" y="192" type="line"/>
      <point x="137" y="167"/>
      <point x="141" y="134"/>
      <point x="154" y="115"/>
      <point x="179" y="108"/>
      <point x="201" y="108" type="qcurve" smooth="yes"/>
      <point x="223" y="108"/>
      <point x="248" y="119"/>
      <point x="260" y="142"/>
      <point x="262" y="175"/>
      <point x="262" y="197" type="qcurve" smooth="yes"/>
      <point x="262" y="484" type="line" smooth="yes"/>
      <point x="262" y="505"/>
      <point x="259" y="529"/>
      <point x="247" y="541"/>
      <point x="221" y="543"/>
      <point x="199" y="543" type="qcurve" smooth="yes"/>
      <point x="176" y="543"/>
      <point x="150" y="538"/>
      <point x="138" y="525"/>
      <point x="135" y="502"/>
      <point x="135" y="484" type="qcurve"/>
    </contour>
  </outline>
</glyph>
<glyph name="Oacute" format="2">
  <advance width="402"/>
  <unicode hex="00D3"/>
  <outline>
    <contour>
      <point x="136" y="682" type="qcurve"/>
      <point x="136" y="683"/>
      <point x="152" y="709"/>
      <point x="162" y="724" type="qcurve" smooth="yes"/>
      <point x="188" y="764" type="line"/>
      <point x="285" y="764" type="line"/>
      <point x="231" y="683" type="line"/>
      <point x="204" y="682"/>
      <point x="183" y="682" type="qcurve"/>
      <point x="165" y="681"/>
      <point x="136" y="681"/>
    </contour>
    <contour>
      <point x="374" y="197" type="line" smooth="yes"/>
      <point x="374" y="148"/>
      <point x="364" y="74"/>
      <point x="328" y="25"/>
      <point x="259" y="0"/>
      <point x="199" y="0" type="qcurve" smooth="yes"/>
      <point x="151" y="0"/>
      <point x="85" y="18"/>
      <point x="43" y="57"/>
      <point x="25" y="120"/>
      <point x="25" y="165" type="qcurve" smooth="yes"/>
      <point x="25" y="484" type="line" smooth="yes"/>
      <point x="25" y="529"/>
      <point x="43" y="592"/>
      <point x="85" y="631"/>
      <point x="151" y="649"/>
      <point x="199" y="649" type="qcurve" smooth="yes"/>
      <point x="247" y="649"/>
      <point x="314" y="631"/>
      <point x="355" y="592"/>
      <point x="374" y="529"/>
      <point x="374" y="484" type="qcurve" smooth="yes"/>
    </contour>
    <contour>
      <point x="137" y="192" type="line"/>
      <point x="137" y="167"/>
      <point x="141" y="134"/>
      <point x="154" y="115"/>
      <point x="179" y="108"/>
      <point x="201" y="108" type="qcurve" smooth="yes"/>
      <point x="223" y="108"/>
      <point x="248" y="119"/>
      <point x="260" y="142"/>
      <point x="262" y="175"/>
      <point x="262" y="197" type="qcurve" smooth="yes"/>
      <point x="262" y="484" type="line" smooth="yes"/>
      <point x="262" y="505"/>
      <point x="259" y="529"/>
      <point x="247" y="541"/>
      <point x="221" y="543"/>
      <point x="199" y="543" type="qcurve" smooth="yes"/>
      <point x="176" y="543"/>
      <point x="150" y="538"/>
      <point x="138" y="525"/>
      <point x="135" y="502"/>
      <point x="135" y="484" type="qcurve"/>
    </contour>
  </outline>
</glyph>
<glyph name="Odieresis" format="2">
  <advance width="402"/>
  <unicode hex="00D6"/>
  <outline>
    <contour>
      <point x="234" y="766" type="line"/>
      <point x="330" y="766" type="line"/>
      <point x="329" y="685" type="line"/>
      <point x="302" y="684"/>
      <point x="281" y="684" type="qcurve" smooth="yes"/>
      <point x="278" y="684" type="line"/>
      <point x="276" y="684"/>
      <point x="274" y="684" type="qcurve"/>
      <point x="273" y="684" type="line"/>
      <point x="273" y="684"/>
      <point x="272" y="684" type="qcurve"/>
      <point x="271" y="684" type="line"/>
      <point x="271" y="684"/>
      <point x="270" y="684" type="qcurve"/>
      <point x="269" y="684" type="line"/>
      <point x="269" y="684"/>
      <point x="268" y="684" type="qcurve"/>
      <point x="265" y="684" type="line"/>
      <point x="265" y="684"/>
      <point x="264" y="684" type="qcurve"/>
      <point x="253" y="684" type="line"/>
      <point x="252" y="684"/>
      <point x="251" y="684" type="qcurve"/>
      <point x="249" y="684" type="line"/>
      <point x="234" y="684"/>
      <point x="234" y="685" type="qcurve"/>
    </contour>
    <contour>
      <point x="78" y="764" type="line"/>
      <point x="174" y="764" type="line"/>
      <point x="173" y="683" type="line"/>
      <point x="146" y="682"/>
      <point x="125" y="682" type="qcurve"/>
      <point x="107" y="681"/>
      <point x="78" y="681"/>
      <point x="78" y="682" type="qcurve"/>
    </contour>
    <contour>
      <point x="374" y="197" type="line" smooth="yes"/>
      <point x="374" y="148"/>
      <point x="364" y="74"/>
      <point x="328" y="25"/>
      <point x="259" y="0"/>
      <point x="199" y="0" type="qcurve" smooth="yes"/>
      <point x="151" y="0"/>
      <point x="85" y="18"/>
      <point x="43" y="57"/>
      <point x="25" y="120"/>
      <point x="25" y="165" type="qcurve" smooth="yes"/>
      <point x="25" y="484" type="line" smooth="yes"/>
      <point x="25" y="529"/>
      <point x="43" y="592"/>
      <point x="85" y="631"/>
      <point x="151" y="649"/>
      <point x="199" y="649" type="qcurve" smooth="yes"/>
      <point x="247" y="649"/>
      <point x="314" y="631"/>
      <point x="355" y="592"/>
      <point x="374" y="529"/>
      <point x="374" y="484" type="qcurve" smooth="yes"/>
    </contour>
    <contour>
      <point x="137" y="192" type="line"/>
      <point x="137" y="167"/>
      <point x="141" y="134"/>
      <point x="154" y="115"/>
      <point x="179" y="108"/>
      <point x="201" y="108" type="qcurve" smooth="yes"/>
      <point x="223" y="108"/>
      <point x="248" y="119"/>
      <point x="260" y="142"/>
      <point x="262" y="175"/>
      <point x="262" y="197" type="qcurve" smooth="yes"/>
      <point x="262" y="484" type="line" smooth="yes"/>
      <point x="262" y="505"/>
      <point x="259" y="529"/>
      <point x="247" y="541"/>
      <point x="221" y="543"/>
      <point x="199" y="543" type="qcurve" smooth="yes"/>
      <point x="176" y="543"/>
      <point x="150" y="538"/>
      <point x="138" y="525"/>
      <point x="135" y="502"/>
      <point x="135" y="484" type="qcurve"/>
    </contour>
  </outline>
</glyph>
<glyph name="multiply" format="2">
  <advance width="405"/>
  <unicode hex="00D7"/>
  <outline>
    <contour>
      <point x="377" y="473" type="line"/>
      <point x="261" y="357" type="line"/>
      <point x="377" y="241" type="line"/>
      <point x="319" y="184" type="line"/>
      <point x="203" y="300" type="line"/>
      <point x="87" y="184" type="line"/>
      <point x="30" y="241" type="line"/>
      <point x="146" y="357" type="line"/>
      <point x="30" y="473" type="line"/>
      <point x="87" y="531" type="line"/>
      <point x="203" y="415" type="line"/>
      <point x="319" y="531" type="line"/>
    </contour>
  </outline>
</glyph>
<glyph name="Uacute" format="2">
  <advance width="401"/>
  <unicode hex="00DA"/>
  <outline>
    <contour>
      <point x="137" y="648" type="line"/>
      <point x="140" y="165" type="line"/>
      <point x="140" y="160" type="line" smooth="yes"/>
      <point x="140" y="152"/>
      <point x="141" y="132"/>
      <point x="144" y="125" type="qcurve"/>
      <point x="143" y="125" type="line"/>
      <point x="148" y="117"/>
      <point x="182" y="107"/>
      <point x="202" y="107" type="qcurve" smooth="yes"/>
      <point x="223" y="107"/>
      <point x="260" y="120"/>
      <point x="262" y="131" type="qcurve"/>
      <point x="263" y="154"/>
      <point x="264" y="625"/>
      <point x="264" y="648" type="qcurve"/>
      <point x="375" y="648" type="line"/>
      <point x="375" y="197" type="line" smooth="yes"/>
      <point x="375" y="150"/>
      <point x="366" y="76"/>
      <point x="332" y="26"/>
      <point x="261" y="0"/>
      <point x="200" y="0" type="qcurve" smooth="yes"/>
      <point x="150" y="0"/>
      <point x="83" y="18"/>
      <point x="43" y="58"/>
      <point x="25" y="121"/>
      <point x="25" y="165" type="qcurve" smooth="yes"/>
      <point x="25" y="648" type="line"/>
    </contour>
    <contour>
      <point x="140" y="682" type="qcurve"/>
      <point x="140" y="683"/>
      <point x="156" y="709"/>
      <point x="166" y="724" type="qcurve" smooth="yes"/>
      <point x="192" y="764" type="line"/>
      <point x="289" y="764" type="line"/>
      <point x="235" y="683" type="line"/>
      <point x="208" y="682"/>
      <point x="187" y="682" type="qcurve"/>
      <point x="169" y="681"/>
      <point x="140" y="681"/>
    </contour>
  </outline>
</glyph>
<glyph name="Udieresis" format="2">
  <advance width="401"/>
  <unicode hex="00DC"/>
  <outline>
    <contour>
      <point x="223" y="765" type="line"/>
      <point x="319" y="765" type="line"/>
      <point x="318" y="684" type="line"/>
      <point x="291" y="683"/>
      <point x="270" y="683" type="qcurve" smooth="yes"/>
      <point x="267" y="683" type="line"/>
      <point x="267" y="683"/>
      <point x="267" y="683" type="qcurve"/>
      <point x="266" y="683" type="line"/>
      <point x="265" y="683"/>
      <point x="264" y="683" type="qcurve"/>
      <point x="261" y="683" type="line"/>
      <point x="260" y="683"/>
      <point x="259" y="683" type="qcurve"/>
      <point x="258" y="683" type="line"/>
      <point x="258" y="683"/>
      <point x="257" y="683" type="qcurve"/>
      <point x="254" y="683" type="line"/>
      <point x="253" y="683"/>
      <point x="253" y="683" type="qcurve"/>
      <point x="238" y="683" type="line" smooth="yes"/>
      <point x="223" y="683"/>
      <point x="223" y="684" type="qcurve"/>
    </contour>
    <contour>
      <point x="70" y="763" type="line"/>
      <point x="166" y="763" type="line"/>
      <point x="165" y="682" type="line"/>
      <point x="138" y="681"/>
      <point x="117" y="681" type="qcurve"/>
      <point x="99" y="680"/>
      <point x="70" y="680"/>
      <point x="70" y="681" type="qcurve"/>
    </contour>
    <contour>
      <point x="137" y="648" type="line"/>
      <point x="140" y="165" type="line"/>
      <point x="140" y="160" type="line" smooth="yes"/>
      <point x="140" y="152"/>
      <point x="141" y="132"/>
      <point x="144" y="125" type="qcurve"/>
      <point x="143" y="125" type="line"/>
      <point x="148" y="117"/>
      <point x="182" y="107"/>
      <point x="202" y="107" type="qcurve" smooth="yes"/>
      <point x="223" y="107"/>
      <point x="260" y="120"/>
      <point x="262" y="131" type="qcurve"/>
      <point x="263" y="154"/>
      <point x="265" y="492"/>
      <point x="265" y="552" type="qcurve" smooth="yes"/>
      <point x="265" y="582"/>
      <point x="264" y="625"/>
      <point x="264" y="648" type="qcurve"/>
      <point x="375" y="648" type="line"/>
      <point x="375" y="197" type="line" smooth="yes"/>
      <point x="375" y="150"/>
      <point x="366" y="76"/>
      <point x="332" y="26"/>
      <point x="261" y="0"/>
      <point x="200" y="0" type="qcurve" smooth="yes"/>
      <point x="150" y="0"/>
      <point x="83" y="18"/>
      <point x="43" y="58"/>
      <point x="25" y="121"/>
      <point x="25" y="165" type="qcurve" smooth="yes"/>
      <point x="25" y="648" type="line"/>
    </contour>
  </outline>
</glyph>
<glyph name="agrave" format="2">
  <advance width="370"/>
  <unicode hex="00E0"/>
  <outline>
    <contour>
      <point x="212" y="766" type="line"/>
      <point x="308" y="766" type="line"/>
      <point x="308" y="685" type="line"/>
      <point x="281" y="684"/>
      <point x="260" y="684" type="qcurve" smooth="yes"/>
      <point x="257" y="684" type="line"/>
      <point x="257" y="684"/>
      <point x="257" y="684" type="qcurve"/>
      <point x="257" y="684"/>
      <point x="257" y="684" type="qcurve"/>
      <point x="257" y="684"/>
      <point x="257" y="684" type="qcurve"/>
      <point x="257" y="684"/>
      <point x="257" y="684" type="qcurve"/>
      <point x="257" y="684"/>
      <point x="257" y="684" type="qcurve"/>
      <point x="257" y="684"/>
      <point x="257" y="684" type="qcurve"/>
      <point x="257" y="684"/>
      <point x="256" y="684" type="qcurve"/>
      <point x="256" y="684"/>
      <point x="256" y="684" type="qcurve"/>
      <point x="256" y="684"/>
      <point x="256" y="684" type="qcurve"/>
      <point x="256" y="684"/>
      <point x="256" y="684" type="qcurve"/>
      <point x="256" y="684"/>
      <point x="256" y="684" type="qcurve"/>
      <point x="256" y="684"/>
      <point x="256" y="684" type="qcurve"/>
      <point x="256" y="684"/>
      <point x="255" y="684" type="qcurve"/>
      <point x="255" y="684"/>
      <point x="255" y="684" type="qcurve"/>
      <point x="254" y="684" type="line"/>
      <point x="254" y="684"/>
      <point x="254" y="684" type="qcurve"/>
      <point x="254" y="684"/>
      <point x="254" y="684" type="qcurve"/>
      <point x="254" y="684"/>
      <point x="254" y="684" type="qcurve"/>
      <point x="254" y="684"/>
      <point x="254" y="684" type="qcurve"/>
      <point x="254" y="684"/>
      <point x="254" y="684" type="qcurve"/>
      <point x="254" y="684"/>
      <point x="254" y="684" type="qcurve"/>
      <point x="254" y="684"/>
      <point x="253" y="684" type="qcurve"/>
      <point x="253" y="684"/>
      <point x="253" y="684" type="qcurve"/>
      <point x="253" y="684"/>
      <point x="253" y="684" type="qcurve"/>
      <point x="253" y="684"/>
      <point x="253" y="684" type="qcurve"/>
      <point x="252" y="684" type="line"/>
      <point x="252" y="684"/>
      <point x="252" y="684" type="qcurve"/>
      <point x="252" y="684"/>
      <point x="252" y="684" type="qcurve"/>
      <point x="252" y="684"/>
      <point x="252" y="684" type="qcurve"/>
      <point x="252" y="684"/>
      <point x="252" y="684" type="qcurve"/>
      <point x="252" y="684"/>
      <point x="252" y="684" type="qcurve"/>
      <point x="252" y="684"/>
      <point x="252" y="684" type="qcurve"/>
      <point x="252" y="684"/>
      <point x="252" y="684" type="qcurve"/>
      <point x="252" y="684"/>
      <point x="251" y="684" type="qcurve"/>
      <point x="251" y="684"/>
      <point x="251" y="684" type="qcurve"/>
      <point x="251" y="684"/>
      <point x="251" y="684" type="qcurve"/>
      <point x="251" y="684"/>
      <point x="251" y="684" type="qcurve"/>
      <point x="251" y="684"/>
      <point x="251" y="684" type="qcurve"/>
      <point x="250" y="684" type="line"/>
      <point x="250" y="684"/>
      <point x="250" y="684" type="qcurve"/>
      <point x="250" y="684"/>
      <point x="250" y="684" type="qcurve"/>
      <point x="250" y="684"/>
      <point x="250" y="684" type="qcurve"/>
      <point x="250" y="684"/>
      <point x="250" y="684" type="qcurve"/>
      <point x="250" y="684"/>
      <point x="250" y="684" type="qcurve"/>
      <point x="250" y="684"/>
      <point x="250" y="684" type="qcurve"/>
      <point x="250" y="684"/>
      <point x="250" y="684" type="qcurve"/>
      <point x="250" y="684"/>
      <point x="249" y="684" type="qcurve"/>
      <point x="249" y="684"/>
      <point x="249" y="684" type="qcurve"/>
      <point x="249" y="684"/>
      <point x="249" y="684" type="qcurve"/>
      <point x="249" y="684"/>
      <point x="249" y="684" type="qcurve"/>
      <point x="249" y="684"/>
      <point x="249" y="684" type="qcurve"/>
      <point x="248" y="684" type="line"/>
      <point x="248" y="684"/>
      <point x="248" y="684" type="qcurve"/>
      <point x="248" y="684"/>
      <point x="248" y="684" type="qcurve"/>
      <point x="248" y="684"/>
      <point x="248" y="684" type="qcurve"/>
      <point x="248" y="684"/>
      <point x="248" y="684" type="qcurve"/>
      <point x="248" y="684"/>
      <point x="248" y="684" type="qcurve"/>
      <point x="248" y="684"/>
      <point x="247" y="684" type="qcurve"/>
      <point x="247" y="684"/>
      <point x="247" y="684" type="qcurve"/>
      <point x="247" y="684"/>
      <point x="247" y="684" type="qcurve"/>
      <point x="244" y="684" type="line"/>
      <point x="244" y="684"/>
      <point x="244" y="684" type="qcurve"/>
      <point x="244" y="684"/>
      <point x="244" y="684" type="qcurve"/>
      <point x="244" y="684"/>
      <point x="244" y="684" type="qcurve"/>
      <point x="244" y="684"/>
      <point x="244" y="684" type="qcurve"/>
      <point x="244" y="684"/>
      <point x="244" y="684" type="qcurve"/>
      <point x="244" y="684"/>
      <point x="244" y="684" type="qcurve"/>
      <point x="244" y="684"/>
      <point x="244" y="684" type="qcurve"/>
      <point x="244" y="684"/>
      <point x="243" y="684" type="qcurve"/>
      <point x="243" y="684"/>
      <point x="243" y="684" type="qcurve"/>
      <point x="243" y="684"/>
      <point x="243" y="684" type="qcurve"/>
      <point x="243" y="684"/>
      <point x="243" y="684" type="qcurve"/>
      <point x="243" y="684"/>
      <point x="243" y="684" type="qcurve"/>
      <point x="231" y="684" type="line"/>
      <point x="231" y="684"/>
      <point x="231" y="684" type="qcurve"/>
      <point x="231" y="684"/>
      <point x="231" y="684" type="qcurve"/>
      <point x="231" y="684"/>
      <point x="231" y="684" type="qcurve"/>
      <point x="231" y="684"/>
      <point x="231" y="684" type="qcurve"/>
      <point x="231" y="684"/>
      <point x="231" y="684" type="qcurve"/>
      <point x="231" y="684"/>
      <point x="231" y="684" type="qcurve"/>
      <point x="231" y="684"/>
      <point x="230" y="684" type="qcurve"/>
      <point x="230" y="684"/>
      <point x="230" y="684" type="qcurve"/>
      <point x="227" y="684" type="line" smooth="yes"/>
      <point x="212" y="684"/>
      <point x="212" y="685" type="qcurve"/>
    </contour>
    <contour>
      <point x="59" y="764" type="line"/>
      <point x="153" y="765" type="line"/>
      <point x="154" y="683" type="line"/>
      <point x="127" y="682"/>
      <point x="106" y="682" type="qcurve" smooth="yes"/>
      <point x="103" y="682" type="line"/>
      <point x="103" y="682"/>
      <point x="103" y="682" type="qcurve"/>
      <point x="103" y="682"/>
      <point x="103" y="682" type="qcurve"/>
      <point x="103" y="682"/>
      <point x="103" y="682" type="qcurve"/>
      <point x="103" y="682"/>
      <point x="103" y="682" type="qcurve"/>
      <point x="103" y="682"/>
      <point x="103" y="682" type="qcurve"/>
      <point x="103" y="682"/>
      <point x="103" y="682" type="qcurve"/>
      <point x="103" y="682"/>
      <point x="103" y="682" type="qcurve"/>
      <point x="103" y="682"/>
      <point x="103" y="682" type="qcurve"/>
      <point x="102" y="682" type="line"/>
      <point x="102" y="682"/>
      <point x="102" y="682" type="qcurve"/>
      <point x="102" y="682"/>
      <point x="102" y="682" type="qcurve"/>
      <point x="101" y="682" type="line"/>
      <point x="101" y="682"/>
      <point x="101" y="682" type="qcurve"/>
      <point x="101" y="682"/>
      <point x="101" y="682" type="qcurve"/>
      <point x="98" y="682" type="line"/>
      <point x="98" y="682"/>
      <point x="98" y="682" type="qcurve"/>
      <point x="98" y="682"/>
      <point x="98" y="682" type="qcurve"/>
      <point x="96" y="682" type="line"/>
      <point x="96" y="682"/>
      <point x="96" y="682" type="qcurve"/>
      <point x="96" y="682"/>
      <point x="96" y="682" type="qcurve"/>
      <point x="96" y="682"/>
      <point x="96" y="682" type="qcurve"/>
      <point x="94" y="682" type="line"/>
      <point x="94" y="682"/>
      <point x="94" y="682" type="qcurve"/>
      <point x="94" y="682"/>
      <point x="94" y="682" type="qcurve"/>
      <point x="94" y="682"/>
      <point x="94" y="682" type="qcurve"/>
      <point x="92" y="682" type="line"/>
      <point x="92" y="682"/>
      <point x="92" y="682" type="qcurve"/>
      <point x="92" y="682"/>
      <point x="92" y="682" type="qcurve"/>
      <point x="92" y="682"/>
      <point x="92" y="682" type="qcurve"/>
      <point x="90" y="682" type="line"/>
      <point x="90" y="682"/>
      <point x="90" y="682" type="qcurve"/>
      <point x="90" y="682"/>
      <point x="90" y="682" type="qcurve"/>
      <point x="90" y="682"/>
      <point x="90" y="682" type="qcurve"/>
      <point x="89" y="682" type="line"/>
      <point x="89" y="682"/>
      <point x="89" y="682" type="qcurve"/>
      <point x="89" y="682"/>
      <point x="89" y="682" type="qcurve"/>
      <point x="89" y="682"/>
      <point x="89" y="682" type="qcurve"/>
      <point x="74" y="682" type="line" smooth="yes"/>
      <point x="59" y="682"/>
      <point x="59" y="683" type="qcurve"/>
    </contour>
    <contour>
      <point x="101" y="682" type="qcurve"/>
      <point x="101" y="682"/>
      <point x="101" y="682" type="qcurve"/>
      <point x="101" y="682"/>
    </contour>
    <contour>
      <point x="246" y="0" type="line"/>
      <point x="246" y="128" type="line"/>
      <point x="119" y="128" type="line"/>
      <point x="119" y="0" type="line"/>
      <point x="8" y="0" type="line"/>
      <point x="8" y="139" type="line" smooth="yes"/>
      <point x="8" y="207"/>
      <point x="16" y="337"/>
      <point x="44" y="464"/>
      <point x="99" y="587"/>
      <point x="146" y="649" type="qcurve"/>
      <point x="218" y="649" type="line"/>
      <point x="266" y="587"/>
      <point x="321" y="463"/>
      <point x="350" y="337"/>
      <point x="358" y="207"/>
      <point x="358" y="139" type="qcurve" smooth="yes"/>
      <point x="358" y="0" type="line"/>
    </contour>
    <contour>
      <point x="245" y="233" type="line"/>
      <point x="243" y="266"/>
      <point x="234" y="337"/>
      <point x="218" y="407"/>
      <point x="196" y="474"/>
      <point x="182" y="504" type="qcurve"/>
      <point x="152" y="441"/>
      <point x="122" y="303"/>
      <point x="119" y="233" type="qcurve"/>
    </contour>
  </outline>
</glyph>
